<?xml version="1.0" encoding="UTF-8"?>
<svg width="973px" height="115px" viewBox="0 0 973 115" version="1.1" xmlns="http://www.w3.org/2000/svg" xmlns:xlink="http://www.w3.org/1999/xlink">
    <!-- Generator: Sketch 64 (93537) - https://sketch.com -->
    <title>Group 4</title>
    <desc>Created with Sketch.</desc>
    <g id="Page-1" stroke="none" stroke-width="1" fill="none" fill-rule="evenodd">
        <g id="004" transform="translate(-474.000000, -543.000000)">
            <g id="Group-4" transform="translate(474.000000, 543.000000)">
                <path d="M449.868421,100 L451.315789,86.5789474 L449.210526,86.5789474 C447.45614,86.5789474 446.20614,86.3815789 445.460526,85.9868421 C444.714912,85.5921053 444.188596,84.6710526 443.881579,83.2236842 C443.574561,81.7763158 443.421053,79.3859649 443.421053,76.0526316 L443.421053,76.0526316 L443.421053,58.2894737 C443.421053,49.0789474 441.381579,42.3684211 437.302632,38.1578947 C433.223684,33.9473684 427.324561,31.8421053 419.605263,31.8421053 C411.622807,31.8421053 403.640351,33.7719298 395.657895,37.6315789 L395.657895,37.6315789 L397.105263,50.9210526 C400.701754,49.1666667 403.881579,47.8947368 406.644737,47.1052632 C409.407895,46.3157895 412.236842,45.9210526 415.131579,45.9210526 C419.254386,45.9210526 422.214912,46.754386 424.013158,48.4210526 C425.811404,50.0877193 426.798246,52.8508772 426.973684,56.7105263 C421.798246,56.8859649 416.403509,57.6973684 410.789474,59.1447368 C405.175439,60.5921053 400.307018,63.0482456 396.184211,66.5131579 C392.061404,69.9780702 390,74.5614035 390,80.2631579 C390,86.3157895 391.820175,91.1184211 395.460526,94.6710526 C399.100877,98.2236842 403.640351,100 409.078947,100 C413.114035,100 416.951754,99.3201754 420.592105,97.9605263 C424.232456,96.6008772 427.105263,94.7368421 429.210526,92.3684211 C430.526316,94.7368421 432.412281,96.6008772 434.868421,97.9605263 C437.324561,99.3201754 440.350877,100 443.947368,100 L443.947368,100 L449.868421,100 Z M415.921053,87.5 C412.850877,87.5 410.614035,86.8640351 409.210526,85.5921053 C407.807018,84.3201754 407.105263,82.3245614 407.105263,79.6052632 C407.105263,76.0087719 409.122807,73.2017544 413.157895,71.1842105 C417.192982,69.1666667 421.842105,68.0263158 427.105263,67.7631579 L427.105263,67.7631579 L427.105263,82.7631579 C425.526316,84.254386 423.684211,85.4166667 421.578947,86.25 C419.473684,87.0833333 417.587719,87.5 415.921053,87.5 Z M483.157895,100 L484.605263,86.5789474 C482.149123,86.5789474 480.416667,86.4254386 479.407895,86.1184211 C478.399123,85.8114035 477.697368,84.9342105 477.302632,83.4868421 C476.907895,82.0394737 476.710526,79.5614035 476.710526,76.0526316 L476.710526,76.0526316 L476.710526,0 L460.394737,0 L460.394737,82.7631579 C460.394737,87.8508772 461.798246,91.995614 464.605263,95.1973684 C467.412281,98.3991228 471.622807,100 477.236842,100 L477.236842,100 L483.157895,100 Z M528.157895,100 L529.605263,86.5789474 L525.131579,86.5789474 C521.798246,86.5789474 519.495614,86.3815789 518.223684,85.9868421 C516.951754,85.5921053 516.118421,84.7149123 515.723684,83.3552632 C515.328947,81.995614 515.131579,79.5614035 515.131579,76.0526316 L515.131579,76.0526316 L515.131579,46.3157895 L529.605263,46.3157895 L529.605263,32.8947368 L515.131579,32.8947368 L515.131579,16.7105263 L498.815789,18.4210526 L498.815789,32.8947368 L490.921053,32.8947368 L489.473684,46.3157895 L498.815789,46.3157895 L498.815789,82.7631579 C498.815789,87.5 500.307018,91.5570175 503.289474,94.9342105 C506.27193,98.3114035 510.657895,100 516.447368,100 L516.447368,100 L528.157895,100 Z M595.263158,100 L596.710526,86.5789474 L594.605263,86.5789474 C592.850877,86.5789474 591.600877,86.3815789 590.855263,85.9868421 C590.109649,85.5921053 589.583333,84.6710526 589.276316,83.2236842 C588.969298,81.7763158 588.815789,79.3859649 588.815789,76.0526316 L588.815789,76.0526316 L588.815789,58.2894737 C588.815789,49.0789474 586.776316,42.3684211 582.697368,38.1578947 C578.618421,33.9473684 572.719298,31.8421053 565,31.8421053 C557.017544,31.8421053 549.035088,33.7719298 541.052632,37.6315789 L541.052632,37.6315789 L542.5,50.9210526 C546.096491,49.1666667 549.276316,47.8947368 552.039474,47.1052632 C554.802632,46.3157895 557.631579,45.9210526 560.526316,45.9210526 C564.649123,45.9210526 567.609649,46.754386 569.407895,48.4210526 C571.20614,50.0877193 572.192982,52.8508772 572.368421,56.7105263 C567.192982,56.8859649 561.798246,57.6973684 556.184211,59.1447368 C550.570175,60.5921053 545.701754,63.0482456 541.578947,66.5131579 C537.45614,69.9780702 535.394737,74.5614035 535.394737,80.2631579 C535.394737,86.3157895 537.214912,91.1184211 540.855263,94.6710526 C544.495614,98.2236842 549.035088,100 554.473684,100 C558.508772,100 562.346491,99.3201754 565.986842,97.9605263 C569.627193,96.6008772 572.5,94.7368421 574.605263,92.3684211 C575.921053,94.7368421 577.807018,96.6008772 580.263158,97.9605263 C582.719298,99.3201754 585.745614,100 589.342105,100 L589.342105,100 L595.263158,100 Z M561.315789,87.5 C558.245614,87.5 556.008772,86.8640351 554.605263,85.5921053 C553.201754,84.3201754 552.5,82.3245614 552.5,79.6052632 C552.5,76.0087719 554.517544,73.2017544 558.552632,71.1842105 C562.587719,69.1666667 567.236842,68.0263158 572.5,67.7631579 L572.5,67.7631579 L572.5,82.7631579 C570.921053,84.254386 569.078947,85.4166667 566.973684,86.25 C564.868421,87.0833333 562.982456,87.5 561.315789,87.5 Z M637.894737,100 C643.245614,100 648.135965,98.5087719 652.565789,95.5263158 C656.995614,92.5438596 660.504386,88.4868421 663.092105,83.3552632 C665.679825,78.2236842 666.973684,72.5877193 666.973684,66.4473684 C666.973684,60.4824561 665.789474,54.9342105 663.421053,49.8026316 C661.052632,44.6710526 657.653509,40.5701754 653.223684,37.5 C648.79386,34.4298246 643.684211,32.8947368 637.894737,32.8947368 C634.035088,32.8947368 630.328947,33.6842105 626.776316,35.2631579 C623.223684,36.8421053 620.263158,38.9912281 617.894737,41.7105263 L617.894737,41.7105263 L617.894737,0 L606.052632,0 L606.052632,98.6842105 L616.578947,98.6842105 L617.894737,90.7894737 C619.912281,93.6842105 622.763158,95.9429825 626.447368,97.5657895 C630.131579,99.1885965 633.947368,100 637.894737,100 Z M636.447368,89.4736842 C630.921053,89.4736842 626.337719,87.5438596 622.697368,83.6842105 C619.057018,79.8245614 617.236842,74.0789474 617.236842,66.4473684 C617.236842,59.0789474 619.078947,53.3991228 622.763158,49.4078947 C626.447368,45.4166667 631.008772,43.4210526 636.447368,43.4210526 C641.973684,43.4210526 646.425439,45.5921053 649.802632,49.9342105 C653.179825,54.2763158 654.868421,59.7807018 654.868421,66.4473684 C654.868421,72.9385965 653.179825,78.3991228 649.802632,82.8289474 C646.425439,87.2587719 641.973684,89.4736842 636.447368,89.4736842 Z M707.368421,100 C713.859649,100 719.539474,98.5307018 724.407895,95.5921053 C729.276316,92.6535088 732.982456,88.6403509 735.526316,83.5526316 C738.070175,78.4649123 739.342105,72.7631579 739.342105,66.4473684 C739.342105,60.1315789 738.070175,54.4298246 735.526316,49.3421053 C732.982456,44.254386 729.276316,40.2412281 724.407895,37.3026316 C719.539474,34.3640351 713.859649,32.8947368 707.368421,32.8947368 C700.789474,32.8947368 695.087719,34.3640351 690.263158,37.3026316 C685.438596,40.2412281 681.754386,44.254386 679.210526,49.3421053 C676.666667,54.4298246 675.394737,60.1315789 675.394737,66.4473684 C675.394737,72.7631579 676.666667,78.4649123 679.210526,83.5526316 C681.754386,88.6403509 685.438596,92.6535088 690.263158,95.5921053 C695.087719,98.5307018 700.789474,100 707.368421,100 Z M707.368421,89.4736842 C701.052632,89.4736842 696.162281,87.4561404 692.697368,83.4210526 C689.232456,79.3859649 687.5,73.7280702 687.5,66.4473684 C687.5,59.1666667 689.232456,53.5087719 692.697368,49.4736842 C696.162281,45.4385965 701.052632,43.4210526 707.368421,43.4210526 C713.684211,43.4210526 718.574561,45.4385965 722.039474,49.4736842 C725.504386,53.5087719 727.236842,59.1666667 727.236842,66.4473684 C727.236842,73.7280702 725.504386,79.3859649 722.039474,83.4210526 C718.574561,87.4561404 713.684211,89.4736842 707.368421,89.4736842 Z M803.815789,100 L805.657895,90.5263158 L804.473684,90.5263158 C802.280702,90.5263158 800.657895,90.0438596 799.605263,89.0789474 C798.552632,88.1140351 797.872807,86.7324561 797.565789,84.9342105 C797.258772,83.1359649 797.105263,80.4824561 797.105263,76.9736842 L797.105263,76.9736842 L797.105263,63.8157895 C797.105263,56.0087719 796.337719,49.8684211 794.802632,45.3947368 C793.267544,40.9210526 790.855263,37.7192982 787.565789,35.7894737 C784.276316,33.8596491 779.868421,32.8947368 774.342105,32.8947368 C770.131579,32.8947368 766.096491,33.5087719 762.236842,34.7368421 C758.377193,35.9649123 755.131579,37.5877193 752.5,39.6052632 L752.5,39.6052632 L754.210526,49.2105263 C757.368421,47.0175439 760.307018,45.504386 763.026316,44.6710526 C765.745614,43.8377193 768.464912,43.4210526 771.184211,43.4210526 C776.096491,43.4210526 779.671053,44.4517544 781.907895,46.5131579 C784.144737,48.5745614 785.263158,52.5 785.263158,58.2894737 C775,58.4649123 766.008772,60.3070175 758.289474,63.8157895 C750.570175,67.3245614 746.710526,73.1578947 746.710526,81.3157895 C746.710526,86.754386 748.530702,91.2280702 752.171053,94.7368421 C755.811404,98.245614 760.614035,100 766.578947,100 C774.298246,100 780.877193,96.8421053 786.315789,90.5263158 C787.280702,92.8070175 788.311404,94.6052632 789.407895,95.9210526 C790.504386,97.2368421 792.105263,98.245614 794.210526,98.9473684 C796.315789,99.6491228 799.210526,100 802.894737,100 L802.894737,100 L803.815789,100 Z M768.815789,90.5263158 C765.745614,90.5263158 763.311404,89.7149123 761.513158,88.0921053 C759.714912,86.4692982 758.815789,83.9912281 758.815789,80.6578947 C758.815789,75.8333333 760.855263,72.3464912 764.934211,70.1973684 C769.013158,68.0482456 775.789474,66.7982456 785.263158,66.4473684 L785.263158,66.4473684 L785.263158,81.8421053 C783.333333,84.4736842 780.899123,86.5789474 777.960526,88.1578947 C775.02193,89.7368421 771.973684,90.5263158 768.815789,90.5263158 Z M827.368421,98.6842105 L827.368421,53.1578947 C828.684211,51.2280702 830.789474,49.5394737 833.684211,48.0921053 C836.578947,46.6447368 839.649123,45.9210526 842.894737,45.9210526 C844.385965,45.9210526 845.701754,46.0526316 846.842105,46.3157895 L846.842105,46.3157895 L848.026316,33.2894737 C847.061404,33.0263158 846.052632,32.8947368 845,32.8947368 C841.666667,32.8947368 838.486842,33.8596491 835.460526,35.7894737 C832.434211,37.7192982 829.254386,40.745614 825.921053,44.8684211 L825.921053,44.8684211 L824.473684,34.2105263 L814.736842,34.2105263 L814.736842,98.6842105 L827.368421,98.6842105 Z M881.842105,100 C885.789474,100 889.517544,99.2105263 893.026316,97.6315789 C896.535088,96.0526316 899.385965,93.7719298 901.578947,90.7894737 L901.578947,90.7894737 L902.894737,98.6842105 L913.421053,98.6842105 L913.421053,0 L901.578947,0 L901.578947,41.4473684 C899.122807,38.5526316 896.184211,36.4035088 892.763158,35 C889.342105,33.5964912 885.701754,32.8947368 881.842105,32.8947368 C876.052632,32.8947368 870.921053,34.4298246 866.447368,37.5 C861.973684,40.5701754 858.530702,44.6929825 856.118421,49.8684211 C853.70614,55.0438596 852.5,60.6140351 852.5,66.5789474 C852.5,72.7192982 853.79386,78.3333333 856.381579,83.4210526 C858.969298,88.5087719 862.5,92.5438596 866.973684,95.5263158 C871.447368,98.5087719 876.403509,100 881.842105,100 Z M883.947368,89.4736842 C878.070175,89.4736842 873.377193,87.2807018 869.868421,82.8947368 C866.359649,78.5087719 864.605263,73.0701754 864.605263,66.5789474 C864.605263,59.8245614 866.337719,54.2763158 869.802632,49.9342105 C873.267544,45.5921053 877.982456,43.4210526 883.947368,43.4210526 C887.017544,43.4210526 890.02193,44.3201754 892.960526,46.1184211 C895.899123,47.9166667 898.289474,50.5701754 900.131579,54.0789474 C901.973684,57.5877193 902.894737,61.754386 902.894737,66.5789474 C902.894737,71.754386 901.973684,76.0526316 900.131579,79.4736842 C898.289474,82.8947368 895.921053,85.4166667 893.026316,87.0394737 C890.131579,88.6622807 887.105263,89.4736842 883.947368,89.4736842 Z M947.631579,100 C956.578947,100 962.916667,98.1140351 966.644737,94.3421053 C970.372807,90.5701754 972.236842,86.0526316 972.236842,80.7894737 C972.236842,74.9122807 970.416667,70.6140351 966.776316,67.8947368 C963.135965,65.1754386 958.815789,63.0701754 953.815789,61.5789474 C949.780702,60.3508772 946.798246,59.3421053 944.868421,58.5526316 C942.938596,57.7631579 941.447368,56.7763158 940.394737,55.5921053 C939.342105,54.4078947 938.815789,52.8508772 938.815789,50.9210526 C938.815789,48.0263158 939.934211,45.8552632 942.171053,44.4078947 C944.407895,42.9605263 947.45614,42.2368421 951.315789,42.2368421 C954.649123,42.2368421 957.587719,42.7412281 960.131579,43.75 C962.675439,44.7587719 965,46.1403509 967.105263,47.8947368 L967.105263,47.8947368 L968.552632,37.1052632 C965.921053,35.7894737 963.289474,34.7587719 960.657895,34.0131579 C958.026316,33.2675439 954.824561,32.8947368 951.052632,32.8947368 C942.807018,32.8947368 936.710526,34.7368421 932.763158,38.4210526 C928.815789,42.1052632 926.842105,46.7105263 926.842105,52.2368421 C926.842105,56.2719298 927.828947,59.5175439 929.802632,61.9736842 C931.776316,64.4298246 934.144737,66.25 936.907895,67.4342105 C939.671053,68.6184211 943.070175,69.7368421 947.105263,70.7894737 C950.789474,71.8421053 953.859649,73.1359649 956.315789,74.6710526 C958.77193,76.2061404 960,78.4649123 960,81.4473684 C960,83.9912281 958.881579,85.9649123 956.644737,87.3684211 C954.407895,88.7719298 951.22807,89.4736842 947.105263,89.4736842 C942.719298,89.4736842 938.70614,88.7719298 935.065789,87.3684211 C931.425439,85.9649123 928.72807,84.4736842 926.973684,82.8947368 L926.973684,82.8947368 L925.526316,94.3421053 C927.54386,95.745614 930.460526,97.0394737 934.276316,98.2236842 C938.092105,99.4078947 942.54386,100 947.631579,100 Z" id="altaboards" fill="#5A5D60" fill-rule="nonzero"></path>
                <g id="Group-5">
                    <g id="Group-3" transform="translate(230.000000, 0.000000)">
                        <path d="M57.7311533,15 C81.695023,18.8537399 100.000049,39.6290309 100.000049,64.6796898 C100.000049,92.470857 77.470857,115.000049 49.6796898,115.000049 C24.6290309,115.000049 3.85373993,96.695023 -6.86117829e-14,72.7311533 L15.8569373,72.7318581 C19.3767204,88.3415226 33.3268875,100.000049 50.0000493,100.000049 C69.3300156,100.000049 85.0000493,84.3300156 85.0000493,65.0000493 C85.0000493,48.3268875 73.3415226,34.3767204 57.7318581,30.8569373 L57.7311533,15 Z" id="Combined-Shape" fill="#00AB6A"></path>
                        <polygon id="Rectangle" fill="#00D081" points="0 -1.70467807e-13 15 -1.70467807e-13 15 57 0 57"></polygon>
                    </g>
                    <g id="Group" transform="translate(0.000000, 15.000000)">
                        <path d="M57.7311533,-6.22280005e-14 C81.695023,3.85373993 100.000049,24.6290309 100.000049,49.6796898 C100.000049,77.470857 77.470857,100.000049 49.6796898,100.000049 C24.6290309,100.000049 3.85373993,81.695023 4.50195436e-14,57.7311533 L15.8569373,57.7318581 C19.3767204,73.3415226 33.3268875,85.0000493 50.0000493,85.0000493 C69.3300156,85.0000493 85.0000493,69.3300156 85.0000493,50.0000493 C85.0000493,33.3268875 73.3415226,19.3767204 57.7318581,15.8569373 L57.7311533,-6.22280005e-14 Z" id="Combined-Shape" fill="#E24A4D" transform="translate(50.000025, 50.000025) scale(1, -1) rotate(90.000000) translate(-50.000025, -50.000025) "></path>
                        <path d="M85,85 L85,58 L100,58 L100,100 L58,100 L58,85 L85,85 Z" id="Combined-Shape" fill="#FF715D"></path>
                    </g>
                    <g id="Group-2" transform="translate(165.000000, 65.000000) scale(1, -1) translate(-165.000000, -65.000000) translate(115.000000, 15.000000)">
                        <path d="M57.7311533,-3.38062911e-14 C81.695023,3.85373993 100.000049,24.6290309 100.000049,49.6796898 C100.000049,77.470857 77.470857,100.000049 49.6796898,100.000049 C24.6290309,100.000049 3.85373993,81.695023 1.94233518e-13,57.7311533 L15.8569373,57.7318581 C19.3767204,73.3415226 33.3268875,85.0000493 50.0000493,85.0000493 C69.3300156,85.0000493 85.0000493,69.3300156 85.0000493,50.0000493 C85.0000493,33.3268875 73.3415226,19.3767204 57.7318581,15.8569373 L57.7311533,-3.38062911e-14 Z" id="Combined-Shape" fill="#FFC645" transform="translate(50.000025, 50.000025) scale(-1, -1) translate(-50.000025, -50.000025) "></path>
                        <polygon id="Rectangle" fill="#FFB000" transform="translate(65.206852, 67.206852) scale(-1, 1) rotate(45.000000) translate(-65.206852, -67.206852) " points="57.7068517 38.6354231 72.7068517 38.6354231 72.7068517 95.7782803 57.7068517 95.7782803"></polygon>
                        <polygon id="Rectangle" fill="#FFB000" transform="translate(68.214286, 30.714286) rotate(45.000000) translate(-68.214286, -30.714286) " points="60.7142857 -4.28571429 75.7142857 -4.28571429 75.7142857 65.7142857 60.7142857 65.7142857"></polygon>
                        <circle id="Oval" fill="#FFB000" cx="50" cy="50" r="15"></circle>
                    </g>
                </g>
            </g>
        </g>
    </g>
</svg>