<svg width="50" height="50" viewBox="0 0 50 50" fill="none" xmlns="http://www.w3.org/2000/svg">
<path d="M8.06102 0.0196533C5.3937 0.0196533 3.22835 2.18501 3.22835 4.85233V7.27359H0V21.7815H1.61417V8.88776H3.22835V42.2244L8.06102 49.872L12.8937 42.2244V4.85233C12.8937 2.18501 10.7283 0.0196533 8.06102 0.0196533ZM4.83268 4.85233C4.83268 3.07083 6.27953 1.63383 8.05118 1.63383C9.82283 1.63383 11.2697 3.08068 11.2697 4.85233V7.27359H4.83268V4.85233ZM8.06102 46.8602L5.44291 42.7264H10.6693L8.06102 46.8602ZM11.2795 41.122H4.83268V8.88776H11.2795V41.122Z" fill="#00AB6A"/>
<path d="M8.86808 23.3858H7.25391V25H8.86808V23.3858Z" fill="#00AB6A"/>
<path d="M8.86808 26.6142H7.25391V28.2284H8.86808V26.6142Z" fill="#00AB6A"/>
<path d="M8.86808 20.1673H7.25391V21.7815H8.86808V20.1673Z" fill="#00AB6A"/>
<path d="M34.8328 0.0196533H14.5474V49.9803H50.0001V15.187L34.8328 0.0196533ZM35.4922 2.96257L47.0572 14.5275H35.4922V2.96257ZM48.3958 48.376H16.1615V48.3661V1.63383H33.8879V16.1417H48.3958V48.376Z" fill="#00AB6A"/>
<path d="M19.3799 4.04529V16.939H30.6594V4.04529H19.3799ZM29.0452 15.3347H20.9842V5.65946H29.0452V15.3347Z" fill="#00AB6A"/>
<path d="M45.1673 19.3602H19.3799V20.9744H45.1673V19.3602Z" fill="#00AB6A"/>
<path d="M45.1673 23.3858H19.3799V25H45.1673V23.3858Z" fill="#00AB6A"/>
<path d="M20.9941 41.1122H19.3799V42.7264H20.9941V41.1122Z" fill="#00AB6A"/>
<path d="M24.2128 41.1122H22.5986V42.7264H24.2128V41.1122Z" fill="#00AB6A"/>
<path d="M27.4408 41.1122H25.8267V42.7264H27.4408V41.1122Z" fill="#00AB6A"/>
<path d="M44.5768 32.2933C44.4489 32.1457 44.3603 31.939 44.3603 31.7225V30.7776C44.3603 29.4488 43.2776 28.3563 41.939 28.3563H40.9942C40.7776 28.3563 40.5808 28.2677 40.4233 28.1201C39.9705 27.6673 39.3603 27.4114 38.7107 27.4114C38.0611 27.4114 37.4607 27.6673 36.9981 28.1201C36.8505 28.2677 36.6438 28.3563 36.4272 28.3563H35.4824C34.1536 28.3563 33.0611 29.439 33.0611 30.7776V31.7225C33.0611 31.939 32.9725 32.1457 32.8249 32.2933C31.88 33.2382 31.88 34.7736 32.8249 35.7087C32.9725 35.8563 33.0611 36.063 33.0611 36.2795V37.2244C33.0611 38.5532 34.1438 39.6457 35.4824 39.6457V46.6536L38.7009 44.5079L41.9194 46.6536V39.6457C43.2481 39.6457 44.3406 38.563 44.3406 37.2244V36.2795C44.3406 36.063 44.4292 35.8563 44.5768 35.7087C45.5217 34.7638 45.5217 33.2284 44.5768 32.2933ZM37.1064 43.6418V39.9705C37.1457 40.0099 37.195 40.0394 37.2442 40.0689C37.3131 40.1181 37.3721 40.1673 37.441 40.2166C37.4705 40.2362 37.5001 40.2461 37.5296 40.2658C37.8839 40.4725 38.2875 40.5906 38.7107 40.5906C39.1339 40.5906 39.5375 40.4725 39.8918 40.2658C39.9213 40.2461 39.9607 40.2362 39.9902 40.2166C40.0591 40.1772 40.1182 40.1181 40.1871 40.0689C40.2363 40.0394 40.2757 40.0099 40.3249 39.9705V43.6353L38.7205 42.5689L37.1064 43.6418ZM43.4548 34.5768C43.002 35.0295 42.7461 35.6398 42.7461 36.2894V37.2343C42.7461 37.6772 42.382 38.0414 41.939 38.0414H40.9942C40.3446 38.0414 39.7442 38.2973 39.2816 38.75C38.9764 39.0551 38.445 39.0551 38.1398 38.75C37.6871 38.2973 37.0768 38.0414 36.4272 38.0414H35.4824C35.0394 38.0414 34.6753 37.6772 34.6753 37.2343V36.2894C34.6753 35.6398 34.4194 35.0394 33.9666 34.5768C33.6516 34.2618 33.6516 33.75 33.9666 33.4351C34.4194 32.9823 34.6753 32.3721 34.6753 31.7225V30.7776C34.6753 30.3347 35.0394 29.9705 35.4824 29.9705H36.4272C37.0768 29.9705 37.6772 29.7146 38.1398 29.2618C38.445 28.9567 38.9764 28.9567 39.2816 29.2618C39.7343 29.7146 40.3446 29.9705 40.9942 29.9705H41.939C42.382 29.9705 42.7461 30.3347 42.7461 30.7776V31.7225C42.7461 32.3721 43.002 32.9725 43.4548 33.4351C43.7698 33.75 43.7698 34.2618 43.4548 34.5768Z" fill="#00AB6A"/>
</svg>
