<?xml version="1.0" encoding="UTF-8"?>
<svg width="2789px" height="1951px" viewBox="0 0 2789 1951" version="1.1" xmlns="http://www.w3.org/2000/svg" xmlns:xlink="http://www.w3.org/1999/xlink">
    <!-- Generator: Sketch 64 (93537) - https://sketch.com -->
    <title>ilustra-02</title>
    <desc>Created with Sketch.</desc>
    <g id="Page-1" stroke="none" stroke-width="1" fill="none" fill-rule="evenodd">
        <g id="ilustra-02">
            <path d="M2588.50608,945.532329 C2369.91489,999.247316 2280.23572,745.762594 2167.06256,492.270692 C2042.11384,212.414293 1888.536,-67.4433029 1501.23783,66.0927056 C1436.94855,88.2583644 1338.77115,62.7697714 1229.20879,37.2811783 C985.094331,-19.5150316 684.489521,-76.310045 576.541065,394.162165 C539.350838,556.244057 407.590194,574.092415 216.314326,676.938247 C-158.028808,878.212097 102.79959,2077.99214 1639.335,1939 C3175.87041,1800.00786 2799.57081,893.660092 2588.50608,945.532329 Z" id="Fill-2" fill="#E7EEEF" opacity="0.4"></path>
            <g id="Group-3" transform="translate(555.000000, 393.000000)">
                <path d="M775.095,461.847 L703.715,1310.573 C703.715,1310.573 696.245,1362.023 734.505,1362.113 C797.435,1362.263 1047.695,1362.113 1047.695,1362.113 C1047.695,1362.113 1000.335,1351.403 1000.905,1327.313 C1001.585,1298.903 1084.335,453.815 1084.335,453.815 L775.095,461.847" id="Fill-5" fill="#34ACC1"></path>
                <path d="M1067.995,1346.713 C1055.625,1346.753 816.595,1347.503 755.315,1346.713 C728.615,1346.383 723.925,1322.973 723.705,1307.823 C723.595,1300.553 724.515,1295.183 724.515,1295.183 L795.895,446.44 L1105.135,438.415 C1105.135,438.415 1070.285,792.083 1045.635,1049.523 C1042.875,1078.203 1040.255,1105.703 1037.835,1131.383 C1037.055,1139.573 1036.305,1147.593 1035.565,1155.393 C1033.275,1179.753 1031.185,1202.123 1029.375,1221.863 C1028.415,1232.273 1027.525,1241.953 1026.725,1250.813 C1023.585,1285.523 1021.735,1307.693 1021.715,1311.913 C1021.705,1314.373 1021.915,1316.653 1022.315,1318.783 C1027.395,1345.833 1063.355,1346.713 1067.995,1346.713" id="Fill-6" fill="#8AD8E6"></path>
                <polyline id="Fill-7" fill="#8AD8E6" points="1508.755 0 24.099 0 302.755 1119.343 1807.235 1119.343 1508.755 0"></polyline>
                <polyline id="Fill-8" fill="#1D9BB2" points="24.096 0 -2.27373675e-13 8.032 270.719 1143.643 302.757 1119.343 24.096 0"></polyline>
                <polyline id="Fill-9" fill="#34ACC1" points="270.719 1143.643 1765.935 1143.643 1807.225 1119.343 302.757 1119.343 270.719 1143.643"></polyline>
                <polygon id="Fill-10" fill="#1D9BB2" points="795.795 1362.443 1119.535 1362.443 1119.535 1347.053 795.795 1347.053"></polygon>
                <polyline id="Fill-11" fill="#69CEE0" points="1037.235 1143.633 1035.565 1155.393 731.105 1216.903 737.275 1143.633 1037.235 1143.633"></polyline>
                <path d="M903.335,1347.053 L830.085,1347.053 C798.085,1347.013 770.935,1346.913 755.315,1346.713 C728.615,1346.383 723.925,1322.973 723.705,1307.823 L1026.725,1250.813 C1023.585,1285.523 1021.735,1307.693 1021.715,1311.913 C1021.715,1311.993 1021.715,1312.063 1021.715,1312.143 C1021.715,1314.513 1021.925,1316.723 1022.315,1318.783 C1027.395,1345.833 1063.355,1346.713 1067.995,1346.713 C1061.015,1346.733 981.955,1346.983 903.335,1347.053" id="Fill-12" fill="#69CEE0"></path>
                <path d="M864.145,1347.073 C852.405,1347.073 840.965,1347.073 830.085,1347.053 L903.335,1347.053 C890.155,1347.063 876.965,1347.073 864.145,1347.073" id="Fill-13" fill="#E78B37"></path>
                <line x1="302.755" y1="1119.343" x2="302.757" y2="1119.343" id="Fill-14" fill="#E3BA9D"></line>
                <polyline id="Fill-15" fill="#69CEE0" points="302.755 1119.343 302.755 1119.343 247.985 899.313 944.095 899.443 302.755 1119.343"></polyline>
                <polyline id="Fill-16" fill="#E58433" points="302.755 1119.343 285.297 1049.213 302.757 1119.343 302.755 1119.343"></polyline>
                <polyline id="Fill-17" fill="#40B5CA" points="1508.755 0 24.096 0 247.855 899.313 1749.645 899.603 1508.755 0"></polyline>
                <path d="M1094.875,1013.323 C1090.595,991.253 1069.225,973.373 1047.165,973.373 C1025.105,973.373 1010.695,991.253 1014.985,1013.323 C1019.275,1035.383 1040.635,1053.263 1062.695,1053.263 C1084.755,1053.263 1099.165,1035.383 1094.875,1013.323" id="Fill-18" fill="#34ACC1"></path>
                <polyline id="Fill-19" fill="#FFFFFF" points="1679.625 860.613 289.53 860.613 85.596 48.187 1455.645 48.187 1679.625 860.613"></polyline>
                <polyline id="Fill-20" fill="#CFD4DB" points="1455.645 48.187 85.596 48.187 109.738 144.374 1482.165 144.374 1455.645 48.187"></polyline>
                <polyline id="Fill-21" fill="#00D081" points="575.575 296.974 714.165 296.974 732.145 366.443 593.555 366.443 575.575 296.974"></polyline>
                <polyline id="Fill-22" fill="#FF715D" points="318.042 366.443 456.625 366.443 473.785 432.739 335.563 432.739 318.042 366.443"></polyline>
                <polyline id="Fill-23" fill="#00D081" points="992.735 296.974 1131.325 296.974 1149.305 366.443 1010.715 366.443 992.735 296.974"></polyline>
                <polyline id="Fill-24" fill="#00D081" points="1027.885 437.497 1166.475 437.497 1183.635 503.793 1045.405 503.793 1027.885 437.497"></polyline>
                <polyline id="Fill-25" fill="#FFC645" points="924.675 574.843 1202.595 574.843 1219.825 644.313 942.655 644.313 924.675 574.843"></polyline>
                <path d="M1657.615,781.233 L1657.615,785.273 L269.681,785.273 L269.681,781.233 L1657.615,781.233 Z M1638.865,711.763 L1638.865,715.803 L251.016,715.803 L251.016,711.763 L1638.865,711.763 Z M1620.105,642.303 L1620.105,646.333 L233.974,646.333 L233.974,642.303 L1620.105,642.303 Z M1601.355,572.833 L1601.355,576.863 L217.448,576.863 L217.448,572.833 L1601.355,572.833 Z M1582.595,503.362 L1582.595,507.397 L199.889,507.397 L199.889,503.362 L1582.595,503.362 Z M1563.845,433.894 L1563.845,437.929 L179.494,437.929 L179.494,433.894 L1563.845,433.894 Z M1545.085,364.425 L1545.085,368.46 L165.804,368.46 L165.804,364.425 L1545.085,364.425 Z M1526.335,294.957 L1526.335,298.992 L145.99,298.992 L145.99,294.957 L1526.335,294.957 Z" id="Combined-Shape" fill="#CFD4DB"></path>
                <path d="M151.3,79.632 C144.659,79.632 140.618,85.016 142.274,91.656 C143.929,98.297 150.655,103.68 157.296,103.68 C163.937,103.68 167.978,98.297 166.322,91.656 C164.666,85.016 157.94,79.632 151.3,79.632" id="Fill-34" fill="#E9F3FE"></path>
                <path d="M191.251,79.632 C184.611,79.632 180.57,85.016 182.226,91.656 C183.881,98.297 190.607,103.68 197.248,103.68 C203.888,103.68 207.929,98.297 206.274,91.656 C204.618,85.016 197.893,79.632 191.251,79.632" id="Fill-35" fill="#E9F3FE"></path>
                <path d="M249.293,91.656 C247.638,85.016 240.913,79.632 234.272,79.632 C227.631,79.632 223.59,85.016 225.246,91.656 C226.901,98.297 233.627,103.68 240.268,103.68 C246.908,103.68 250.949,98.297 249.293,91.656" id="Fill-36" fill="#E9F3FE"></path>
                <polyline id="Fill-37" fill="#CFD4DB" points="1551.035 861.123 1554.935 860.103 1392.755 233.487 1506.725 233.487 1493.475 185.394 1380.305 185.394 1380.175 184.889 1378.225 185.394 1241.715 185.394 1241.585 184.889 1239.635 185.394 1103.135 185.394 1103.005 184.889 1101.045 185.394 964.545 185.394 964.415 184.889 962.465 185.394 825.955 185.394 825.825 184.889 823.875 185.394 687.375 185.394 687.235 184.889 685.285 185.394 548.785 185.394 548.655 184.889 546.695 185.394 410.195 185.394 410.065 184.889 408.115 185.394 271.607 185.394 271.477 184.889 269.523 185.394 120.039 185.394 132.105 233.487 279.886 233.487 442.335 861.123 446.235 860.103 284.055 233.487 418.475 233.487 580.915 861.123 584.825 860.103 422.645 233.487 557.065 233.487 719.505 861.123 723.415 860.103 561.235 233.487 695.645 233.487 858.095 861.123 861.995 860.103 699.815 233.487 834.235 233.487 996.685 861.123 1000.585 860.103 838.405 233.487 972.825 233.487 1135.265 861.123 1139.175 860.103 976.995 233.487 1111.415 233.487 1273.855 861.123 1277.765 860.103 1115.575 233.487 1249.995 233.487 1412.445 861.123 1416.345 860.103 1254.165 233.487 1388.585 233.487 1551.035 861.123"></polyline>
            </g>
            <g id="Group-42" transform="translate(2373.000000, 525.889688)">
                <path d="M229.823045,1228.78861 C229.823045,1228.78861 230.924045,1204.91861 237.323045,1192.11861 C243.724045,1179.31861 294.934045,1188.11861 294.934045,1188.11861 C294.934045,1188.11861 306.734045,1209.47861 305.134045,1228.67861 L229.823045,1228.78861" id="Fill-319" fill="#233862"></path>
                <path d="M92.3940448,1228.78861 C92.3940448,1228.78861 93.5040448,1204.91861 99.9040448,1192.11861 C106.304045,1179.31861 157.514045,1188.11861 157.514045,1188.11861 C157.514045,1188.11861 169.314045,1209.47861 167.714045,1228.67861 L92.3940448,1228.78861" id="Fill-320" fill="#233862"></path>
                <path d="M263.013045,215.888606 C256.614045,220.518606 198.714045,250.748606 198.714045,250.748606 L137.654045,207.208606 C137.654045,207.208606 156.204045,204.508606 156.694045,204.368606 C162.204045,202.828606 161.954045,188.058606 162.644045,172.318606 C162.754045,169.898606 162.884045,167.448606 163.064045,165.028606 L222.854045,162.848606 L222.894045,163.598606 C222.944045,164.348606 223.004045,165.148606 223.064045,165.968606 L223.184045,167.678606 C223.224045,168.268606 223.274045,168.858606 223.314045,169.468606 C224.394045,183.288606 226.704045,202.818606 231.123045,205.098606 C233.634045,206.398606 250.644045,206.188606 263.013045,215.888606" id="Fill-321" fill="#D9935C"></path>
                <path d="M223.314045,169.468606 C218.384045,179.328606 207.404045,196.508606 191.114045,195.938606 C175.564045,195.388606 166.704045,181.248606 162.644045,172.318606 C162.754045,169.898606 162.884045,167.448606 163.064045,165.028606 L222.854045,162.848606 L222.894045,163.598606 L223.064045,165.968606 L223.184045,167.678606 C223.224045,168.268606 223.274045,168.858606 223.314045,169.468606" id="Fill-322" fill="#CB7D45"></path>
                <path d="M155.954045,31.7386065 C155.954045,31.7386065 184.794045,3.01860648 218.814045,32.3186065 C218.814045,32.3186065 198.584045,28.1186065 155.954045,31.7386065" id="Fill-323" fill="#2B478B"></path>
                <path d="M145.254045,137.358606 C145.254045,137.358606 136.124045,118.448606 130.484045,96.4386065 C126.464045,80.7186065 130.144045,21.0586065 190.124045,25.1086065 C190.124045,25.1086065 207.484045,25.5186065 224.514045,35.2386065 C238.044045,42.9786065 258.054045,60.3686065 241.124045,113.458606 L237.034045,131.268606 L145.254045,137.358606" id="Fill-324" fill="#B64C41"></path>
                <path d="M229.164045,162.418606 C213.674045,177.218606 194.444045,196.948606 152.984045,160.468606 C144.864045,153.328606 145.414045,142.358606 144.944045,126.598606 C144.374045,107.938606 139.884045,96.5186065 141.974045,85.7686065 C144.444045,72.8986065 155.444045,67.0886065 178.284045,65.0986065 C220.204045,61.4586065 241.394045,70.9086065 238.584045,91.7086065 C232.294045,138.138606 244.904045,147.368606 229.164045,162.418606" id="Fill-325" fill="#D9935C"></path>
                <path d="M194.994045,64.3386065 C194.994045,64.3386065 219.844045,63.8086065 225.524045,72.1186065 C231.194045,80.4286065 231.984045,89.7286065 234.844045,94.4086065 C237.704045,99.0886065 237.234045,104.348606 237.234045,104.348606 L242.744045,67.2586065 L209.114045,60.5686065 L194.994045,64.3386065" id="Fill-326" fill="#B64C41"></path>
                <path d="M339.944045,268.948606 C339.944045,268.948606 329.334045,300.228606 286.304045,305.958606 C285.144045,306.108606 283.944045,306.238606 282.734045,306.358606 L107.493045,306.358606 C107.493045,306.358606 107.174045,306.268606 106.564045,306.078606 C99.7540448,303.918606 57.8940448,289.568606 53.4840448,262.748606 C53.4840448,262.748606 75.5040448,217.548606 92.3040448,211.938606 C97.2040448,210.298606 103.984045,209.078606 111.114045,208.148606 C118.394045,207.208606 126.064045,206.588606 132.494045,206.178606 C141.354045,205.628606 147.864045,205.488606 147.864045,205.488606 C147.864045,205.488606 161.504045,233.148606 194.714045,232.738606 C227.924045,232.348606 235.623045,205.888606 235.623045,205.888606 C235.623045,205.888606 244.944045,206.158606 257.334045,207.498606 C264.164045,208.228606 271.914045,209.288606 279.564045,210.818606 C292.514045,213.398606 305.124045,217.278606 312.334045,223.138606 C331.544045,238.738606 339.944045,268.948606 339.944045,268.948606" id="Fill-327" fill="#9ED9F0"></path>
                <path d="M298.263045,510.858606 C296.394045,500.498606 293.624045,484.728606 291.444045,470.858606 C291.464045,470.668606 297.944045,392.558606 300.334045,379.368606 C302.734045,366.168606 286.424045,294.338606 286.424045,294.338606 C282.634045,283.338606 276.204045,279.978606 271.263045,279.978606 L279.564045,210.818606 C271.914045,209.288606 264.164045,208.228606 257.334045,207.498606 L253.364045,279.978606 L253.304045,281.028606 C244.214045,281.528606 232.884045,282.138606 222.334045,282.608606 C211.784045,283.088606 202.014045,283.438606 196.004045,283.438606 C183.774045,283.438606 155.714045,282.038606 137.074045,281.018606 L136.994045,279.978606 L132.494045,206.178606 C126.064045,206.588606 118.394045,207.208606 111.114045,208.148606 L119.034045,279.978606 L119.034045,279.998606 C113.814045,279.998606 107.804045,289.258606 106.984045,294.408606 L106.174045,316.878606 C102.224045,328.198606 94.0540448,353.328606 92.7040448,370.968606 C90.9040448,394.298606 100.644045,475.428606 100.714045,475.988606 C100.354045,485.658606 99.6740448,498.018606 98.3540448,509.978606 C91.0340448,529.818606 59.8040448,622.078606 62.9840448,746.138606 C65.9440448,861.948606 67.6940448,1059.82861 81.3440448,1155.89861 C83.5640448,1171.49861 86.0940448,1184.40861 88.9840448,1193.84861 C90.4540448,1198.60861 94.5640448,1202.05861 99.5040448,1202.74861 C115.144045,1204.91861 150.424045,1208.91861 165.604045,1203.39861 C172.874045,1200.73861 178.084045,1160.35861 181.764045,1108.28861 C185.294045,1058.36861 187.424045,997.708606 188.594045,949.298606 L188.604045,949.268606 C189.554045,910.668606 189.914045,879.868606 189.914045,868.458606 C189.914045,842.658606 196.014045,766.948606 198.034045,722.418606 C198.094045,721.158606 199.924045,721.148606 200.014045,722.398606 L200.014045,722.408606 C203.074045,775.278606 213.754045,855.448606 213.924045,873.258606 C214.314045,916.468606 211.804045,1194.06861 230.684045,1203.39861 C245.124045,1210.52861 279.154045,1205.13861 295.404045,1202.93861 C301.294045,1202.13861 306.114045,1197.94861 307.774045,1192.24861 C328.084045,1122.39861 329.884045,879.698606 333.304045,746.138606 C336.434045,623.818606 306.134045,532.408606 298.263045,510.858606" id="Fill-328" fill="#2B478B"></path>
                <path d="M139.114045,560.808606 C133.114045,565.608606 113.514045,563.608606 105.914045,557.208606 C98.3040448,550.798606 83.1140448,552.808606 79.5040448,550.408606 C79.2540448,550.238606 8.49404476,466.378606 0.824044757,431.088606 C-6.91595524,395.478606 42.0640448,297.478606 55.9240448,270.768606 C66.1840448,292.438606 100.364045,304.138606 106.464045,306.078606 C107.074045,306.268606 107.404045,306.358606 107.404045,306.358606 L109.294045,306.358606 C97.7640448,337.548606 63.2840448,393.678606 49.9940448,414.828606 C46.6940448,420.078606 46.2740448,426.658606 48.8940448,432.298606 C65.9540448,468.898606 82.6540448,499.768606 89.9640448,521.158606 C91.4140448,523.528606 94.5340448,527.778606 98.3040448,527.208606 C103.514045,526.398606 120.314045,522.798606 128.714045,535.198606 C137.114045,547.608606 145.114045,556.008606 139.114045,560.808606" id="Fill-329" fill="#D9935C"></path>
                <path d="M246.834045,32.5786065 C246.834045,32.5786065 242.224045,26.3186065 233.964045,19.2986065 C232.654045,18.1686065 231.243045,17.0286065 229.743045,15.8986065 C214.554045,4.33860648 190.234045,-6.94139352 160.924045,5.28860648 C152.974045,8.59860648 146.374045,13.0886065 140.894045,18.2986065 C139.594045,19.5286065 138.364045,20.7886065 137.204045,22.0986065 C111.784045,50.2986065 113.934045,94.5186065 113.934045,94.5186065 L260.594045,92.9486065 C261.074045,52.0086065 246.834045,32.5786065 246.834045,32.5786065" id="Fill-330" fill="#FFA412"></path>
                <path d="M219.394045,93.3886065 C218.984045,87.2186065 216.184045,36.6186065 233.964045,19.3186065 C232.654045,18.1786065 232.964045,18.3786065 231.464045,17.2386065 C212.504045,37.1386065 211.294045,86.9686065 211.364045,93.4786065 L164.484045,93.9786065 C163.094045,58.0586065 143.274045,22.2886065 140.894045,18.2986065 C139.594045,19.5286065 139.344045,19.7686065 138.184045,21.0786065 C141.624045,27.1286065 154.574045,61.7586065 155.804045,94.0686065 L113.934045,94.5186065 C113.934045,94.5186065 152.994045,104.618606 182.414045,104.248606 C211.834045,103.888606 260.594045,92.9486065 260.594045,92.9486065 L219.394045,93.3886065" id="Fill-331" fill="#E27F2B"></path>
                <path d="M144.654045,287.558606 C129.654045,316.358606 87.0440448,321.758606 87.0440448,321.758606 C100.854045,288.158606 73.0440448,277.558606 55.8440448,243.148606 C38.6440448,208.738606 69.0440448,185.928606 69.0440448,185.928606 C50.2340448,189.538606 46.6340448,214.738606 46.6340448,214.738606 C45.0440448,197.938606 59.0440448,169.538606 103.454045,163.928606 C135.974045,159.828606 143.814045,148.868606 145.694045,143.288606 C146.424045,150.528606 148.174045,156.188606 153.034045,160.468606 C156.474045,163.488606 159.754045,166.118606 162.894045,168.408606 C162.814045,169.718606 162.754045,171.028606 162.694045,172.318606 C162.504045,176.748606 162.384045,181.108606 162.184045,185.108606 C156.374045,192.028606 156.544045,199.398606 157.524045,204.028606 C158.134045,206.918606 159.064045,208.738606 159.064045,208.738606 C163.714045,215.208606 166.084045,221.568606 166.764045,227.928606 C168.834045,246.968606 155.904045,265.958606 144.654045,287.558606" id="Fill-332" fill="#B64C41"></path>
                <path d="M297.924045,508.968606 L291.444045,470.868606 C259.884045,482.568606 230.054045,487.678606 203.714045,489.078606 C200.614045,483.368606 194.954045,479.168606 188.094045,478.178606 L164.814045,474.808606 C155.634045,473.478606 146.984045,478.258606 142.944045,486.068606 C120.594045,482.608606 105.504045,477.538606 100.724045,475.798606 L100.714045,475.998606 L98.4040448,509.468606 L98.4040448,509.548606 C111.844045,513.118606 124.734045,515.898606 137.054045,518.018606 L136.374045,522.678606 C134.664045,534.248606 142.644045,545.018606 154.214045,546.748606 L180.004045,550.618606 C192.304045,552.458606 203.544045,543.378606 204.324045,530.958606 L204.774045,523.788606 C253.934045,523.538606 286.603045,513.198606 297.924045,508.968606" id="Fill-333" fill="#233862"></path>
                <path d="M392.224045,431.088606 C384.554045,466.378606 313.794045,550.238606 313.544045,550.408606 C312.924045,550.808606 311.964045,551.098606 310.764045,551.318606 L310.634045,551.338606 C304.794045,552.348606 293.384045,551.928606 287.134045,557.208606 C279.533045,563.608606 259.924045,565.608606 253.924045,560.808606 C247.924045,556.008606 255.924045,547.608606 264.334045,535.198606 C272.734045,522.798606 289.534045,526.398606 294.734045,527.208606 C297.824045,527.668606 300.504045,524.888606 302.144045,522.558606 L302.244045,522.428606 C302.554045,521.968606 302.844045,521.538606 303.074045,521.158606 C310.224045,500.238606 326.344045,470.278606 343.004045,434.738606 C346.344045,427.628606 345.844045,419.308606 341.684045,412.638606 C330.554045,394.868606 307.974045,357.938606 293.434045,328.298606 C291.744045,319.738606 290.054045,311.678606 288.744045,305.578606 C320.664045,300.448606 333.884045,281.028606 338.154045,272.748606 C353.244045,302.018606 399.784045,396.308606 392.224045,431.088606" id="Fill-334" fill="#D9935C"></path>
            </g>
            <g id="Group-40" transform="translate(0.000000, 403.900216)">
                <path d="M495.834083,472.830165 C482.150697,514.747119 407.585875,587.20963 397.28479,594.433698 C397.28479,594.433698 379.930015,565.489202 383.399043,549.285686 C386.232082,536.052814 415.265916,488.889008 425.200826,465.712192 C425.72118,464.506573 426.183717,463.368469 426.588437,462.29788 C427.956776,458.748538 428.669854,455.990082 428.506038,454.360086 C428.014593,449.325422 412.201609,437.076335 393.825398,422.55104 C369.937288,403.656583 341.72253,380.93308 337.145341,365.221456 C329.041307,337.444 301,227.433698 301,227.433698 C301,227.433698 370.679275,242.5184 390.346734,259.87931 C410.004558,277.249865 494.4272,421.943408 497.905864,458.989662 C498.281675,463.030896 497.520416,467.708697 495.834083,472.830165" id="Fill-393" fill="#FFA412"></path>
                <path d="M496,472.639471 C482.303708,514.622157 407.668565,587.198301 397.357765,594.433698 C397.357765,594.433698 379.986623,565.443812 383.458922,549.214886 C386.448958,535.275398 418.442338,483.729237 426.689048,462.090669 C439.083228,459.936472 468.202315,457.289611 496,472.639471" id="Fill-394" fill="#D9935C"></path>
                <path d="M300.757934,217.613616 L300.709521,226.142371 C300.709521,226.142371 303.052716,252.806762 270.02529,256.69572 C236.997863,260.603931 212.123205,248.686777 213.023689,228.115729 C215.996255,212.184477 219.104376,198.852281 219.327077,185.664477 C219.41422,180.764775 219.075329,175.566663 218.155479,169.704347 L282.157616,168.433698 L301,171.494808 L300.757934,217.613616" id="Fill-395" fill="#D9935C"></path>
                <path d="M301,171.48108 L300.75748,217.393059 C293.947522,220.517105 286.264493,222.433698 277.650187,222.433698 C248.179173,222.433698 229.126812,201.082855 219.173796,185.587202 C219.261103,180.709474 218.921576,175.534674 218,169.698649 L282.122253,168.433698 L301,171.48108" id="Fill-396" fill="#CB7D45"></path>
                <path d="M245,1350.78962 C245,1350.78962 241.908239,1326.75694 234.761551,1312.48153 C227.605232,1298.19651 182.066771,1307.28086 182.066771,1307.28086 C182.066771,1307.28086 172.955226,1315.07706 171,1351.4337 L245,1350.78962" id="Fill-397" fill="#233862"></path>
                <path d="M400.327847,1350.4337 C389.643802,1343.90384 395.721494,1295.26167 395.721494,1295.26167 C395.721494,1295.26167 445.506641,1255.43819 452.344044,1285.92369 C459.191065,1316.4188 499.638491,1330.11324 522.660635,1333.84458 C538.556877,1336.42191 543.480577,1345.22135 545,1350.4337 L400.327847,1350.4337" id="Fill-398" fill="#233862"></path>
                <path d="M296.544435,989.999109 C298.583813,1001.2017 299.878963,1010.38763 300.217248,1016.97796 C304.866256,1107.55396 376.582767,1314.6427 389.418283,1319.46724 C409.261139,1326.94529 440.518713,1311.05324 456.872397,1305.85238 C463.647771,1303.69098 468.219457,1296.86908 466.71167,1289.95068 C431.201366,1126.94863 418.143548,892.224892 413.397887,753.258716 C411.000893,683.264227 398.967597,634.912643 398.967597,634.912643 C398.967597,634.912643 224.045035,588.326842 223.010848,647.263476 C222.08298,699.416801 280.944644,903.958184 296.544435,989.999109" id="Fill-399" fill="#2B478B"></path>
                <path d="M296.390744,990.433698 L413,753.417153 C410.608015,683.341016 398.599866,634.933032 398.599866,634.933032 C398.599866,634.933032 224.042851,588.29289 223.010826,647.298272 C222.084896,699.512433 280.823553,904.292409 296.390744,990.433698" id="Fill-400" fill="#233862"></path>
                <path d="M336,647.704989 L243.634752,1316.44352 C243.634752,1316.44352 203.066258,1326.22289 171.515131,1318.40133 C171.515131,1318.40133 144.472687,962.737355 146.731856,876.74842 C148.98137,790.769129 127.326175,646.673045 151.674995,630.779173 C176.023814,614.8853 336,647.704989 336,647.704989" id="Fill-401" fill="#2B478B"></path>
                <path d="M404.021959,648.667199 C404.021959,648.667199 356.889326,676.19031 288.61065,675.417732 C261.987655,675.118358 238.826324,673.119311 219.174871,670.183512 C164.415006,662.052123 136.779546,646.735753 137,641.037986 C137.184532,635.890681 137.541305,618.79738 138.187354,611.448227 C146.894549,510.926098 142.391492,432.750804 154.107153,374.015518 C154.242148,373.31054 154.377143,372.605562 154.531424,371.910242 C170.026952,297.240523 194.316457,254.343098 206.379248,236.747621 C210.785879,230.325562 213.553282,227.293191 213.69792,227.293191 C213.69792,241.228577 243.319738,253.251831 267.474248,251.677702 C287.819963,250.345004 301.020571,234.845147 301.020571,226.453012 L301.049499,226.433698 C302.717655,226.433698 392.826994,289.167077 392.904134,347.45813 C393.212695,608.686258 409.026426,648.754114 404.021959,648.667199" id="Fill-402" fill="#FFA412"></path>
                <path d="M218.970112,669.584343 C218.922099,669.873896 218.883688,670.163448 218.835674,670.433698 C164.301844,662.30692 136.780456,646.999238 137.001319,641.304703 C137.18377,636.160318 137.539071,619.076713 138.182453,611.731728 C146.853707,511.266618 142.369238,433.135667 154.036539,374.433698 C182.662239,412.895938 241.50769,513.621646 218.970112,669.584343" id="Fill-403" fill="#E27F2B"></path>
                <path d="M369,544.692986 L361.630828,569.150035 L354.300289,593.433698 L36.1027298,497.97511 C35.6487966,497.994375 35.2141796,497.946212 34.7892208,497.820989 C34.3546039,497.695766 33.9489614,497.48385 33.5626352,497.223771 C29.5545011,494.382168 28.8204813,484.017542 31.9110908,472.333257 C32.0656212,471.678243 32.2587843,471.032863 32.4519474,470.377849 C36.1703369,457.807369 42.9407032,448.511957 48.1367904,448.433698 C48.5617492,448.425264 48.9673917,448.473426 49.3730342,448.589017 C49.797993,448.723873 50.174661,448.906891 50.551329,449.157338 L369,544.692986" id="Fill-404" fill="#E9F3FE"></path>
                <path d="M362,569.170175 L354.683405,593.433698 L37.0911212,498.054283 C36.6380514,498.073532 36.2042612,498.025409 35.7801108,497.90029 C35.3463205,497.775171 34.9414497,497.56343 34.5558583,497.303567 C30.5553485,494.464321 29.822725,484.108292 32.9074555,472.433698 C45.8826031,482.154506 107.885686,525.185925 213.720861,546.119348 C323.113116,567.755365 356.968033,569.102804 362,569.170175" id="Fill-405" fill="#BED4F4"></path>
                <path d="M369.237771,544.60096 C363.952136,543.017034 356.431377,552.860702 352.431178,566.571872 C348.430978,580.283042 349.476594,592.692089 354.762229,594.266298 C360.038271,595.850225 367.568623,586.016274 371.568822,572.295387 C375.569022,558.584216 374.523406,546.184887 369.237771,544.60096" id="Fill-406" fill="#AFCDFB"></path>
                <path d="M53.4150245,439.969371 L15.92268,433.889913 C15.517253,433.687264 15.1311321,433.552165 14.687093,433.484616 C14.2720129,433.426716 13.8665859,433.407416 13.4515059,433.484616 C8.30644424,434.24696 2.82352672,444.350441 0.786738696,457.329601 C0.670902411,458.014746 0.574372173,458.670942 0.497147982,459.346437 C-0.236481827,465.088147 -0.130298565,470.405261 0.632290316,474.651231 C1.47210339,479.206 3.07450534,482.515927 5.27539476,483.760768 L5.4105371,483.837968 C5.82561712,484.059916 6.25035017,484.204665 6.70404229,484.281865 C7.12877533,484.349414 7.57281443,484.339764 8.02650655,484.252915 L335.843195,537.433698 L344,487.109295 L53.4150245,439.969371" id="Fill-407" fill="#E9F3FE"></path>
                <path d="M189.728939,508.879545 C119.590214,504.373026 82.4159165,467.307632 53.4296205,439.969371 L15.927031,433.889913 C15.5214932,433.687264 15.1352668,433.552165 14.6911063,433.484616 C14.2759129,433.426716 13.8703751,433.407416 13.4551816,433.484616 C8.30871404,434.24696 2.82429827,444.350441 0.786953679,457.329601 C0.67108574,458.014746 0.574529124,458.670942 0.497283832,459.346437 C-0.236546447,465.088147 -0.13033417,470.405261 0.632463094,474.651231 C2.39944916,479.630597 4.20505787,483.017723 5.2768363,483.760768 L5.41201557,483.837968 C5.82720901,484.059916 6.25205812,484.204665 6.70587422,484.281865 C7.13072332,484.349414 7.57488376,484.339764 8.02869985,484.252915 L335.934966,537.433698 L340,512.363171 C334.998367,512.951817 301.203552,516.049445 189.728939,508.879545" id="Fill-408" fill="#BED4F4"></path>
                <path d="M344.416196,486.482192 C339.042681,485.62174 332.929952,496.314543 330.759696,510.371807 C328.598917,524.429072 331.205119,536.523734 336.578635,537.384185 C341.961627,538.254305 348.074357,527.551834 350.235135,513.49457 C352.405391,499.437305 349.799189,487.342643 344.416196,486.482192" id="Fill-409" fill="#AFCDFB"></path>
                <path d="M227.665425,583.433698 C151.859631,571.326103 101.749085,539.42892 81.1832629,524.006956 C74.1579703,518.740684 70.5779582,515.387663 70.5779582,515.387663 C31.7367516,433.398086 102.008925,289.633687 114.846925,265.263891 C128.71466,238.980845 213.345376,227.433698 213.345376,227.433698 C213.345376,227.433698 199.824094,267.351074 194.550313,319.385709 C189.266908,371.430006 132.949083,472.861307 135.258768,481.374309 C135.83619,483.519469 142.640137,488.022374 152.56216,493.70415 C181.981776,510.517569 238.828903,537.631624 242.283808,543.999465 C246.903178,552.502803 227.665425,583.433698 227.665425,583.433698" id="Fill-410" fill="#D9935C"></path>
                <path d="M242.62204,544.177421 C242.62204,544.177421 284.930783,527.141389 295.313297,534.106717 C305.695811,541.081719 323,551.529711 323,558.495039 C323,565.460367 301.08136,584.034575 282.613945,589.848689 C264.156142,595.653129 228,583.647613 228,583.647613 L242.62204,544.177421" id="Fill-411" fill="#D9935C"></path>
                <path d="M195.125221,320.207971 C189.819408,372.15167 133.262723,473.38691 135.582204,481.883456 C136.162074,484.02447 142.994879,488.518671 152.958984,494.189465 C152.330792,494.237686 151.692934,494.24733 151.045412,494.218397 C106.55003,492.260623 86.4092009,516.824418 81.2773486,524.433698 C74.2222597,519.177605 70.6270637,515.831065 70.6270637,515.831065 C31.6211203,433.999969 102.191338,290.513458 115.083788,266.190768 C129.01034,239.958525 214,228.433698 214,228.433698 C214,228.433698 200.42137,268.273917 195.125221,320.207971" id="Fill-412" fill="#FFA412"></path>
                <path d="M304.846458,193.895446 C304.846458,193.895446 222.96199,210.351256 213.443465,159.463349 C203.924939,108.575441 186.948301,76.4240613 238.826199,63.7694475 C290.71377,51.1052104 304.527239,68.6388274 311.859599,84.8540551 C319.191959,101.069283 325.905228,188.30432 304.846458,193.895446" id="Fill-413" fill="#D9935C"></path>
                <path d="M215.507197,173.433698 C215.507197,173.433698 199.761738,139.768274 186.624482,124.815504 C173.487226,109.862734 180.657377,35.0988848 237.373752,37.4897855 C294.099751,39.8806861 314.397534,80.5549195 314.994245,88.3253467 C315.590955,96.1054145 269.61537,90.1281629 257.074824,100.289491 C244.543903,110.460459 256.478114,127.206405 242.147436,133.183656 C227.826383,139.170549 216.479258,139.170549 218.8661,152.330143 C221.252943,165.480097 215.507197,173.433698 215.507197,173.433698" id="Fill-414" fill="#233862"></path>
                <path d="M233.115802,3.38486945 C216.855808,7.47664357 204.65599,14.0099716 195.542292,21.8750563 C194.645389,22.6470891 193.758129,23.4480732 192.91909,24.2587077 L192.909446,24.2683581 C159.203231,56.4331768 172.647141,107.628605 172.647141,107.628605 C172.647141,107.628605 177.131659,120.569806 180.227422,125.58802 C183.313542,130.606233 228.06228,124.815987 230.37687,115.155926 C232.701104,105.505515 241.573699,95.4690879 241.573699,95.4690879 C241.573699,95.4690879 288.752756,92.2265499 291.925673,91.9949401 C302.582431,91.2229072 333,80.6364067 333,80.6364067 C332.652812,77.6447794 315.53449,-17.3249118 233.115802,3.38486945" id="Fill-415" fill="#FFA412"></path>
                <path d="M360.340639,70.4448275 C354.692076,69.0597303 345.059689,67.5099713 329.191751,66.9288116 C329.191751,66.9288116 315.873845,78.0386468 289.382375,86.5042056 C276.94014,70.7160353 241.480254,32.6694507 195.300608,21.5402435 C195.165889,21.5014995 195.040794,21.4724416 194.896452,21.4336976 C193.91493,22.6831908 193.366433,23.0996886 192.683216,23.932684 L192.673594,23.94237 C192.461893,24.1942059 192.240569,24.4847857 192,24.8431675 C229.586517,31.4296434 265.315841,73.9317854 277.575243,89.8361876 C267.057562,92.44172 254.952124,94.4951507 241.230062,95.4056342 C241.230062,95.4056342 323.495074,96.9553932 361.100837,77.0216175 C363.968421,75.5009164 363.487283,71.219707 360.340639,70.4448275" id="Fill-416" fill="#E27F2B"></path>
                <path d="M444.952124,444.885781 C443.409233,453.520329 438.712632,462.597181 425.311795,465.433698 C425.835796,464.231784 426.301574,463.097177 426.70913,462.029878 C428.087059,458.491444 428.805134,455.741465 428.640171,454.116478 C428.145281,449.097286 412.221476,436.885843 393.716482,422.405186 C392.192998,414.184096 388.457065,389.799671 393.706778,370.444052 C400.111233,346.79039 446.698794,435.078165 444.952124,444.885781" id="Fill-417" fill="#E27F2B"></path>
                <path d="M143.156881,487.656368 C143.156881,487.656368 86.5050459,483.021167 68,516.046977 C68,516.046977 69.5798165,527.181117 80.5518349,523.791626 C80.5518349,523.791626 128.476147,490.958949 152,493.50831 C152,493.50831 148.358716,487.752935 143.156881,487.656368" id="Fill-418" fill="#E27F2B"></path>
                <path d="M425,465.772665 C425,465.772665 454.350348,467.027863 491.300425,483.433698 C491.300425,483.433698 499.506209,475.216071 496.22582,470.509077 C492.95505,465.802084 440.940192,448.876519 425,465.772665" id="Fill-419" fill="#E27F2B"></path>
            </g>
            <g id="Group-41" transform="translate(1855.000000, 337.333913)">
                <path d="M217.88767,440.51345 C240.963226,322.026011 262.11,208.583381 262.11,208.583381 C262.11,208.583381 196.426705,218.550595 168.140822,242.165897 C139.863666,265.772456 137.00104,416.120006 127.575322,458.620554 C125.71636,466.961539 124.058132,480.434763 122.618092,496.845693 C117.259396,557.969194 123.927219,649.510183 128.980452,675.171387 C128.648806,677.636961 126.554202,689.746251 115.426618,712.985597 C115.426618,712.985597 109.657729,730.821663 147.369331,757.584506 C171.404913,774.642431 192.822241,569.317829 217.88767,440.51345" id="Fill-420" fill="#D9935C"></path>
                <path d="M262.11,208.583381 C262.11,208.583381 249.873248,274.070873 233.852476,357.537213 C228.780838,384.019451 223.306271,412.305703 217.726593,440.889706 C195.039988,485.350792 175.568049,515.581177 169.559165,509.897654 C157.287376,498.311675 135.748241,496.884227 122.11,497.313337 C123.555286,480.875784 125.219554,467.380701 127.085286,459.026186 C127.829827,455.663362 128.530572,451.626222 129.222557,447.028611 C137.158489,393.468635 141.652013,263.999916 167.798544,242.220377 C196.187457,218.566765 262.11,208.583381 262.11,208.583381" id="Fill-421" fill="#739AF0"></path>
                <path d="M234.11,358.021194 C229.026673,384.419687 223.53949,412.616489 217.946952,441.1101 C195.208064,485.430585 175.69125,515.565372 169.668517,509.899823 C157.368446,498.350482 135.779672,496.927548 122.11,497.355301 C123.558616,480.969729 125.22672,467.517322 127.096752,459.189227 C127.843009,455.837037 128.545369,451.812664 129.238949,447.229592 L197.411717,283.583381 L234.11,358.021194" id="Fill-422" fill="#4A75CB"></path>
                <path d="M355.928237,206.654548 C356.424123,183.835068 356.050033,156.594695 352.970318,133.583381 L262.11,148.459206 C262.11,148.459206 262.11,176.248921 262.510189,207.090534 L262.414492,207.099254 C262.414492,207.099254 259.943759,235.708621 295.090799,239.894081 C330.246538,244.079542 356.876511,228.732853 355.928237,206.654548" id="Fill-423" fill="#D9935C"></path>
                <path d="M262.11,154.583381 C262.11,154.583381 283.636718,198.583381 308.322437,198.583381 C332.999406,198.583381 356.11,157.202429 356.11,157.202429 L262.11,154.583381" id="Fill-424" fill="#CB7D45"></path>
                <path d="M322.11,1417.87899 C322.11,1417.87899 325.449925,1391.80769 333.184489,1376.31108 C340.919053,1360.81446 390.147794,1370.67594 390.147794,1370.67594 C390.147794,1370.67594 400.000574,1379.12864 402.11,1418.58338 L322.11,1417.87899" id="Fill-425" fill="#233862"></path>
                <path d="M156.281875,1417.58338 C167.813166,1410.54985 161.250144,1358.05678 161.250144,1358.05678 C161.250144,1358.05678 107.519238,1315.0848 100.12379,1347.98385 C92.7371052,1380.8829 49.0741721,1395.65944 24.2240662,1399.68861 C7.06732868,1402.46524 1.75732719,1411.96882 0.11,1417.58338 L156.281875,1417.58338" id="Fill-426" fill="#233862"></path>
                <path d="M365.198002,107.906505 C365.198002,107.906505 426.324817,11.7229731 308.962735,5.35786715 C308.962735,5.35786715 264.938805,10.5295704 254.971619,0.583381486 C254.971619,0.583381486 220.835979,52.377408 252.718702,107.906505 C284.601425,163.429477 365.198002,107.906505 365.198002,107.906505" id="Fill-427" fill="#233862"></path>
                <path d="M265.010022,157.857303 C273.869075,164.84432 299.835263,171.778869 307.350184,172.583381 C307.350184,172.583381 345.858696,163.978594 352.858657,159.754903 C363.698995,153.170142 363.000744,139.834471 363.559345,121.304447 C364.222683,99.372733 366.4309,82.1544139 363.987023,69.5095743 C361.080556,54.3803646 351.505796,45.7755775 324.710435,43.4381185 C275.518691,39.1593356 255.025041,51.5024831 254.169684,68.0229749 C253.942753,72.4652837 253.733277,76.6977196 253.593627,80.7027933 C251.629798,132.235325 255.688379,150.511753 265.010022,157.857303" id="Fill-428" fill="#D9935C"></path>
                <path d="M266.443421,1027.65944 C264.261707,1039.69489 262.874138,1049.56117 262.50761,1056.63724 C257.533304,1153.9005 180.824269,1376.28524 167.105656,1381.47203 C145.873224,1389.5015 112.440651,1372.4367 94.9433112,1366.84756 C87.7000235,1364.52968 82.8042591,1357.19995 84.4187269,1349.77401 C122.406717,1174.72638 136.369681,922.672849 141.448709,773.44547 C144.014404,698.276366 156.886512,646.355979 156.886512,646.355979 C156.886512,646.355979 343.990234,596.324879 345.098544,659.61597 C346.084678,715.621064 283.120436,935.268091 266.443421,1027.65944" id="Fill-429" fill="#2B478B"></path>
                <path d="M267.31259,1027.58338 L142.11,773.417741 C144.679962,698.262927 157.573477,646.35241 157.573477,646.35241 C157.573477,646.35241 344.988372,596.330821 346.098525,659.60988 C347.086299,715.604327 284.017341,935.209597 267.31259,1027.58338" id="Fill-430" fill="#233862"></path>
                <path d="M225.11,660.421875 L324.074087,1378.23331 C324.074087,1378.23331 367.531319,1388.71945 401.34012,1380.33054 C401.34012,1380.33054 430.311607,998.565029 427.892951,906.269495 C425.483026,813.973961 448.69165,659.303353 422.601594,642.245894 C396.502807,625.188435 225.11,660.421875 225.11,660.421875" id="Fill-431" fill="#2B478B"></path>
                <path d="M436.734491,642.062115 C437.066901,650.388322 430.471176,657.323911 422.152165,657.446356 L265.919205,659.834018 L151.158835,661.583381 C145.787781,661.679427 162.775709,618.692764 163.125615,338.417972 C163.204344,275.87522 260.049534,208.583381 261.834054,208.583381 L261.851549,208.600874 C261.851549,217.609269 276.048979,234.235443 297.918094,235.661043 C323.87236,237.366516 355.713792,224.457398 355.713792,209.501713 C355.713792,209.335539 358.73173,212.606548 363.577926,219.655836 C376.53319,238.529736 402.636166,284.551266 419.300432,364.664762 C432.456892,427.933434 427.392005,512.516144 436.865705,621.657663 C437.556769,629.537822 436.542043,636.54338 436.734491,642.062115" id="Fill-432" fill="#FFA412"></path>
                <path d="M431.838812,658.608977 C431.838812,658.608977 411.073488,667.911945 372.253262,675.972183 C343.382904,681.96704 304.536447,687.288022 256.806803,687.576826 C180.906265,688.058165 152.158314,661.87333 152.158314,661.87333 C146.789931,661.969598 163.769408,618.955405 164.11914,338.50112 C164.19783,275.918315 260.994841,208.583381 262.778473,208.583381 L262.79596,208.600885 C262.79596,208.600885 260.312864,291.942523 285.493552,316.447048 C285.493552,316.447048 320.816461,289.133255 366.64881,211.410153 C379.597629,230.296141 403.510539,284.599918 420.166515,364.76472 C423.541426,381.077732 425.72725,398.799754 427.257326,417.983296 C431.681433,473.302261 430.693441,540.838481 437.72305,621.922203 C438.41377,629.807409 437.399548,636.817453 437.5919,642.339723 C437.924145,650.671261 440.153685,658.486454 431.838812,658.608977" id="Fill-433" fill="#739AF0"></path>
                <path d="M431.820018,658.248545 C431.820018,658.248545 410.992462,667.536313 372.055894,675.583381 C359.804906,656.972897 344.361821,623.369176 342.222064,570.421037 C338.600262,480.889751 423.971318,365.583381 423.971318,365.583381 L427.224802,418.01602 C431.662167,473.244599 430.671214,540.670473 437.72189,621.621713 C438.41468,629.494035 437.397418,636.492626 437.590347,642.005873 C437.923588,650.323799 440.15981,658.126223 431.820018,658.248545" id="Fill-434" fill="#4A75CB"></path>
                <polyline id="Fill-435" fill="#2B478B" points="357.202487 354.583381 212.11 438.413195 327.017513 637.583381 472.11 553.753568 357.202487 354.583381"></polyline>
                <path d="M448.260445,238.749635 C430.511772,225.328615 388.792341,215.804584 368.264703,211.759055 C361.028908,210.334819 356.423516,209.583381 356.423516,209.583381 C358.564542,219.456919 363.379667,234.931285 369.671664,253.516253 C396.045615,331.403606 448.30414,463.848805 437.773785,466.671064 C429.209679,468.960327 418.24238,470.98746 406.18272,472.752464 C360.347275,479.462974 298.659494,482.433773 292.201459,482.730853 C291.694604,482.25902 269.72505,461.777984 261.169683,461.777984 C252.518188,461.777984 227.568674,470.865133 225.01692,477.855248 C222.473905,484.845362 221.460195,497.436307 228.582385,500.232352 C235.713314,503.028398 265.242002,510.018513 272.879787,510.717525 C273.919714,510.813639 275.186852,510.813639 276.550118,510.682574 C331.404092,526.803526 378.620281,534.719831 415.008993,538.459542 C465.773169,543.675916 495.467896,540.783756 495.467896,540.783756 C532.241119,461.646919 472.283637,256.906458 448.260445,238.749635" id="Fill-436" fill="#D9935C"></path>
                <path d="M495.439277,540.783986 C495.439277,540.783986 465.671555,543.675312 414.782591,538.460443 C417.585908,524.676418 420.196497,497.754767 405.934622,472.772314 C418.023926,471.007819 429.018185,468.990005 437.603344,466.692667 C448.159584,463.871223 395.772598,331.464218 369.333815,253.599326 C367.222566,228.4247 366.11,211.583381 366.11,211.583381 L367.923396,211.85417 C388.501494,215.898533 430.32348,225.419817 448.115782,238.836967 C472.198027,256.988554 532.302896,461.669971 495.439277,540.783986" id="Fill-437" fill="#739AF0"></path>
                <path d="M285.11,316.583381 C285.11,316.583381 355.764049,285.534374 356.813106,283.093003 C357.862164,280.651632 353.307505,261.818198 348.411901,256.237921 C348.411901,256.237921 382.340182,259.376827 384.438297,255.19162 C386.536413,251.006412 388.11,216.556923 388.11,216.556923 C388.11,216.556923 373.991429,201.978451 356.507131,200.583381 C356.507131,200.583381 341.147175,238.633893 335.473521,249.951391 C320.437024,279.954097 285.11,316.583381 285.11,316.583381" id="Fill-438" fill="#4A75CB"></path>
                <path d="M268.235186,255.111515 C268.235186,255.111515 272.805448,291.430641 285.11,316.583381 C285.11,316.583381 248.011776,290.906807 244.847749,282.525471 C241.683721,274.144134 253.812494,257.905294 253.812494,257.905294 C253.812494,257.905294 231.664301,257.381461 231.136963,250.047791 C230.609625,242.705391 237.992356,213.894546 237.992356,213.894546 C237.992356,213.894546 257.046833,200.074071 262.320212,200.597905 L268.235186,255.111515" id="Fill-439" fill="#4A75CB"></path>
            </g>
            <g id="Group-38" transform="translate(747.000000, 299.333913)">
                <path d="M99.2782849,404.519 C93.5954188,404.519 87.7284135,399.819 86.250192,394.079 L0.343373966,60.499 C-1.13716533,54.75 2.30983168,50.053 7.99269774,50.053 L677.313736,50.053 C683.00943,50.053 688.862835,54.75 690.343374,60.499 L776.250192,394.079 C777.728413,399.819 774.295017,404.519 768.599323,404.519" id="Fill-10" fill="#A1A4A9"></path>
                <path d="M816.683994,344.039 C818.159641,349.769 814.670031,354.469 808.920031,354.469 L133.370031,354.469 C127.630031,354.469 121.729641,349.769 120.253994,344.039 L34.3451161,10.451 C32.8630316,4.696 36.3436713,0 42.0836713,0 L717.633671,0 C723.383671,0 729.293032,4.696 730.775116,10.451" id="Fill-14" fill="#FFFFFF"></path>
                <path d="M816.671419,344.029 C818.149641,349.769 813.900031,354.469 807.220031,354.469 L471.150031,354.469 L379.864186,0.00199999999 L715.934186,0.00199999999 C722.614186,0.00199999999 729.284062,4.7 730.764601,10.449" id="Fill-15" fill="#FFB000"></path>
                <path d="M599.867226,235.908758 L535.918132,159.998758 C529.150168,151.968758 529.192459,141.648758 536.012069,136.948758 C542.831678,132.248758 553.859584,134.958758 560.627549,142.988758 L601.646679,191.678758 L626.868257,81.3287577 C628.782732,72.9587577 637.963952,69.4687577 647.382099,73.5387577 C656.800245,77.6087577 662.886147,87.6887577 660.971672,96.0587577 L629.271066,234.758758 C627.993234,240.358758 623.350643,243.998758 617.20245,244.238758 C616.99245,244.238758 616.775025,244.248758 616.555025,244.248758" id="Fill-31" fill="#FFFFFF"></path>
                <path d="M575.901358,86.3887577 C524.991358,86.3887577 494.248246,127.808758 507.359092,178.718758 C520.469938,229.628758 572.546826,271.048758 623.456826,271.048758 C674.376826,271.048758 705.119938,229.628758 692.009092,178.718758 C678.898246,127.808758 626.821358,86.3887577 575.901358,86.3887577 Z M495.099092,178.718758 C480.247344,121.048758 515.086617,74.1387577 572.746617,74.1387577 C630.416617,74.1387577 689.417344,121.048758 704.269092,178.718758 C719.12084,236.388758 684.281567,283.298758 626.611567,283.298758 C568.951567,283.298758 509.95084,236.388758 495.099092,178.718758 Z" id="Fill-32" fill="#FFFFFF"></path>
                <path d="M133.370031,354.469 C127.630031,354.469 121.729641,349.769 120.253994,344.039 L61.8735153,117.345 C129.447949,178.559 261.793596,298.567 323.420031,354.469" id="Fill-25" fill="#F6F6F6"></path>
                <path d="M241.625705,144.263 C223.845705,144.263 205.724442,129.852 201.146333,112.075 C196.568482,94.299 207.267218,79.888 225.047218,79.888 C242.817218,79.888 260.948482,94.299 265.526333,112.075 C270.104442,129.852 259.395705,144.263 241.625705,144.263 Z M164.656604,112.775 C174.450723,150.806 265.085132,235.357 265.085132,235.357 C265.085132,235.357 312.170723,150.806 302.376604,112.775 C292.582485,74.744 253.812839,43.914 215.782839,43.914 C177.752839,43.914 154.862485,74.744 164.656604,112.775 Z" id="Fill-26" fill="#FFB000"></path>
                <path d="M155.114252,292.512 C150.954252,292.512 146.666848,289.105 145.594236,284.94 C144.521881,280.776 147.054477,277.369 151.214477,277.369 L270.114477,277.369 C274.274477,277.369 278.561881,280.776 279.634236,284.94 C280.706848,289.105 278.174252,292.512 274.014252,292.512" id="Fill-27" fill="#FFB000"></path>
                <path d="M160.054558,315.229 C156.394558,315.229 152.621969,312.229 151.679409,308.569 L151.210705,306.749 C150.26557,303.079 152.494268,300.084 156.154268,300.084 L246.584268,300.084 C250.244268,300.084 254.01557,303.079 254.960705,306.749 L255.429409,308.569 C256.371969,312.229 254.144558,315.229 250.484558,315.229" id="Fill-28" fill="#FFB000"></path>
            </g>
            <g id="Group-30" transform="translate(535.000000, 781.333913)">
                <path d="M106.977643,409.596 C101.294776,409.596 95.3234076,404.896 93.7177293,399.156 L0.403763764,65.576 C-1.20443213,59.827 2.13826793,55.13 7.821134,55.13 L677.142172,55.13 C682.837866,55.13 688.795568,59.827 690.403764,65.576 L783.717729,399.156 C785.323408,404.896 781.994375,409.596 776.298681,409.596" id="Fill-10" fill="#A1A4A9"></path>
                <path d="M816.318964,344.02 C817.92744,349.77 814.539396,354.46 808.799396,354.46 L133.259396,354.46 C127.509396,354.46 121.49744,349.77 119.888964,344.02 L26.5749986,10.44 C24.9693203,4.7 28.3573636,0.00999999995 34.1073636,0.00999999995 L709.647364,0.00999999995 C715.387364,0.00999999995 721.39932,4.7 723.004999,10.44" id="Fill-29" fill="#FFFFFF"></path>
                <path d="M816.318964,344.02 C817.92744,349.77 814.542194,354.47 808.802194,354.47 L508.342194,354.47 L409.184566,0 L709.644566,0 C715.384566,0 721.39932,4.7 723.004999,10.44" id="Fill-30" fill="#E24A4D"></path>
                <path d="M615.269838,241.14 L549.635163,165.23 C542.688891,157.2 542.502027,146.88 549.217273,142.18 C555.932519,137.48 567.020601,140.19 573.966872,148.22 L616.067164,196.91 L638.838419,86.56 C640.567038,78.19 649.670763,74.7 659.179284,78.77 C668.687805,82.84 674.997533,92.92 673.268914,101.29 L644.648143,239.99 C643.494659,245.59 638.932894,249.23 632.79003,249.47 C632.58003,249.47 632.362827,249.48 632.142827,249.48" id="Fill-31" fill="#FFFFFF"></path>
                <path d="M587.983877,91.62 C537.073877,91.62 507.250496,133.04 521.4918,183.95 C535.733103,234.86 588.729722,276.28 639.639722,276.28 C690.559722,276.28 720.383103,234.86 706.1418,183.95 C691.900496,133.04 638.903877,91.62 587.983877,91.62 Z M509.2318,183.95 C493.099489,126.28 526.897125,79.37 584.557125,79.37 C642.227125,79.37 702.269489,126.28 718.4018,183.95 C734.534111,241.62 700.736475,288.53 643.066475,288.53 C585.406475,288.53 525.364111,241.62 509.2318,183.95 Z" id="Fill-32" fill="#FFFFFF"></path>
                <path d="M133.259396,354.46 C127.509396,354.46 121.49744,349.77 119.888964,344.02 L47.6809962,85.89 L320.679396,354.46" id="Fill-33" fill="#F6F6F6"></path>
                <path d="M167.244578,96.52 L141.294578,96.52 C140.634578,96.52 139.956319,95.99 139.771694,95.33 L131.96709,67.43 C131.782465,66.77 132.161408,66.23 132.821408,66.23 C133.481408,66.23 134.172465,66.77 134.35709,67.43 L141.826012,94.13 L166.576012,94.13 C167.236012,94.13 167.917069,94.67 168.101694,95.33 C168.286319,95.99 167.904578,96.52 167.244578,96.52 Z M103.501694,95.33 C109.289409,116.02 130.750563,132.79 151.440563,132.79 C172.130563,132.79 184.209409,116.02 178.421694,95.33 C172.633979,74.64 151.172825,57.87 130.482825,57.87 C109.792825,57.87 97.7139787,74.64 103.501694,95.33 Z" id="Fill-34" fill="#E24A4D"></path>
                <path d="M210.909392,81.38 C206.739392,81.38 202.375496,77.97 201.211799,73.81 C200.045304,69.64 202.501408,66.23 206.671408,66.23 L325.561408,66.23 C329.731408,66.23 334.085304,69.64 335.251799,73.81 C336.415496,77.97 333.969392,81.38 329.799392,81.38" id="Fill-35" fill="#E24A4D"></path>
                <path d="M216.352171,104.09 C212.682171,104.09 208.845764,101.1 207.819137,97.43 L207.310019,95.61 C206.28619,91.95 208.446985,88.95 212.116985,88.95 L302.536985,88.95 C306.206985,88.95 310.04619,91.95 311.070019,95.61 L311.579137,97.43 C312.605764,101.1 310.442171,104.09 306.772171,104.09" id="Fill-36" fill="#E24A4D"></path>
                <path d="M181.044962,251.99 C172.344962,251.99 163.312831,244.94 160.87634,236.23 C158.442646,227.53 163.527718,220.47 172.227718,220.47 C180.937718,220.47 189.962646,227.53 192.39634,236.23 C194.832831,244.94 189.754962,251.99 181.044962,251.99 Z M143.01145,236.57 C148.222911,255.2 193.523935,296.6 193.523935,296.6 C193.523935,296.6 215.662911,255.2 210.45145,236.57 C205.242786,217.95 185.918789,202.85 167.298789,202.85 C148.678789,202.85 137.802786,217.95 143.01145,236.57 Z" id="Fill-37" fill="#E24A4D"></path>
                <path d="M242.71747,227.44 C238.55747,227.44 234.193574,224.03 233.02708,219.86 C231.863383,215.7 234.319487,212.29 238.479487,212.29 L357.379487,212.29 C361.539487,212.29 365.903383,215.7 367.06708,219.86 C368.233574,224.03 365.77747,227.44 361.61747,227.44" id="Fill-38" fill="#E24A4D"></path>
                <path d="M248.16025,250.15 C244.50025,250.15 240.661045,247.15 239.637215,243.49 L239.128098,241.67 C238.104268,238.01 240.265063,235.01 243.925063,235.01 L334.355063,235.01 C338.025063,235.01 341.854268,238.01 342.878098,241.67 L343.387215,243.49 C344.411045,247.15 342.26025,250.15 338.59025,250.15" id="Fill-39" fill="#E24A4D"></path>
            </g>
        </g>
    </g>
</svg>