<?xml version="1.0" encoding="UTF-8"?>
<svg width="102px" height="92px" viewBox="0 0 102 92" version="1.1" xmlns="http://www.w3.org/2000/svg" xmlns:xlink="http://www.w3.org/1999/xlink">
    <!-- Generator: Sketch 64 (93537) - https://sketch.com -->
    <title>icon-feature-organize</title>
    <desc>Created with Sketch.</desc>
    <g id="Page-1" stroke="none" stroke-width="1" fill="none" fill-rule="evenodd" stroke-linejoin="round">
        <g id="008" transform="translate(-1332.000000, -178.000000)" fill="#5A5D60" fill-rule="nonzero" stroke="#5A5D60" stroke-width="0.5">
            <g id="icon-feature-organize" transform="translate(1333.000000, 179.000000)">
                <path d="M33.8779528,-0.25 C49.1891336,-0.25 58.2102157,0.166697649 63.5140804,0.859240483 C66.5487539,1.25548767 68.3798156,1.74598541 69.4808112,2.29559392 C70.1470342,2.62816734 70.5574263,2.98679993 70.812179,3.35777144 C71.1358491,3.82910069 71.2145669,4.32599568 71.2145669,4.84251969 L71.2145669,4.84251969 L71.2145669,15.8720472 L95.1574803,15.8720472 C96.5651687,15.8720472 97.8382595,16.441399 98.7594539,17.3625934 C99.6806482,18.2837878 100.25,19.5568786 100.25,20.9645669 L100.25,20.9645669 L100.25,61.5295276 L97.0216535,61.5295276 L97.0216535,85.4724409 C97.0216535,86.8801293 96.4523018,88.1532201 95.5311074,89.0744145 C94.609913,89.9956089 93.3368222,90.5649606 91.9291339,90.5649606 L91.9291339,90.5649606 L8.07086614,90.5649606 C6.66317777,90.5649606 5.39008698,89.9956089 4.4688926,89.0744145 C3.54769821,88.1532201 2.97834646,86.8801293 2.97834646,85.4724409 L2.97834646,85.4724409 L2.97834646,61.5295276 L-0.25,61.5295276 L-0.25,20.9645669 C-0.25,19.5555505 0.320439294,18.2814185 1.24306378,17.3625445 C2.16448565,16.4448683 3.43720802,15.8813924 4.84251969,15.8917323 L4.84251969,15.8917323 L28.7854331,15.8917323 L28.7854331,4.84251969 C28.7854331,3.43483132 29.3547848,2.16174052 30.2759792,1.24054614 C31.1971736,0.319351756 32.4702644,-0.25 33.8779528,-0.25 Z M15.8917323,61.5295276 L6.70669291,61.5295276 L6.70669291,85.4724409 C6.70669291,85.8467568 6.86099127,86.187556 7.10837118,86.4349359 C7.3557511,86.6823158 7.69655032,86.8366142 8.07086614,86.8366142 L91.9291339,86.8366142 C92.3030079,86.8366142 92.6433533,86.6826488 92.8929303,86.4360788 C93.144736,86.1873069 93.3046735,85.8440002 93.3130538,85.4668868 L93.3129928,61.5295276 L84.1279528,61.5295276 L84.1279528,74.4232283 L67.5059055,74.4232283 L67.5059055,61.5295276 L32.5137795,61.5295276 L32.5137795,74.4232283 L15.8917323,74.4232283 L15.8917323,61.5295276 Z M28.7854331,61.5295276 L19.6003937,61.5295276 L19.6003937,70.7145669 L28.7854331,70.7145669 L28.7854331,61.5295276 Z M80.3996063,61.5295276 L71.2145669,61.5295276 L71.2145669,70.7145669 L80.3996063,70.7145669 L80.3996063,61.5295276 Z M95.1574803,19.6003937 L4.84251969,19.6003937 C4.46820386,19.6003937 4.12740464,19.7546921 3.88002473,20.002072 C3.63264481,20.2494519 3.47834646,20.5902511 3.47834646,20.9645669 L3.47834646,57.8011811 L96.5216535,57.8011811 L96.5216535,20.9645669 C96.5216535,20.5902511 96.3673552,20.2494519 96.1199753,20.002072 C95.8725954,19.7546921 95.5317961,19.6003937 95.1574803,19.6003937 Z M66.1417323,3.47834646 L33.8779528,3.47834646 C33.5036369,3.47834646 33.1628377,3.63264481 32.9154578,3.88002473 C32.6680779,4.12740464 32.5137795,4.46820386 32.5137795,4.84251969 L32.5137795,15.8917323 L67.5059055,15.8917323 L67.5059055,4.84251969 C67.5059055,4.46820386 67.3516072,4.12740464 67.1042272,3.88002473 C66.8568473,3.63264481 66.5160481,3.47834646 66.1417323,3.47834646 Z" id="Shape"></path>
                <rect id="Rectangle" x="23.8641732" y="36.8366142" width="52.1929134" height="3.72834646"></rect>
                <rect id="Rectangle" x="48.0570866" y="78.7854331" width="3.80708661" height="3.72834646"></rect>
                <rect id="Rectangle" x="41.6397638" y="78.7854331" width="3.80708661" height="3.72834646"></rect>
                <rect id="Rectangle" x="54.5531496" y="78.7854331" width="3.80708661" height="3.72834646"></rect>
            </g>
        </g>
    </g>
</svg>