<?xml version="1.0" encoding="UTF-8"?>
<svg width="1924px" height="1366px" viewBox="0 0 1924 1366" version="1.1" xmlns="http://www.w3.org/2000/svg" xmlns:xlink="http://www.w3.org/1999/xlink">
    <!-- Generator: Sketch 64 (93537) - https://sketch.com -->
    <title>ilustra-04</title>
    <desc>Created with Sketch.</desc>
    <g id="Page-1" stroke="none" stroke-width="1" fill="none" fill-rule="evenodd">
        <g id="ilustra-04">
            <path d="M1563.21966,413.728132 C1480.66105,372.156057 1451.85922,-209.852251 1085.13503,81.1522771 C1006.1649,143.815583 908.383139,131.487431 803.38917,119.160027 C714.481708,108.720631 620.400018,98.2812348 528.190095,133.379179 C343.500084,203.677547 339.254397,406.458854 362.605967,479.460573 C388.121786,559.228152 286.370373,654.595732 182.161643,720.092545 C18.7006522,822.840859 255.24,1366 921.523,1366 C1827.59645,1366 1890.98737,578.768733 1563.21966,413.728132 Z" id="Fill-3" fill="#E7EEEF" opacity="0.4"></path>
            <g id="Group-32" transform="translate(905.000000, 353.000000)">
                <path d="M155.935892,0 L30.0670962,0 C13.5303427,0 0,13.4639963 0,29.9204048 L0,77.3046015 C0,84.82392 2.8315847,91.7135309 7.47792381,96.9846371 L0,131 L43.1222706,107.225006 L155.935892,107.225006 C172.469657,107.225006 186,93.7602665 186,77.3046015 L186,29.9204048 C186,13.4639963 172.469657,0 155.935892,0" id="Fill-100" fill="#00D081" transform="translate(93.000000, 65.500000) scale(-1, 1) translate(-93.000000, -65.500000) "></path>
                <path d="M158.122835,68.1782035 C160.807513,68.1782035 163,70.3877884 163,73.0887261 C163,75.7896638 160.807513,78 158.122835,78 L27.8749281,78 C25.1932329,78 23,75.7896638 23,73.0887261 C23,70.3877884 25.1932329,68.1782035 27.8749281,68.1782035 L158.122835,68.1782035 Z M158.122835,47.4918007 C160.807513,47.4918007 163,49.7021369 163,52.4030746 C163,55.1040123 160.807513,57.3135972 158.122835,57.3135972 L27.8749281,57.3135972 C25.1932329,57.3135972 23,55.1040123 23,52.4030746 C23,49.7021369 25.1932329,47.4918007 27.8749281,47.4918007 L158.122835,47.4918007 Z M158.122835,26 C160.807513,26 163,28.2103362 163,30.9112739 C163,33.6122116 160.807513,35.8225478 158.122835,35.8225478 L27.8749281,35.8225478 C25.1932329,35.8225478 23,33.6122116 23,30.9112739 C23,28.2103362 25.1932329,26 27.8749281,26 L158.122835,26 Z" id="Combined-Shape" fill="#FFFFFF" transform="translate(93.000000, 52.000000) scale(-1, 1) translate(-93.000000, -52.000000) "></path>
            </g>
            <g id="Group-37" transform="translate(962.000000, 529.000000) scale(-1, 1) translate(-962.000000, -529.000000) translate(0.000000, 4.000000)" fill="#CFD4DB">
                <path d="M341.93,467.992 C268.05,467.992 208.15,408.099 208.15,334.217 C208.15,260.335 268.05,200.442 341.93,200.442 C415.81,200.442 475.71,260.335 475.71,334.217 C475.71,408.099 415.81,467.992 341.93,467.992 Z M680.85,372.512 C682.25,359.938 683,347.166 683,334.217 C683,327.385 682.78,320.606 682.38,313.872 L619.1,293.4 C615.21,266.722 607.56,241.266 596.7,217.584 L638.66,165.954 C628.95,148.877 617.82,132.715 605.42,117.64 L542.14,138.29 C523.69,119.445 502.61,103.195 479.49,90.135 L483.09,23.645 C465.43,15.605 446.96,9.027 427.84,4.066 L388.76,57.992 C373.53,55.429 357.89,54.074 341.93,54.074 C331.05,54.074 320.32,54.716 309.76,55.923 L273.58,0 C254.2,3.943 235.41,9.531 217.38,16.611 L217.46,83.199 C193.63,95.036 171.73,110.159 152.35,127.986 L90.26,104.03 C77.07,118.446 65.09,133.991 54.51,150.518 L93.69,204.304 C81.56,227.431 72.56,252.454 67.27,278.823 L3.01,295.923 C1.61,308.496 0.86,321.269 0.86,334.217 C0.86,341.05 1.08,347.829 1.48,354.562 L64.76,375.034 C68.65,401.712 76.3,427.168 87.16,450.85 L45.2,502.48 C54.91,519.557 66.04,535.72 78.44,550.794 L141.73,530.144 C160.17,548.989 181.25,565.24 204.37,578.3 L200.77,644.789 C218.43,652.829 236.9,659.408 256.02,664.368 L295.1,610.442 C310.33,613.006 325.97,614.361 341.93,614.361 C352.81,614.361 363.54,613.719 374.1,612.512 L410.27,668.434 C429.66,664.491 448.45,658.903 466.48,651.824 L466.4,585.236 C490.23,573.398 512.13,558.275 531.51,540.449 L593.6,564.404 C606.79,549.988 618.77,534.443 629.35,517.916 L590.17,464.13 C602.3,441.003 611.3,415.98 616.59,389.612 L680.85,372.512 L680.85,372.512 Z" id="Fill-6"></path>
                <path d="M1687.76,911.151 C1636.59,911.151 1595.1,869.667 1595.1,818.493 C1595.1,767.319 1636.59,725.835 1687.76,725.835 C1738.94,725.835 1780.42,767.319 1780.42,818.493 C1780.42,869.667 1738.94,911.151 1687.76,911.151 Z M1922.51,845.017 C1923.49,836.308 1924,827.462 1924,818.493 C1924,813.761 1923.85,809.065 1923.57,804.402 L1879.75,790.221 C1877.05,771.743 1871.75,754.111 1864.23,737.708 L1893.29,701.947 C1886.57,690.119 1878.86,678.924 1870.27,668.483 L1826.43,682.786 C1813.66,669.733 1799.06,658.477 1783.04,649.431 L1785.53,603.378 C1773.3,597.809 1760.51,593.253 1747.27,589.817 L1720.2,627.168 C1709.65,625.392 1698.82,624.454 1687.76,624.454 C1680.23,624.454 1672.8,624.899 1665.48,625.735 L1640.42,587 C1627,589.732 1613.99,593.602 1601.49,598.506 L1601.55,644.627 C1585.05,652.826 1569.88,663.301 1556.45,675.649 L1513.45,659.056 C1504.31,669.041 1496.01,679.808 1488.68,691.255 L1515.82,728.511 C1507.42,744.529 1501.19,761.861 1497.52,780.124 L1453.01,791.969 C1452.04,800.678 1451.52,809.524 1451.52,818.493 C1451.52,823.225 1451.68,827.921 1451.95,832.585 L1495.78,846.765 C1498.48,865.243 1503.78,882.875 1511.3,899.278 L1482.24,935.039 C1488.96,946.867 1496.67,958.062 1505.26,968.503 L1549.09,954.2 C1561.87,967.253 1576.47,978.509 1592.49,987.554 L1589.99,1033.608 C1602.22,1039.177 1615.01,1043.733 1628.26,1047.17 L1655.32,1009.818 C1665.87,1011.594 1676.71,1012.532 1687.76,1012.532 C1695.3,1012.532 1702.73,1012.087 1710.04,1011.251 L1735.1,1049.986 C1748.53,1047.255 1761.54,1043.384 1774.03,1038.481 L1773.98,992.359 C1790.48,984.16 1805.65,973.685 1819.08,961.337 L1862.08,977.93 C1871.22,967.945 1879.51,957.178 1886.84,945.731 L1859.71,908.476 C1868.11,892.457 1874.34,875.125 1878,856.862 L1922.51,845.017 L1922.51,845.017 Z" id="Fill-10"></path>
            </g>
            <g id="Group-29" transform="translate(483.000000, 226.000000)">
                <path d="M258.858,534.354803 C256.382,473.464803 251.045,420.494803 244.657,383.554803 C234.473,324.674803 225.306,290.794803 225.2,290.434803 C223.859,285.254803 204.481,264.304803 161.397,264.954803 C118.313,265.594803 122.399,293.074803 122.399,293.074803 C122.394,294.004803 122.517,294.864803 122.707,295.514803 C123.123,296.934803 162.671,440.334803 160.959,625.484803 C160.935,628.084803 160.643,632.574803 160.827,635.564803 C160.828,635.574803 260.67,638.144803 260.694,635.564803 C264.176,619.384803 262.477,574.544803 258.858,534.354803" id="Fill-40" fill="#59C7DC"></path>
                <path d="M271.412,624.574803 C271.382,627.144803 270.02,629.214803 268.36,629.214803 L268.319,629.214803 C266.659,629.174803 265.337,627.114803 265.317,624.574803 L179.753,624.574803 C179.723,627.144803 178.361,629.214803 176.7,629.214803 L176.66,629.214803 C174.97,629.174803 173.628,627.044803 173.648,624.434803 C174.145,571.434803 171.122,521.944803 166.549,478.264803 C155.174,369.334803 134.147,296.524803 133.848,295.514803 C133.659,294.864803 133.54,294.004803 133.54,293.074803 C133.54,293.074803 129.454,265.604803 172.534,264.954803 C215.625,264.304803 235.003,285.254803 236.345,290.434803 C236.424,290.704803 241.614,309.894803 248.514,344.374803 C250.801,355.804803 253.267,368.904803 255.802,383.554803 C262.185,420.494803 267.524,473.464803 270,534.344803 C273.619,574.544803 274.891,608.394803 271.412,624.574803" id="Fill-41" fill="#91D0DC"></path>
                <path d="M167.324,629.214803 L502.783,629.214803 C502.783,629.214803 494.97,597.604803 300.694,602.314803 C163.21,605.644803 167.324,629.214803 167.324,629.214803" id="Fill-42" fill="#91D0DC"></path>
                <path d="M140.02,959.414803 C178.915,762.514803 168.914,641.694803 168.864,640.164803 C168.766,637.134803 174.354,634.384803 177.36,634.284803 C180.403,634.234803 193.827,633.394803 195.381,635.984803 C197.416,639.384803 205.249,788.254803 147.28,959.414803 L140.02,959.414803" id="Fill-43" fill="#59C7DC"></path>
                <path d="M453.233,959.414803 C414.338,762.514803 424.339,641.694803 424.389,640.164803 C424.486,637.134803 418.899,634.384803 415.894,634.284803 C412.85,634.234803 399.425,633.394803 397.872,635.984803 C395.837,639.384803 388.004,788.254803 445.973,959.414803 L453.233,959.414803" id="Fill-44" fill="#59C7DC"></path>
                <path d="M515.305,959.414803 C476.41,762.514803 486.411,641.694803 486.461,640.164803 C486.559,637.134803 480.971,634.384803 477.965,634.284803 C474.922,634.234803 461.497,633.394803 459.944,635.984803 C457.909,639.384803 450.076,788.254803 508.045,959.414803 L515.305,959.414803" id="Fill-45" fill="#59C7DC"></path>
                <path d="M202.509,959.414803 C241.404,762.514803 231.403,641.694803 231.354,640.164803 C231.256,637.134803 236.843,634.384803 239.849,634.284803 C242.892,634.234803 256.317,633.394803 257.87,635.984803 C259.905,639.384803 267.738,788.254803 209.77,959.414803 L202.509,959.414803" id="Fill-46" fill="#59C7DC"></path>
                <path d="M502.982,639.304803 L167.523,639.304803 C163.743,639.304803 160.652,636.214803 160.652,632.434803 L160.652,627.914803 C160.652,624.134803 163.743,621.044803 167.523,621.044803 L502.982,621.044803 C506.761,621.044803 509.853,624.134803 509.853,627.914803 L509.853,632.434803 C509.853,636.214803 506.761,639.304803 502.982,639.304803" id="Fill-47" fill="#59C7DC"></path>
                <path d="M491.197,336.354803 L602.706,312.204803 L609.273,328.214803 C609.273,328.214803 486.235,401.424803 474.707,397.834803 C463.179,394.254803 491.197,336.354803 491.197,336.354803" id="Fill-48" fill="#FFB27D"></path>
                <path d="M389.819,840.674803 C387.026,843.874803 386.67,847.444803 388.052,851.264803 L388.079,851.324803 C390.635,858.384803 399.08,866.274803 408.889,874.144803 C410.143,875.164803 411.257,876.084803 412.229,876.934803 C412.484,877.154803 412.739,877.384803 412.979,877.604803 C413.176,877.774803 413.366,877.964803 413.556,878.124803 C422.703,886.554803 419.261,888.494803 435.694,905.604803 C454.432,925.094803 467.334,925.444803 471.004,923.674803 C474.109,922.154803 467.8,911.814803 460.81,900.194803 C460.471,899.634803 460.139,899.064803 459.792,898.504803 C458.861,896.954803 457.936,895.384803 457.012,893.834803 C448.82,879.844803 450.923,873.284803 452.865,852.464803 C454.444,835.554803 479.182,757.964803 479.182,757.964803 L443.273,751.774803 C443.273,751.774803 432.459,813.564803 420.544,823.074803 C414.173,828.144803 407.041,828.214803 400.918,831.974803 C400.485,832.234803 400.06,832.494803 399.644,832.774803 C396.164,835.084803 392.619,837.464803 389.819,840.674803" id="Fill-49" fill="#FFB27D"></path>
                <path d="M389.819,840.674803 C387.026,843.874803 386.67,847.444803 388.052,851.264803 L388.079,851.324803 C391.209,858.374803 399.442,866.224803 408.923,874.074803 C410.162,875.104803 411.256,876.054803 412.229,876.934803 C412.484,877.154803 412.739,877.384803 412.979,877.604803 C413.176,877.774803 413.366,877.964803 413.556,878.124803 C422.703,886.554803 419.261,888.494803 435.694,905.604803 C454.432,925.094803 467.334,925.444803 471.004,923.674803 C474.109,922.154803 467.8,911.814803 460.81,900.194803 C457.162,898.854803 440.218,891.974803 427.408,875.584803 C416.125,861.184803 408.601,842.684803 400.918,831.974803 C400.485,832.234803 400.06,832.494803 399.644,832.774803 C396.164,835.084803 392.619,837.464803 389.819,840.674803" id="Fill-50" fill="#1C468A"></path>
                <path d="M679.368,818.244803 C681.586,829.324803 697.385,827.474803 715.037,823.164803 C732.69,818.854803 728.493,823.984803 753.62,821.194803 C778.74,818.414803 786.35,809.054803 787.12,805.314803 C787.8,802.004803 775.39,800.834803 762.07,799.294803 C760.4,799.114803 758.72,798.904803 757.04,798.694803 C742,796.804803 730.99,787.104803 717.338,779.144803 C704.404,771.594803 685.102,740.854803 685.102,740.854803 L650.648,743.574803 C650.648,743.574803 668.728,771.044803 675.721,782.974803 C679.834,790.004803 679.615,799.284803 679.103,806.454803 C678.836,810.354803 678.582,814.344803 679.368,818.244803" id="Fill-51" fill="#FFB27D"></path>
                <path d="M715.037,823.164803 C732.69,818.854803 728.493,823.984803 753.62,821.194803 C778.74,818.414803 786.35,809.054803 787.12,805.314803 C787.8,802.004803 775.39,800.834803 762.07,799.294803 L761.95,799.554803 C761.95,799.554803 746.88,810.234803 725.97,810.734803 C708.926,811.154803 690.873,806.264803 679.103,806.454803 C678.836,810.354803 678.582,814.344803 679.368,818.244803 C681.586,829.324803 697.385,827.474803 715.037,823.164803" id="Fill-52" fill="#1C468A"></path>
                <path d="M602.706,312.204803 C602.706,312.204803 610.915,292.094803 619.944,291.274803 C628.974,290.454803 657.705,285.934803 659.757,290.034803 C661.809,294.144803 659.757,308.924803 653.601,314.254803 C647.444,319.594803 609.273,328.214803 609.273,328.214803 L602.706,312.204803" id="Fill-53" fill="#FFB27D"></path>
                <path d="M547.333,597.934803 L473.078,797.774803 C473.078,797.774803 461.672,798.874803 450.735,795.724803 C440.671,792.824803 429.139,785.204803 429.139,785.204803 C429.139,785.204803 447.559,593.334803 481.328,553.424803 C515.098,513.514803 547.333,597.934803 547.333,597.934803" id="Fill-54" fill="#163560"></path>
                <path d="M253.639,517.094803 C253.639,517.094803 467.002,444.954803 514.587,460.304803 C562.171,475.654803 705.044,759.904803 705.044,759.904803 C705.044,759.904803 701.822,764.194803 693.019,767.494803 C684.832,770.564803 665.015,770.367461 665.015,770.367461 C665.015,770.367461 536.076,659.844803 520.727,627.614803 C505.377,595.374803 499.236,564.684803 483.887,567.744803 C468.537,570.824803 285.873,642.964803 244.429,599.984803 C202.984,557.004803 213.823,501.164803 213.823,501.164803 L253.639,517.094803" id="Fill-55" fill="#1C468A"></path>
                <path d="M375.279,8.3718031 C366.057,3.1288031 355.004,2.5568031 347.274,3.0138031 C349.265,0.959803101 353.179,0.210803101 353.179,0.210803101 C348.386,-0.502196899 337.686,4.2528031 337.686,4.2528031 C271.004,-21.4411969 260.523,76.7428031 261.925,99.5538031 C263.315,122.361803 263.485,148.617803 230.197,169.075803 C164.701,209.328803 219.963,279.604803 219.963,279.604803 C220.479,279.904803 250.437,330.714803 250.437,330.714803 C248.754,312.284803 333.805,215.006803 378.178,185.873803 C388.98,169.970803 392.819,141.878803 393.107,139.667803 C391.242,161.941803 387.431,174.435803 384.026,181.470803 C421.6,146.888803 399.725,22.2618031 375.279,8.3718031" id="Fill-56" fill="#B5453C"></path>
                <path d="M375.551,187.322803 C375.774,187.423803 354.126,198.663803 337.844,194.209803 C322.528,190.033803 312.521,170.174803 312.732,170.130803 C319.218,168.841803 321.088,159.928803 320.951,121.627803 L323.883,122.204803 L373.186,131.967803 C373.186,131.967803 372.064,147.483803 372.03,162.099803 C371.997,174.372803 372.741,186.012803 375.551,187.322803" id="Fill-57" fill="#FFB27D"></path>
                <path d="M373.186,131.967803 C373.186,131.967803 372.064,147.483803 372.03,162.099803 C344.442,161.322803 329.859,136.154803 323.883,122.204803 L373.186,131.967803" id="Fill-58" fill="#ED975D"></path>
                <path d="M318.791,116.837803 C318.791,116.837803 304.333,93.9928031 300.863,74.4598031 C298.385,60.5128031 305.488,8.8198031 357.435,16.2648031 C357.435,16.2648031 372.523,17.7518031 386.704,27.3298031 C397.983,34.9468031 414.26,51.3928031 396.06,96.5018031 L391.333,111.739803 L318.791,116.837803" id="Fill-59" fill="#B5453C"></path>
                <path d="M382.399,145.807803 C382.399,145.807803 317.124,146.884803 317.079,106.224803 C317.034,65.5648031 308.579,38.3198031 350.254,35.9128031 C391.928,33.5058031 400.043,49.0118031 403.359,62.5808031 C406.675,76.1488031 399.378,144.479803 382.399,145.807803" id="Fill-60" fill="#FFB27D"></path>
                <path d="M379.983,34.9168031 C379.983,34.9168031 362.111,82.6188031 334.683,89.6728031 C307.255,96.7258031 295.358,89.3768031 295.358,89.3768031 C295.358,89.3768031 316.396,72.6638031 320.762,43.4888031 C320.762,43.4888031 366.502,12.2128031 379.983,34.9168031" id="Fill-61" fill="#B5453C"></path>
                <path d="M375.553,38.7898031 C375.553,38.7898031 388.901,49.4398031 392.155,59.7938031 C395.409,70.1478031 396.873,91.4628031 403.085,90.7368031 C403.085,90.7368031 416.55,58.3138031 401.418,39.9728031 C385.372,20.5238031 375.553,38.7898031 375.553,38.7898031" id="Fill-62" fill="#B5453C"></path>
                <path d="M230.197,362.934803 C223.76,335.934803 245.66,283.554803 268.522,240.184803 C289.266,200.871803 310.798,168.983803 312.732,170.129803 C367.442,202.601803 372.385,175.604803 372.385,175.604803 L372.388,175.609803 C372.409,175.612803 422.087,182.205803 436.155,206.425803 C453.609,236.484803 472.467,320.454803 491.197,336.354803 C488.321,345.154803 489.555,349.844803 492.604,360.754803 C493.258,363.094803 493.978,365.314803 494.772,367.414803 C497.595,375.094803 501.126,381.314803 504.174,386.724803 C494.653,392.514803 476.267,403.514803 462.721,395.604803 C442.07,383.514803 425.959,346.724803 416.889,332.074803 L416.788,331.904803 C397.077,443.484803 423.878,468.884803 410.311,480.654803 C395.984,493.074803 375.516,474.734803 330.488,494.254803 C300.953,507.064803 259.967,525.584803 232.377,528.814803 C217.906,530.514803 207.11,527.994803 203.589,518.224803 C193.356,489.824803 242.478,414.404803 230.197,362.934803" id="Fill-63" fill="#1C468A"></path>
                <path d="M367.888,121.159803 C367.888,121.159803 369.105,126.325803 381.955,125.528803 C381.955,125.528803 392.744,124.861803 392.414,119.184803 C392.414,119.184803 381.952,115.146803 367.888,121.159803" id="Fill-64" fill="#FFFFFF"></path>
                <path d="M203.589,518.224803 C207.11,527.994803 217.906,530.514803 232.377,528.814803 C251.473,520.494803 333.967,488.534803 333.046,466.874803 C331.675,434.814803 317.184,433.794803 327.418,394.214803 C335.635,362.444803 259.411,303.364803 247.253,290.514803 C224.391,333.884803 223.76,335.934803 230.197,362.934803 C242.478,414.404803 193.356,489.824803 203.589,518.224803" id="Fill-65" fill="#163560"></path>
                <path d="M194.264,402.584803 C208.894,382.034803 224.135,371.174803 234.161,365.714803 C231.853,359.764803 295.696,281.494803 295.696,269.364803 C295.696,257.084803 312.731,170.124803 312.731,170.124803 C312.731,170.124803 259.535,173.409803 241.116,199.094803 C218.082,231.224803 170.242,354.854803 194.264,402.584803" id="Fill-66" fill="#1C468A"></path>
                <path d="M234.161,365.714803 L340.465,393.454803 L330.488,411.364803 C330.488,411.364803 201.119,410.454803 194.264,402.584803 C187.409,394.704803 234.161,365.714803 234.161,365.714803" id="Fill-67" fill="#FFB27D"></path>
                <path d="M416.889,332.074803 C425.959,346.724803 442.07,383.514803 462.721,395.604803 C476.267,403.514803 494.653,392.514803 504.174,386.724803 C501.126,381.314803 497.595,375.094803 494.772,367.414803 C487.173,369.154803 477.899,371.374803 471.92,373.184803 C460.285,376.704803 416.889,332.074803 416.889,332.074803" id="Fill-68" fill="#163560"></path>
                <path d="M340.465,393.454803 C340.465,393.454803 373.849,384.004803 381.8,386.214803 C389.752,388.424803 416.996,406.464803 413.166,411.364803 C409.335,416.254803 385.334,408.424803 374.29,409.904803 C363.246,411.394803 354.705,416.844803 346.754,415.664803 C338.802,414.484803 330.488,411.364803 330.488,411.364803 L340.465,393.454803" id="Fill-69" fill="#FFB27D"></path>
                <path d="M340.465,393.454803 C340.465,393.454803 356.798,385.064803 361.444,380.284803 C362.03,379.684803 363.023,379.804803 363.472,380.514803 C364.718,382.484803 365.883,386.274803 360.154,390.044803 C351.908,395.464803 340.465,393.454803 340.465,393.454803" id="Fill-70" fill="#FFB27D"></path>
                <path d="M494.741,440.414803 L338.993,440.414803 C338.993,433.564803 344.552,428.004803 351.408,428.004803 L494.741,428.004803 L494.741,440.414803" id="Fill-71" fill="#969A9F"></path>
                <polyline id="Fill-72" fill="#969A9F" points="494.294 270.794803 735.09 270.794803 677.333 440.414803 434.974 440.414803 494.294 270.794803"></polyline>
                <polyline id="Fill-73" fill="#B8BDC3" points="738.64 270.794803 680.875 440.414803 438.523 440.414803 497.84 270.794803 738.64 270.794803"></polyline>
                <path d="M608.813,354.034803 C607.317,360.514803 600.85,365.774803 594.369,365.774803 C587.888,365.774803 583.847,360.514803 585.343,354.034803 C586.84,347.554803 593.307,342.304803 599.788,342.304803 C606.269,342.304803 610.309,347.554803 608.813,354.034803" id="Fill-74" fill="#D9DFE5"></path>
                <path d="M738.64,270.794803 L680.875,440.414803 L520.376,440.414803 C626.694,404.124803 654.995,293.474803 659.743,270.794803 L738.64,270.794803" id="Fill-75" fill="#969A9F"></path>
                <path d="M39.572,959.414803 C42.617,959.414803 45.221,957.274803 45.742,954.354803 L131.652,467.454803 L100.667,466.564803 L35.167,954.534803 C34.823,957.124803 36.888,959.414803 39.572,959.414803" id="Fill-76" fill="#59C7DC"></path>
                <path d="M95.291,506.584803 C115.365,515.444803 119.487,536.394803 119.487,536.394803 L131.652,467.454803 L100.667,466.564803 L95.291,506.584803" id="Fill-77" fill="#25A2BA"></path>
                <path d="M810.25,959.414803 C807.2,959.414803 804.6,957.274803 804.08,954.354803 L718.166,467.454803 L749.15,466.564803 L814.65,954.534803 C814.99,957.124803 812.93,959.414803 810.25,959.414803" id="Fill-78" fill="#59C7DC"></path>
                <path d="M754.53,506.584803 C734.45,515.444803 730.33,536.394803 730.33,536.394803 L718.166,467.454803 L749.15,466.564803 L754.53,506.584803" id="Fill-79" fill="#25A2BA"></path>
                <path d="M18.9,494.514803 L812.36,494.514803 C822.75,494.514803 831.26,486.014803 831.26,475.614803 L831.26,459.284803 C831.26,448.884803 822.75,440.384803 812.36,440.384803 L18.9,440.384803 C8.505,440.384803 0,448.884803 0,459.284803 L0,475.614803 C0,486.014803 8.505,494.514803 18.9,494.514803" id="Fill-80" fill="#25A2BA"></path>
                <path d="M871.38,43.0298031 L702.908,43.0298031 C680.774,43.0298031 662.664,61.1398031 662.664,83.2748031 L662.664,147.009803 C662.664,157.123803 666.454,166.390803 672.673,173.480803 L662.664,219.233803 L720.382,187.254803 L871.38,187.254803 C893.51,187.254803 911.62,169.143803 911.62,147.009803 L911.62,83.2748031 C911.62,61.1398031 893.51,43.0298031 871.38,43.0298031" id="Fill-100" fill="#00D081"></path>
                <path d="M874.55,134.656803 C878.15,134.656803 881.09,137.597803 881.09,141.192803 C881.09,144.787803 878.15,147.729803 874.55,147.729803 L699.895,147.729803 C696.299,147.729803 693.358,144.787803 693.358,141.192803 C693.358,137.597803 696.299,134.656803 699.895,134.656803 L874.55,134.656803 Z M874.55,107.122803 C878.15,107.122803 881.09,110.064803 881.09,113.659803 C881.09,117.254803 878.15,120.195803 874.55,120.195803 L699.895,120.195803 C696.299,120.195803 693.358,117.254803 693.358,113.659803 C693.358,110.064803 696.299,107.122803 699.895,107.122803 L874.55,107.122803 Z M874.55,78.5168031 C878.15,78.5168031 881.09,81.4588031 881.09,85.0538031 C881.09,88.6488031 878.15,91.5908031 874.55,91.5908031 L699.895,91.5908031 C696.299,91.5908031 693.358,88.6488031 693.358,85.0538031 C693.358,81.4588031 696.299,78.5168031 699.895,78.5168031 L874.55,78.5168031 Z" id="Combined-Shape" fill="#FFFFFF"></path>
            </g>
        </g>
    </g>
</svg>