<?xml version="1.0" encoding="UTF-8"?>
<svg width="102px" height="102px" viewBox="0 0 102 102" version="1.1" xmlns="http://www.w3.org/2000/svg" xmlns:xlink="http://www.w3.org/1999/xlink">
    <!-- Generator: Sketch 64 (93537) - https://sketch.com -->
    <title>icon-feature-economize</title>
    <desc>Created with Sketch.</desc>
    <g id="Page-1" stroke="none" stroke-width="1" fill="none" fill-rule="evenodd" stroke-linejoin="round">
        <g id="008" transform="translate(-1513.000000, -168.000000)" fill="#5A5D60" fill-rule="nonzero" stroke="#5A5D60" stroke-width="0.5">
            <g id="icon-feature-economize" transform="translate(1514.000000, 169.000000)">
                <path d="M4.92617888,11.8356324 C79.056914,-0.772617557 82.7750142,0.629964493 85.4001766,3.45250967 C87.5334459,5.76192046 88.6005359,8.77569891 88.4536829,11.826736 C89.8444072,11.9108237 91.0952304,12.5085063 92.0148672,13.4281432 C92.9929921,14.4062681 93.5964567,15.7484082 93.5964567,17.2245065 L93.5964567,17.2245065 L93.5964567,35.2422231 L96.5944882,35.2422231 C97.5465862,35.2422231 98.4092722,35.6321587 99.0374852,36.2603717 C99.6681953,36.8910818 100.062197,37.7619099 100.072835,38.7205695 L100.072835,38.7205695 L100.072835,51.6930105 C100.072835,52.6554232 99.6826117,53.5229191 99.0546563,54.1508745 C98.4232679,54.7822629 97.5514999,55.1713569 96.5944882,55.1713569 L96.5944882,55.1713569 L93.5964567,55.1713569 L93.5964567,73.9174199 C93.5964567,75.4124198 92.9838967,76.7633649 91.9949088,77.7411567 C91.0047431,78.720113 89.637148,79.3249002 88.1299213,79.3249002 L88.1299213,79.3249002 L54.1328057,79.3249002 C52.6201284,85.3610148 49.1263619,90.6186884 44.3826327,94.3539358 C39.6944937,98.0454112 33.785725,100.250097 27.3622047,100.250097 C19.98259,100.250097 13.2796157,97.3409492 8.32961332,92.608647 C3.35136932,87.8493452 0.14630131,81.2460048 -0.190938891,73.9036159 L-0.190938891,73.9036159 L-0.25,17.2048215 C-0.25,15.7720198 0.320771646,14.4676633 1.25242175,13.5026075 C2.18267401,12.5389995 3.47282736,11.9138526 4.92617888,11.8356324 Z M29.226378,48.8122319 L29.226378,51.9233254 L25.4980315,51.9233254 L25.4980315,48.8122319 C19.653295,49.2697616 14.3966784,51.8329563 10.4868161,55.7428187 C6.57695373,59.652681 4.01375902,64.9092976 3.55622929,70.7540341 L6.66732283,70.7540341 L6.66732283,74.4823805 L3.55622929,74.4823805 C4.01375902,80.327117 6.57695373,85.5837336 10.4868161,89.493596 C14.3966784,93.4034583 19.653295,95.966653 25.4980315,96.4241828 L25.4980315,93.3130892 L29.226378,93.3130892 L29.226378,96.4246209 C35.07112,95.9766401 40.327746,93.4182072 44.2375934,89.5083598 C48.1475899,85.5983632 50.7107825,80.3367872 51.1682144,74.4823805 L48.0570866,74.4823805 L48.0570866,70.7540341 L51.1681802,70.7540341 C50.7106504,64.9092976 48.1474557,59.652681 44.2375934,55.7428187 C40.327731,51.8329563 35.0711144,49.2697616 29.226378,48.8122319 Z M88.1299213,15.5453727 L5.21653543,15.5453727 C4.73455168,15.5453727 4.29947081,15.7338089 3.98482249,16.0391112 C3.67194139,16.3426988 3.47834646,16.7619823 3.47834646,17.2245065 L3.47834646,58.8013552 C5.83029875,54.7475192 9.18500992,51.3428304 13.2018673,48.930097 C17.3480045,46.4397114 22.1995144,45.0060026 27.3818898,45.0060026 C34.9926204,45.0060026 41.8977499,48.1018712 46.8991448,53.103266 C51.8972837,58.1014049 54.9940945,65.0024988 54.9940945,72.6182073 C54.9940945,73.6340312 54.9114923,74.6167267 54.8063709,75.5965538 L88.1299213,75.5965538 C88.611905,75.5965538 89.0469859,75.4081175 89.3616342,75.1028152 C89.6745153,74.7992276 89.8681102,74.3799441 89.8681102,73.9174199 L89.8681102,55.1713569 L78.9370079,55.1713569 C76.190877,55.1713569 73.7021568,54.0558073 71.899995,52.2536454 C70.0978331,50.4514836 68.9822835,47.9627634 68.9822835,45.2166325 C68.9822835,42.4705016 70.0978331,39.9817814 71.899995,38.1796196 C73.7021568,36.3774578 76.190877,35.2619081 78.9370079,35.2619081 L89.8681102,35.2619081 L89.8681102,17.2245065 C89.8681102,16.7619823 89.6745153,16.3426988 89.3616342,16.0391112 C89.0469859,15.7338089 88.611905,15.5453727 88.1299213,15.5453727 Z M96.3444882,38.9508845 L78.9370079,38.9508845 C77.2146087,38.9508845 75.6531466,39.6512913 74.5222491,40.7821887 C73.3913517,41.9130862 72.6909449,43.4745483 72.6909449,45.1969475 C72.6909449,46.9193467 73.3913517,48.4808087 74.5222491,49.6117062 C75.6531466,50.7426037 77.2146087,51.4430105 78.9370079,51.4430105 L96.3444882,51.4430105 L96.3444882,38.9508845 Z M75.5728876,3.59310345 L27.2132546,11.8170262 L84.7104103,11.8170262 C84.8511254,9.69921595 84.1242496,7.59865841 82.6506208,5.99608704 C80.8390696,4.05106059 78.1869055,3.15425373 75.5728876,3.59310345 Z" id="Shape"></path>
                <rect id="Rectangle" x="78.6279528" y="43.3920262" width="3.72834646" height="3.72834646"></rect>
                <path d="M29.226378,56.285727 L25.4980315,56.285727 L25.4980315,70.7737191 L15.8326772,70.7737191 L15.8326772,74.4823805 L29.226378,74.4823805 L29.226378,56.285727 Z" id="Path"></path>
            </g>
        </g>
    </g>
</svg>