<?xml version="1.0" encoding="UTF-8"?>
<svg width="2911px" height="2050px" viewBox="0 0 2911 2050" version="1.1" xmlns="http://www.w3.org/2000/svg" xmlns:xlink="http://www.w3.org/1999/xlink">
    <!-- Generator: Sketch 64 (93537) - https://sketch.com -->
    <title>ilustra-03</title>
    <desc>Created with Sketch.</desc>
    <g id="Page-1" stroke="none" stroke-width="1" fill="none" fill-rule="evenodd">
        <g id="ilustra-03" transform="translate(0.337863, 0.000000)">
            <path d="M2871.66214,1514.7137 C3008.3561,1152.77738 2752.8994,975.278303 2551.50846,1027.2001 C2342.93669,1080.98095 2257.37261,827.199663 2149.38209,573.426284 C2030.1585,293.248997 1883.62193,13.073029 1514.08242,146.761764 C1452.73253,168.953123 1359.05401,143.435235 1254.52976,117.917347 C1021.59482,61.0565207 734.773884,4.19701253 631.7732,475.203379 C596.289184,637.471515 470.566096,655.340893 288.059841,758.30242 C-69.1222881,959.812517 -479.173818,2212.981 1653.66214,2031.17411 C2098.7363,1993.23516 2777.636,1763.69571 2871.66214,1514.7137 Z" id="Fill-2" fill="#E7EEEF" opacity="0.4"></path>
            <g id="Group-3" transform="translate(463.662137, 475.000000)">
                <path d="M775.095,461.847 L703.715,1310.573 C703.715,1310.573 696.245,1362.023 734.505,1362.113 C797.435,1362.263 1047.695,1362.113 1047.695,1362.113 C1047.695,1362.113 1000.335,1351.403 1000.905,1327.313 C1001.585,1298.903 1084.335,453.815 1084.335,453.815 L775.095,461.847" id="Fill-5" fill="#34ACC1"></path>
                <path d="M1067.995,1346.713 C1055.625,1346.753 816.595,1347.503 755.315,1346.713 C728.615,1346.383 723.925,1322.973 723.705,1307.823 C723.595,1300.553 724.515,1295.183 724.515,1295.183 L795.895,446.44 L1105.135,438.415 C1105.135,438.415 1070.285,792.083 1045.635,1049.523 C1042.875,1078.203 1040.255,1105.703 1037.835,1131.383 C1037.055,1139.573 1036.305,1147.593 1035.565,1155.393 C1033.275,1179.753 1031.185,1202.123 1029.375,1221.863 C1028.415,1232.273 1027.525,1241.953 1026.725,1250.813 C1023.585,1285.523 1021.735,1307.693 1021.715,1311.913 C1021.705,1314.373 1021.915,1316.653 1022.315,1318.783 C1027.395,1345.833 1063.355,1346.713 1067.995,1346.713" id="Fill-6" fill="#8AD8E6"></path>
                <polyline id="Fill-7" fill="#8AD8E6" points="1508.755 0 24.099 0 302.755 1119.343 1807.235 1119.343 1508.755 0"></polyline>
                <polyline id="Fill-8" fill="#1D9BB2" points="24.096 0 -2.27373675e-13 8.032 270.719 1143.643 302.757 1119.343 24.096 0"></polyline>
                <polyline id="Fill-9" fill="#34ACC1" points="270.719 1143.643 1765.935 1143.643 1807.225 1119.343 302.757 1119.343 270.719 1143.643"></polyline>
                <polygon id="Fill-10" fill="#1D9BB2" points="795.795 1362.443 1119.535 1362.443 1119.535 1347.053 795.795 1347.053"></polygon>
                <polyline id="Fill-11" fill="#69CEE0" points="1037.235 1143.633 1035.565 1155.393 731.105 1216.903 737.275 1143.633 1037.235 1143.633"></polyline>
                <path d="M903.335,1347.053 L830.085,1347.053 C798.085,1347.013 770.935,1346.913 755.315,1346.713 C728.615,1346.383 723.925,1322.973 723.705,1307.823 L1026.725,1250.813 C1023.585,1285.523 1021.735,1307.693 1021.715,1311.913 C1021.715,1311.993 1021.715,1312.063 1021.715,1312.143 C1021.715,1314.513 1021.925,1316.723 1022.315,1318.783 C1027.395,1345.833 1063.355,1346.713 1067.995,1346.713 C1061.015,1346.733 981.955,1346.983 903.335,1347.053" id="Fill-12" fill="#69CEE0"></path>
                <path d="M864.145,1347.073 C852.405,1347.073 840.965,1347.073 830.085,1347.053 L903.335,1347.053 C890.155,1347.063 876.965,1347.073 864.145,1347.073" id="Fill-13" fill="#E78B37"></path>
                <line x1="302.755" y1="1119.343" x2="302.757" y2="1119.343" id="Fill-14" fill="#E3BA9D"></line>
                <polyline id="Fill-15" fill="#69CEE0" points="302.755 1119.343 302.755 1119.343 247.985 899.313 944.095 899.443 302.755 1119.343"></polyline>
                <polyline id="Fill-16" fill="#E58433" points="302.755 1119.343 285.297 1049.213 302.757 1119.343 302.755 1119.343"></polyline>
                <polyline id="Fill-17" fill="#40B5CA" points="1508.755 0 24.096 0 247.855 899.313 1749.645 899.603 1508.755 0"></polyline>
                <path d="M1094.875,1013.323 C1090.595,991.253 1069.225,973.373 1047.165,973.373 C1025.105,973.373 1010.695,991.253 1014.985,1013.323 C1019.275,1035.383 1040.635,1053.263 1062.695,1053.263 C1084.755,1053.263 1099.165,1035.383 1094.875,1013.323" id="Fill-18" fill="#34ACC1"></path>
                <polyline id="Fill-19" fill="#FFFFFF" points="1679.625 860.613 289.53 860.613 85.596 48.187 1455.645 48.187 1679.625 860.613"></polyline>
                <polyline id="Fill-20" fill="#CFD4DB" points="1455.645 48.187 85.596 48.187 109.738 144.374 1482.165 144.374 1455.645 48.187"></polyline>
                <polyline id="Fill-21" fill="#00D081" points="575.575 296.974 714.165 296.974 732.145 366.443 593.555 366.443 575.575 296.974"></polyline>
                <polyline id="Fill-22" fill="#FF715D" points="318.042 366.443 456.625 366.443 473.785 432.739 335.563 432.739 318.042 366.443"></polyline>
                <polyline id="Fill-23" fill="#00D081" points="992.735 296.974 1131.325 296.974 1149.305 366.443 1010.715 366.443 992.735 296.974"></polyline>
                <polyline id="Fill-24" fill="#00D081" points="1027.885 437.497 1166.475 437.497 1183.635 503.793 1045.405 503.793 1027.885 437.497"></polyline>
                <polyline id="Fill-25" fill="#FFC645" points="924.675 574.843 1202.595 574.843 1219.825 644.313 942.655 644.313 924.675 574.843"></polyline>
                <path d="M1657.615,781.233 L1657.615,785.273 L269.681,785.273 L269.681,781.233 L1657.615,781.233 Z M1638.865,711.763 L1638.865,715.803 L251.016,715.803 L251.016,711.763 L1638.865,711.763 Z M1620.105,642.303 L1620.105,646.333 L233.974,646.333 L233.974,642.303 L1620.105,642.303 Z M1601.355,572.833 L1601.355,576.863 L217.448,576.863 L217.448,572.833 L1601.355,572.833 Z M1582.595,503.362 L1582.595,507.397 L199.889,507.397 L199.889,503.362 L1582.595,503.362 Z M1563.845,433.894 L1563.845,437.929 L179.494,437.929 L179.494,433.894 L1563.845,433.894 Z M1545.085,364.425 L1545.085,368.46 L165.804,368.46 L165.804,364.425 L1545.085,364.425 Z M1526.335,294.957 L1526.335,298.992 L145.99,298.992 L145.99,294.957 L1526.335,294.957 Z" id="Combined-Shape" fill="#CFD4DB"></path>
                <path d="M151.3,79.632 C144.659,79.632 140.618,85.016 142.274,91.656 C143.929,98.297 150.655,103.68 157.296,103.68 C163.937,103.68 167.978,98.297 166.322,91.656 C164.666,85.016 157.94,79.632 151.3,79.632" id="Fill-34" fill="#E9F3FE"></path>
                <path d="M191.251,79.632 C184.611,79.632 180.57,85.016 182.226,91.656 C183.881,98.297 190.607,103.68 197.248,103.68 C203.888,103.68 207.929,98.297 206.274,91.656 C204.618,85.016 197.893,79.632 191.251,79.632" id="Fill-35" fill="#E9F3FE"></path>
                <path d="M249.293,91.656 C247.638,85.016 240.913,79.632 234.272,79.632 C227.631,79.632 223.59,85.016 225.246,91.656 C226.901,98.297 233.627,103.68 240.268,103.68 C246.908,103.68 250.949,98.297 249.293,91.656" id="Fill-36" fill="#E9F3FE"></path>
                <polyline id="Fill-37" fill="#CFD4DB" points="1551.035 861.123 1554.935 860.103 1392.755 233.487 1506.725 233.487 1493.475 185.394 1380.305 185.394 1380.175 184.889 1378.225 185.394 1241.715 185.394 1241.585 184.889 1239.635 185.394 1103.135 185.394 1103.005 184.889 1101.045 185.394 964.545 185.394 964.415 184.889 962.465 185.394 825.955 185.394 825.825 184.889 823.875 185.394 687.375 185.394 687.235 184.889 685.285 185.394 548.785 185.394 548.655 184.889 546.695 185.394 410.195 185.394 410.065 184.889 408.115 185.394 271.607 185.394 271.477 184.889 269.523 185.394 120.039 185.394 132.105 233.487 279.886 233.487 442.335 861.123 446.235 860.103 284.055 233.487 418.475 233.487 580.915 861.123 584.825 860.103 422.645 233.487 557.065 233.487 719.505 861.123 723.415 860.103 561.235 233.487 695.645 233.487 858.095 861.123 861.995 860.103 699.815 233.487 834.235 233.487 996.685 861.123 1000.585 860.103 838.405 233.487 972.825 233.487 1135.265 861.123 1139.175 860.103 976.995 233.487 1111.415 233.487 1273.855 861.123 1277.765 860.103 1115.575 233.487 1249.995 233.487 1412.445 861.123 1416.345 860.103 1254.165 233.487 1388.585 233.487 1551.035 861.123"></polyline>
            </g>
            <g id="Group-39" transform="translate(2087.662137, 0.000000)">
                <path d="M645.10183,200.889197 C640.296389,311.865978 614.473091,447.712315 532.352385,557.003307 C529.331142,561.014487 526.298005,564.991191 523.252973,568.923907 C514.046509,580.819542 504.661625,592.384676 495.157795,603.605043 C484.535867,616.104613 465.992098,618.110203 452.872293,608.264147 L88.3605567,334.660991 C84.197427,331.531937 81.1167111,327.469636 79.2254608,322.965083 C77.9527326,319.931138 77.2152639,316.698654 77.0368441,313.422183 C76.7394777,307.586118 78.2382043,301.621657 81.6757599,296.401416 C90.2280177,283.426306 99.1846937,270.502316 108.545788,257.656791 C111.483768,253.628966 114.457432,249.608275 117.478675,245.598284 C199.587486,136.307292 322.923175,73.6441911 428.214671,38.0809286 C483.810293,19.3054186 534.386371,8.07672919 571.188437,1.54162007 C577.30229,0.46095531 583.261513,0.236262637 588.935264,0.797399894 C597.546995,1.63553923 605.540204,4.2724088 612.546156,8.41317377 C627.676159,17.3521378 638.191035,33.3088842 640.355862,53.4598937 C644.340572,90.6126489 647.659181,142.280075 645.10183,200.889197" id="Fill-42" fill="#00D081"></path>
                <path d="M107.798533,258.5 C97.1773735,273.098009 87.067075,287.799473 77.5032791,302.546126 C71.2660208,312.149703 73.5708363,324.952095 82.718815,331.83014 L456.003868,612.425602 C466.68443,620.457123 481.760774,618.78161 490.457294,608.626267 C501.149737,596.127109 511.687733,583.196289 522,569.850456 L107.798533,258.5" id="Fill-43" fill="#00AB6A"></path>
                <path d="M433.175314,174.177856 C429.139316,174.177856 425.079437,174.463145 421.007617,175.038478 C398.475287,178.227775 378.546057,189.960299 364.885757,208.073793 C351.213517,226.187287 345.458041,248.513554 348.658181,270.939672 C351.858322,293.36579 363.643912,313.208851 381.841724,326.812397 C400.039535,340.414754 422.464397,346.149069 444.996727,342.960961 C467.517116,339.771664 487.458287,328.039141 501.118586,309.925646 C514.778886,291.812152 520.546302,269.487074 517.346162,247.058579 C514.134081,224.632461 502.348491,204.790588 484.16262,191.187043 C469.248535,180.04174 451.492534,174.177856 433.175314,174.177856 Z M432.769326,369.5 C408.899624,369.5 385.782195,361.861378 366.354478,347.340152 C342.651948,329.620119 327.296052,303.770529 323.128706,274.554526 C318.949418,245.338522 326.460195,216.253276 344.263959,192.656283 C362.055783,169.05929 388.027069,153.776103 417.377607,149.621577 C446.728146,145.467052 475.935394,152.936877 499.637925,170.658099 C523.340455,188.37932 538.696351,214.22891 542.875638,243.444914 C547.042985,272.660918 539.544149,301.746164 521.740385,325.343157 C503.93662,348.938961 477.977275,364.223336 448.626736,368.377862 C443.325012,369.127935 438.023287,369.5 432.769326,369.5 L432.769326,369.5 Z" id="Fill-44" fill="#00AB6A"></path>
                <path d="M620.373938,33.7389348 C619.355203,24.1537094 616.452992,15.5108248 612.058215,8.1220152 C605.081063,3.97785676 597.120712,1.33882621 588.544383,0.5 C588.615457,0.984258537 588.674686,1.46851707 588.722069,1.95277561 C592.690398,39.1288394 595.995365,90.8469373 593.460373,149.495762 C588.66284,260.563492 562.945696,396.521158 481.162572,505.901717 C478.165595,509.924513 475.133081,513.896147 472.100566,517.840415 C470.074941,520.465167 468.037471,523.066124 466,525.658751 L501.513587,552.5 C502.25987,551.543381 503.006153,550.596281 503.752436,549.634903 C506.796796,545.690635 509.805619,541.709482 512.814442,537.696205 C594.597566,428.315646 620.31471,292.35798 625.112242,181.29025 C627.647235,122.633097 624.342268,70.9233275 620.373938,33.7389348" id="Fill-45" fill="#0DE391"></path>
                <path d="M640.345589,53.6253652 C636.52394,17.8634765 606.474587,-4.74199619 571.115403,1.54823266 C534.279944,8.10438018 483.657974,19.3612068 428,38.1985044 L645.107769,201.5 C647.655535,142.71647 644.333915,90.8885616 640.345589,53.6253652" id="Fill-46" fill="#00AB6A"></path>
                <path d="M139.156621,407.03819 C103.553309,383.435384 47.5150316,405.144828 13.9850053,455.528246 C-19.545021,505.910474 17.7502819,589.490764 17.7502819,589.490764 C17.7502819,589.490764 109.391871,591.382937 142.921898,541.000709 C176.440008,490.617292 174.759932,430.640997 139.156621,407.03819" id="Fill-47" fill="#E24A4D"></path>
                <path d="M339.158014,555.037946 C303.554346,531.435262 247.515507,553.145783 213.985145,603.52775 C180.454783,653.910907 217.75046,737.490764 217.75046,737.490764 C217.75046,737.490764 309.392967,739.382927 342.911413,689.00096 C376.441775,638.617804 374.761682,578.640631 339.158014,555.037946" id="Fill-48" fill="#E24A4D"></path>
                <path d="M100.826377,464.05762 C76.3130513,447.83052 37.7241784,462.755709 14.6374282,497.394373 C-8.4612101,532.031852 17.2171526,589.493652 17.2171526,589.493652 C17.2171526,589.493652 80.3312396,590.794379 103.41799,556.1569 C126.50474,521.518236 125.339703,480.283536 100.826377,464.05762" id="Fill-49" fill="#FF715D"></path>
                <path d="M300.821937,610.057619 C276.3084,593.830521 237.719195,608.755708 214.632247,643.394368 C191.545298,678.033028 217.211993,735.493636 217.211993,735.493636 C217.211993,735.493636 280.326623,736.795547 303.413571,702.156888 C326.50052,667.518228 325.347361,626.284718 300.821937,610.057619" id="Fill-50" fill="#FF715D"></path>
                <path d="M383,313.40159 L498,293.5 C485.230178,316.153689 460.597551,331.5 432.301059,331.5 C413.420818,331.5 396.175592,324.66825 383,313.40159" id="Fill-51" fill="#00AB6A"></path>
                <path d="M507,255.211516 L362.269341,282.5 C359.506129,274.740225 358,266.387812 358,257.683594 C358,216.7125 391.360156,183.5 432.523719,183.5 C472.845272,183.5 505.695479,215.382016 507,255.211516" id="Fill-52" fill="#00AB6A"></path>
            </g>
            <g id="Group-8" transform="translate(719.662137, 639.000000)">
                <path d="M1421.45398,698 L31.2775001,698 L0,578.306928 C28.8044968,640.19121 263.009895,572.477012 315.498573,534.816847 C411.477248,465.511682 412.185377,397.263529 511.519492,350.940218 C646.031263,288.179814 780.543034,386.486358 888.712417,359.603363 C1220.48706,277.398284 1495.51335,8.48552396 1504,0 C1410.84295,215.693803 1183.89314,329.198446 1358.35427,399.922406 C1539.34107,473.292167 1421.45398,698 1421.45398,698" id="Fill-102" fill="#CFD4DB"></path>
                <path d="M1223.84587,698 L549,698 C577.815357,674.286042 617.230845,633.228388 638.082487,574.292548 C673.434409,474.833545 794.153871,515.891199 900.743458,498.722031 C1007.49646,481.563771 1222.84359,263.936391 1230.20812,289.008393 C1234.15185,302.430668 1186.02094,479.262187 1256.72479,499.256522 C1326.5353,518.901802 1353.22628,629.334238 1223.84587,698" id="Fill-110" fill="#BCC2C9"></path>
            </g>
            <g id="Group-33" transform="translate(316.662137, 215.000000)">
                <path d="M339.222717,123.343885 C339.222717,123.343885 344.882763,105.253147 336.001446,88.9689796 C327.121578,72.6848125 341.467318,61.397794 337.847554,56.4830969 C334.227791,51.5683998 310.610935,52.0689981 302.551237,75.7016532 C294.49009,99.3343083 308.1084,126 308.1084,126 L339.222717,123.343885" id="Fill-22" fill="#FCA56B"></path>
                <path d="M241.055465,252.323607 C257.925493,257.346114 275.306204,246.157966 277.665556,229.115807 L301.345169,126.309492 C301.345169,126.309492 306.284197,118.34833 323.354121,119.042947 C341.940042,119.801639 346.966616,128.99622 346.966616,128.99622 C346.966616,128.99622 358.461347,309.976867 304.776955,335.517533 C251.092563,361.059655 190.306768,237.216767 241.055465,252.323607" id="Fill-23" fill="#E58638"></path>
                <path d="M352,1622 L202.169091,1622 C191.513356,1612.23184 188,1554.76519 188,1554.76519 C188,1554.76519 234.454377,1512.36815 249.635546,1545.91966 C264.064886,1577.80164 303.940756,1594.76045 327.753504,1598.96355 C348.26977,1602.58084 351.508419,1617.8262 352,1622" id="Fill-24" fill="#163560"></path>
                <path d="M169,1622 L19.182299,1622 C8.52750353,1612.23184 5,1554.76519 5,1554.76519 C5,1554.76519 51.4502821,1512.36815 66.6301128,1545.91966 C81.0581805,1577.80164 120.930536,1594.76045 144.741185,1598.96355 C165.255642,1602.58084 168.508463,1617.8262 169,1622" id="Fill-25" fill="#163560"></path>
                <path d="M278,834.495106 C278,834.495106 256.566369,971.271307 176.615523,1214.06792 C96.6646774,1456.86454 85.7690302,1562 85.7690302,1562 L0,1559.60627 C0,1559.60627 -0.730253669,1294.25058 36.1148879,1172.17042 C72.9614834,1050.07575 44.0678089,732 44.0678089,732 L278,834.495106" id="Fill-26" fill="#163560"></path>
                <path d="M319.935859,739 C319.935859,739 322.977471,945.483252 287.170062,1199.01277 C251.361196,1452.54229 263.499967,1560.15135 263.499967,1560.15135 L177.73903,1563 C177.73903,1563 126.487573,1309.38328 141.181415,1182.48771 C155.876714,1055.59215 71,747.051786 71,747.051786 L319.935859,739" id="Fill-27" fill="#1C468A"></path>
                <path d="M153,257.103937 L193.078706,287 L251,274.717989 C250.198945,269.397577 246.374091,247.349849 242.892751,227.377953 C242.682023,226.200485 242.471295,225.023016 242.275001,223.871714 C239.291614,206.878377 236.716693,192.282132 236.716693,192.282132 L162.448113,155 C162.500074,155.357601 164.011252,173.859843 164.22198,176.559297 C168.006421,224.520048 153,257.103937 153,257.103937" id="Fill-28" fill="#FFB27D"></path>
                <path d="M247.779768,241.875422 C246.507643,241.339689 168.863203,218.451882 160.428147,221.23452 C151.994536,224.017157 147,240.318763 147,240.318763 L274,269 C274,269 264.003699,248.698443 247.779768,241.875422" id="Fill-29" fill="#EE9849"></path>
                <path d="M37.2645395,766.121045 C50.4864904,826.491792 270.539605,833.658365 327.262995,778.855159 C333.715667,772.604395 334.032273,743.545613 331.599632,704.35478 C326.840369,627.790195 311.556119,512.63078 310.960666,453.787836 C310.668749,425.374482 306.769261,396.311339 301.572849,369.922941 C290.519216,313.676245 273.660648,269.54004 273.660648,269.54004 C273.660648,269.54004 166.178561,234.761082 146.068241,240.677503 C49.1779472,269.170809 24.0411363,705.735762 37.2645395,766.121045" id="Fill-30" fill="#EE9849"></path>
                <path d="M332,703 C327.24882,626.402937 311.99053,511.194672 311.396088,452.326768 C311.104667,423.901361 307.211802,394.82589 302.024216,368.426298 L237.478051,357 C237.478051,357 174.370145,615.553989 332,703" id="Fill-31" fill="#E58638"></path>
                <path d="M169.563924,176.238332 C181.57404,199.03756 226.333975,218.753464 245,226 C244.786941,224.827468 244.573882,223.654937 244.375416,222.508461 C241.359023,205.586367 238.755615,191.051316 238.755615,191.051316 L184.057784,164.007812 C171.968866,163.823971 164.60811,166.855183 169.563924,176.238332" id="Fill-32" fill="#FCA56B"></path>
                <path d="M263.742585,188.376128 C263.742585,188.376128 165.690556,218.962038 147.580947,157.60897 C129.474238,96.255902 104.62192,58.8826283 166.46053,36.7602602 C228.299141,14.6378921 247.428131,34.4431897 258.454272,53.4524475 C269.478963,72.4602553 288.781959,178.83815 263.742585,188.376128" id="Fill-33" fill="#FFB27D"></path>
                <path d="M249.733567,54.1167362 C249.733567,54.1167362 243.448865,125.614357 228.607233,122.509868 C213.7656,119.40538 200.305669,117.105328 202.478788,138.656694 C204.651908,160.209512 225.231683,185.096242 179.494152,188.909332 C133.755164,192.720971 68.0019071,75.2048969 80.5669386,52.953642 C116.822032,-11.2459622 302.13329,-24.201176 249.733567,54.1167362" id="Fill-34" fill="#163560"></path>
                <path d="M388.581275,38.0174558 L294,63.5698792 L296.929049,103 L393.358121,102.319692 C400.991837,101.740116 406.112258,86.8755347 404.792815,69.1174545 C403.473372,51.362294 396.21499,37.4378802 388.581275,38.0174558" id="Fill-35" fill="#9DA1A6"></path>
                <path d="M302.874262,82.3473069 C302.075559,71.3070242 297.678411,62.6497494 293.053063,63.0109009 C288.427715,63.3705722 285.325608,72.6139782 286.125738,83.6527807 C286.924441,94.6915832 291.321589,103.348858 295.946937,102.989187 C300.572285,102.628035 303.674392,93.3861094 302.874262,82.3473069" id="Fill-36" fill="#5A5D60"></path>
                <path d="M337.430411,82 L308.286419,82.5740599 C307.370185,89.1112817 308.945186,91.923254 308.945186,91.923254 L338,94 L337.430411,82" id="Fill-37" fill="#5A5D60"></path>
                <path d="M444.066222,37.0198914 L335,66.1101834 L338.378459,111 L449.576155,110.225513 C458.377547,109.563943 464.283325,92.6410509 462.760844,72.4247817 C461.239813,52.2114079 452.869064,36.3597683 444.066222,37.0198914" id="Fill-38" fill="#9DA1A6"></path>
                <path d="M346.852097,87.7653717 C345.912323,75.3455852 340.73845,65.6061402 335.297113,66.0122526 C329.855777,66.4169146 326.207757,76.8148417 327.147531,89.2346283 C328.087306,101.654415 333.261179,111.39386 338.702516,110.987747 C344.143852,110.581635 347.793333,100.185158 346.852097,87.7653717" id="Fill-39" fill="#5A5D60"></path>
                <path d="M363.869827,123 C363.869827,123 353.512643,107.42823 357.731966,89.6182812 C361.952748,71.8097787 345.011262,65.0286876 347.195331,59.399239 C349.379399,53.7697903 372.397469,47.8350696 386.572761,67.9960479 C400.746593,88.1570262 394.732745,117.06962 394.732745,117.06962 L363.869827,123" id="Fill-40" fill="#FFB27D"></path>
                <path d="M228.660461,272.664684 C228.660461,272.664684 285.666655,262.287287 338.33498,263.057326 C355.844647,263.314006 369.450377,247.897278 367.093502,230.927421 L357.895303,127.971348 C357.895303,127.971348 364.485556,117.039987 381.012708,113.096982 C399.010005,108.803037 404.788993,118.500306 404.788993,118.500306 C404.788993,118.500306 466.331882,286.597891 421.863277,325.576936 C377.393221,364.554531 209,389 209,389 L228.660461,272.664684" id="Fill-41" fill="#EE9849"></path>
            </g>
            <g id="Group-9" transform="translate(2332.662137, 743.000000)">
                <path d="M503.534884,468 L510.569767,479.614324 C514.232558,483.883948 515.209302,486.273045 518.104651,487.727792 C525.104651,491.228648 538.023256,500.21733 539,519.093563 C539,519.093563 538.77907,529.773537 531.744186,526.308163 C524.697674,522.84279 527.767442,523.173952 517.767442,518.502202 C507.755814,513.84228 504.046512,499.010954 503.174419,493.948907 L495,483.044216 L503.534884,468" id="Fill-70" fill="#FFB27D"></path>
                <path d="M294.247185,1082.69901 C293.858962,1086.84916 291.553157,1089.52971 287.894456,1091.12864 L287.835635,1091.15215 C281.071155,1094.11487 269.718594,1093.44473 257.460182,1091.78702 C255.883764,1091.58715 254.472046,1091.4108 253.213265,1091.29323 C252.883864,1091.26972 252.542699,1091.23445 252.225063,1091.21094 C251.966248,1091.19918 251.707433,1091.17567 251.460383,1091.16391 C239.249027,1090.35269 240.201936,1094.11487 216.873306,1093.9973 C190.274197,1093.85622 181.286263,1084.90929 180.062774,1081.08833 C179.039279,1077.85521 190.685948,1075.33926 203.697277,1072.44708 C204.332549,1072.306 204.956058,1072.16492 205.603095,1072.02384 C207.332449,1071.64762 209.073567,1071.23613 210.814685,1070.84816 C226.331813,1067.20355 241.707768,1062.60664 246.789951,1047.71077 C252.178006,1031.89788 250.895696,985 250.895696,985 L298,985 C298,985 285.635708,1036.81222 286.929783,1051.74336 C287.635641,1059.72622 291.447278,1061.98353 292.929582,1068.89653 C293.03546,1069.37856 293.129575,1069.86059 293.211925,1070.35437 C293.929548,1074.38695 294.635407,1078.52535 294.247185,1082.69901" id="Fill-71" fill="#FFB27D"></path>
                <path d="M348.610383,576.213822 C344.648092,598.500182 338.997724,621.526679 334.08589,645.481285 C326.196476,683.991927 320.253039,724.910952 326.337149,768.96675 C327.122573,774.641137 327.544593,780.891187 327.638375,787.622912 C328.822373,865.490067 294.099574,1006.6096 294.099574,1006.6096 C294.099574,1006.6096 284.674479,1010.68623 268.872206,1009.8991 C260.736614,1009.49966 248.25188,1004.23646 248.25188,1004.23646 C248.25188,1004.23646 244.957786,916.74752 244.770222,799.07742 C244.617826,713.797143 227.912901,601.495976 224.536747,535.506264 C222.496988,495.562341 226.928189,442.366433 226.928189,442.366433 C226.928189,442.366433 296.139333,386.597666 320.991573,415.122327 C345.550744,443.318038 363.427945,492.836755 348.610383,576.213822" id="Fill-72" fill="#80BDCC"></path>
                <path d="M327.222222,769.371748 C328.01059,775.037646 328.434191,781.278345 328.528324,788 C276.507816,712.853539 265,549 265,549 L322.139015,576.649112 C322.139015,576.649112 328.410657,607.37165 335,646.071022 C327.081022,684.52405 321.115313,725.381859 327.222222,769.371748" id="Fill-73" fill="#5F9AA8"></path>
                <path d="M443.884324,1082.6905 C443.509061,1086.84378 441.198853,1089.52635 437.551772,1091.12648 L437.504864,1091.15001 C430.750143,1094.11495 419.445366,1093.44431 407.21416,1091.78535 C405.654476,1091.58534 404.247242,1091.40885 402.980732,1091.29119 C402.652377,1091.26766 402.324023,1091.23237 401.995668,1091.20883 C401.749402,1091.19707 401.49141,1091.17354 401.245144,1091.16177 C389.072572,1090.34994 390.022455,1094.11495 366.767919,1093.9973 C340.253291,1093.85611 331.282177,1084.90244 330.062574,1081.0786 C329.04233,1077.84305 340.652007,1075.3252 353.633738,1072.43085 C354.255266,1072.28966 354.888521,1072.14847 355.521776,1072.00728 C357.257365,1071.63078 358.992953,1071.21898 360.716814,1070.83072 C376.196384,1067.18336 391.511777,1062.58299 396.577819,1047.6759 C401.960487,1031.85109 394.279337,985.647354 394.279337,985.647354 L437.774584,982 C437.774584,982 435.077386,1034.65132 436.367351,1049.5937 C437.070967,1057.57082 441.105037,1061.95941 442.570906,1068.87762 C442.676448,1069.36001 442.781991,1069.8424 442.864079,1070.33656 C443.579423,1074.37218 444.28304,1078.51369 443.884324,1082.6905" id="Fill-74" fill="#FFB27D"></path>
                <path d="M438.049698,1010.63304 C438.049698,1010.63304 426.852929,1015.92794 418.789847,1017.53637 C410.738502,1019.15654 394.002032,1016.01012 394.002032,1016.01012 C390.973975,982.139198 383.967193,929.201933 370.3292,869.443521 C354.813342,801.419899 331.715605,721.045422 299.510225,644.920955 C292.632545,628.660562 264.26505,551.714269 259.453022,532.29572 C244.89957,473.617421 259.511705,479.933733 259.511705,479.933733 L386.725306,465 C386.725306,465 402.405477,473.065625 409.62352,555.917316 C411.783064,580.724688 412.041271,687.867177 415.304061,708.177992 C418.379064,727.408695 421.993954,743.39906 426.230886,753.801015 C449.856773,811.821854 438.049698,1010.63304 438.049698,1010.63304" id="Fill-75" fill="#80BDCC"></path>
                <path d="M443.884324,1082.74559 C443.509061,1086.87864 441.198853,1089.54814 437.551772,1091.14047 L437.504864,1091.16389 C430.374881,1093.7046 419.234281,1093.15431 407.249341,1091.72589 C405.67793,1091.53856 404.270696,1091.39806 402.980732,1091.30439 C402.652377,1091.28097 402.324023,1091.24585 401.995668,1091.22243 C401.749402,1091.21072 401.49141,1091.18731 401.245144,1091.1756 C389.072572,1090.36772 390.022455,1094.11439 366.767919,1093.99731 C340.253291,1093.85681 331.282177,1084.94676 330.062574,1081.14155 C329.04233,1077.92176 340.652007,1075.41617 353.633738,1072.53592 C357.04628,1074.22192 373.381917,1081.59818 393.69299,1079.63117 C411.541403,1077.92176 429.765079,1070.77967 442.570906,1069 C442.676448,1069.48004 442.781991,1069.96008 442.864079,1070.45183 C443.579423,1074.4678 444.28304,1078.58913 443.884324,1082.74559" id="Fill-76" fill="#B84C42"></path>
                <path d="M293.890011,1082.74559 C293.503002,1086.87864 291.204406,1089.54814 287.557143,1091.14047 L287.498505,1091.16389 C280.368166,1093.7046 269.227009,1093.15431 257.241471,1091.72589 C255.681709,1091.53856 254.262678,1091.39806 252.984377,1091.30439 C252.656006,1091.28097 252.315907,1091.24585 251.999264,1091.22243 C251.741258,1091.21072 251.483252,1091.18731 251.236974,1091.1756 C239.063795,1090.36772 240.013725,1094.11439 216.758028,1093.99731 C190.242076,1093.85681 181.282241,1084.94676 180.062578,1081.14155 C179.042283,1077.92176 190.65254,1075.41617 203.623191,1072.53592 C207.047631,1074.22192 223.384084,1081.59818 243.684443,1079.63117 C261.533748,1077.92176 279.770061,1070.77967 292.576527,1069 C292.682075,1069.48004 292.775895,1069.96008 292.857988,1070.45183 C293.573367,1074.4678 294.277019,1078.58913 293.890011,1082.74559" id="Fill-77" fill="#B84C42"></path>
                <path d="M243.243198,83.2116708 C238.935857,48.1272872 249.897865,-8.01406253 319.942046,0.957383122 C389.986228,9.92765543 412.062821,78.7458949 397.931923,109.345729 C383.812763,139.94439 418.271496,147.323597 429.092664,180.224374 C438.388072,208.502145 441.627381,243.597089 456.661998,259.343466 C505.145998,310.137853 410.114541,388.224396 352.816335,371.762274 C248.45426,341.759676 235.015824,337.289207 238.712861,255.307137 C240.614194,213.312886 273.300696,197.038501 252.550342,184.882579 C202.411478,155.527671 252.961124,162.600634 243.243198,83.2116708" id="Fill-78" fill="#B74B42"></path>
                <path d="M347,175.176972 L327.627603,224.972091 L285.844464,227 L265,196.018714 C278.154387,186.055002 283.712911,171.109433 285.750251,157.742819 C287.422519,147.042964 286.951458,137.361752 286.492173,132.104428 C286.221313,129.428292 285.938676,127.862231 285.938676,127.862231 L338.014505,112.091432 L338.191153,112 C338.838863,125.740546 339.580784,136.530661 340.416918,144.922451 C343.384604,174.520539 347,175.176972 347,175.176972" id="Fill-79" fill="#FFB27D"></path>
                <path d="M264.8511,174.178044 C267.530596,174.178044 313.07027,164.922098 390,184.57192 C390,184.57192 347.868457,377.234017 362.182604,413.542194 C376.485,449.850371 381.926257,482.087808 381.926257,482.087808 L226.68004,484 C226.68004,484 228.854192,359.367343 221.697118,315.257894 C214.540044,271.136714 264.8511,174.178044 264.8511,174.178044" id="Fill-80" fill="#FFB27D"></path>
                <path d="M462.498341,375.651099 C454.733151,322.087893 425.916187,212.086784 406.567822,194.099403 C389.451509,178.188842 352.54042,176.733894 352.54042,176.733894 L352.528673,176.733894 C344.869211,188.725482 318.613233,218.528449 286.048772,213.154528 C268.462553,210.268099 264.903018,178.693381 264.503598,174.481072 L264.621074,174 L264.468355,174.023467 L264.468355,174 C264.339131,174.023467 264.209907,174.058667 264.09243,174.082134 C258.958711,174.833075 218.123911,181.474209 206.000345,202.301085 C188.108688,233.054462 168.631099,325.349792 149.482444,323.976978 C140.695208,323.355105 52.2707135,290.161171 52.2707135,290.161171 C52.2707135,290.161171 37.5391715,303.936243 40.3586054,320.85588 C40.3586054,320.85588 84.0128398,350.060441 120.935676,368.693162 C126.057647,371.274522 131.050395,373.644679 135.772947,375.7215 C149.083024,381.553025 160.290274,384.932259 166.422542,383.489045 C168.172941,383.078374 170.040816,382.280499 171.979176,381.154088 C179.97932,376.531108 189.330442,366.393406 198.293893,354.824222 C204.249947,347.127078 210.041534,338.808061 215.151758,331.063983 C215.257486,330.899715 215.363215,330.74718 215.468944,330.582911 C217.654005,359.91654 219.850814,391.843262 217.583519,416.858981 C215.844868,435.902373 214.587871,477.121988 217.853715,487.775962 C224.679095,509.975653 274.771036,515.842379 321.526648,513.530889 C343.57697,512.427944 359.142595,511.172465 370.479068,508.567639 C386.914018,504.789467 394.432509,498.183534 399.848171,485.147669 C405.005386,472.733677 381.145927,414.453623 378.878632,388.9451 C376.811047,365.818467 380.358835,346.99801 386.197412,328.494357 C402.702848,366.581141 419.490227,393.814482 421.698784,399.716408 C426.327354,412.142133 496.801453,490.697592 496.801453,490.697592 C496.801453,490.697592 502.499059,489.53598 507.010154,486.57915 C511.673967,483.540186 514,479.515612 514,479.515612 C501.570996,450.005982 462.498341,375.651099 462.498341,375.651099" id="Fill-81" fill="#FFB93E"></path>
                <path d="M400.273291,484.594085 C394.866387,497.622127 387.360054,504.224096 370.951681,508 C349.007388,503.778492 334.534241,463.404462 327.086552,443.539923 C318.501185,420.64997 363.234233,302.928538 375.572767,304.007368 C384.756295,304.793037 386.339662,320.377436 386.644607,328.034782 C380.709913,346.703227 377.249963,365.101965 379.337662,388.449248 C381.60129,413.942464 405.422166,472.187543 400.273291,484.594085" id="Fill-82" fill="#E58638"></path>
                <path d="M53,299.140428 C53,299.140428 45.4794292,280.474055 37.1974299,279.715067 C28.9271449,278.956078 2.59343292,274.769782 0.707433081,278.576584 C-1.17856676,282.383386 0.707433081,296.092615 6.35371831,301.049759 C12,305.995043 46.9788577,314 46.9788577,314 L53,299.140428" id="Fill-83" fill="#FFB27D"></path>
                <path d="M215,331.052616 C209.914163,338.82458 204.150215,347.173553 198.222584,354.898414 C189.722806,365.437668 180.334468,375.635426 172.033447,381.323091 C170.104336,382.453558 168.245375,383.254306 166.50333,383.666456 C160.400326,385.114867 149.246559,381.723465 136,375.870941 C143.880124,376.44795 151.61995,376.165333 159.231168,375.517669 C172.559568,374.375426 176.441172,359.832433 197.521089,338.035608 C210.11292,324.999905 213.947758,327.01355 215,331.052616" id="Fill-84" fill="#E58638"></path>
                <path d="M337,112 C329.161334,124.917088 310.26183,151.495391 285,158 C286.663813,147.218436 286.195133,137.463294 285.73817,132.165824 C285.46868,129.469252 285.187472,127.891231 285.187472,127.891231 L337,112" id="Fill-85" fill="#E2915A"></path>
                <path d="M271.781117,131.079453 C271.781117,131.079453 333.94677,143.619937 341.126926,104.6111 C348.307082,65.6022631 361.15886,40.9489037 321.773247,31.2936115 C282.387635,21.6371446 271.921446,35.0857131 266.366765,47.5204701 C260.823778,59.9552271 255.795329,126.811576 271.781117,131.079453" id="Fill-86" fill="#FFB27D"></path>
                <path d="M302.010146,21.6961733 C302.010146,21.6961733 300.913166,34.8967644 321.531678,57.29862 C342.15019,79.6993034 338.127929,125 338.127929,125 C338.127929,125 371.992773,54.7199216 353.450267,33.9930479 C334.907761,13.2661741 302.010146,21.6961733 302.010146,21.6961733" id="Fill-87" fill="#B74B42"></path>
                <path d="M328,4.7061513 C328,4.7061513 296.775529,-5.62849757 265.799153,24.572565 C252.449304,37.5834941 254.469502,63.1600847 261.616988,78 C261.616988,78 272.604032,46.1990127 292.58155,39.2628891 C312.559068,32.3255968 328,4.7061513 328,4.7061513" id="Fill-88" fill="#B74B42"></path>
                <path d="M291,111.916306 C291,111.916306 289.365243,116.558691 277.84136,114.4513 C277.84136,114.4513 268.170969,112.683165 269.057422,107.474175 C269.057422,107.474175 278.935036,104.8579 291,111.916306" id="Fill-89" fill="#FFFFFF"></path>
            </g>
        </g>
    </g>
</svg>