<?xml version="1.0" encoding="UTF-8"?>
<svg width="100px" height="102px" viewBox="0 0 100 102" version="1.1" xmlns="http://www.w3.org/2000/svg" xmlns:xlink="http://www.w3.org/1999/xlink">
    <!-- Generator: Sketch 64 (93537) - https://sketch.com -->
    <title>icon-feature-receba</title>
    <desc>Created with Sketch.</desc>
    <g id="Page-1" stroke="none" stroke-width="1" fill="none" fill-rule="evenodd" stroke-linejoin="round">
        <g id="008" transform="translate(-1125.000000, -168.000000)" fill="#5A5D60" fill-rule="nonzero" stroke="#5A5D60" stroke-width="0.5">
            <g id="icon-feature-receba" transform="translate(1126.000000, 169.000000)">
                <path d="M48.7991039,-0.333641914 L63.8938069,12.9980315 L79.7775591,12.9980315 L79.7775591,27.0724876 L97.8287402,43.0567395 L97.8287402,100.25 L-0.25,100.25 L-0.25,43.0567501 L17.8208661,27.052813 L17.8208661,12.9980315 L33.7242102,12.9980315 L48.7991039,-0.333641914 Z M61.5466734,75.6328307 L48.7992584,86.4100115 L36.0911808,75.6721786 L8.10814145,96.1279528 L89.5885974,96.1279528 L61.5466734,75.6328307 Z M3.87204724,48.4132316 L3.87204724,94.1337948 L32.863697,72.957955 L3.87204724,48.4132316 Z M93.726378,48.4131476 L64.7740798,72.91865 L93.726378,94.0746179 L93.726378,48.4131476 Z M75.6555118,17.1200787 L21.9429134,17.1200787 L21.9429134,58.3092372 L48.7992126,81.0307976 L75.6555118,58.3092372 L75.6555118,17.1200787 Z M79.7775591,32.562901 L79.7775591,54.8352659 L92.6493723,43.9523917 L79.7775591,32.562901 Z M17.8208661,32.562901 L4.94905288,43.9523917 L17.8208661,54.8352659 L17.8208661,32.562901 Z M48.7992126,5.1565619 L39.9317563,12.9980315 L57.6666689,12.9980315 L48.7992126,5.1565619 Z" id="Shape"></path>
                <path d="M49.0492126,22.0334646 L49.0492126,47.8287402 L26.8562992,47.8287402 L26.8562992,22.0334646 L49.0492126,22.0334646 Z M44.9271654,26.1555118 L30.9783465,26.1555118 L30.9783465,43.726378 L44.9271654,43.726378 L44.9271654,26.1555118 Z" id="Shape"></path>
                <rect id="Rectangle" x="53.9625984" y="22.0334646" width="16.7598425" height="4.12204724"></rect>
                <rect id="Rectangle" x="53.9625984" y="32.8799213" width="16.7598425" height="4.12204724"></rect>
                <rect id="Rectangle" x="53.9625984" y="43.726378" width="16.7598425" height="4.12204724"></rect>
                <rect id="Rectangle" x="26.8562992" y="54.5728346" width="43.8661417" height="4.12204724"></rect>
                <rect id="Rectangle" x="46.738189" y="63.6082677" width="4.12204724" height="4.12204724"></rect>
                <rect id="Rectangle" x="53.9625984" y="63.6082677" width="4.12204724" height="4.12204724"></rect>
                <rect id="Rectangle" x="39.5137795" y="63.6082677" width="4.12204724" height="4.12204724"></rect>
            </g>
        </g>
    </g>
</svg>