<svg width="49" height="50" viewBox="0 0 49 50" fill="none" xmlns="http://www.w3.org/2000/svg">
<path d="M43.3527 33.0171C43.3527 33.5564 42.9148 33.9942 42.3756 33.9942C41.8363 33.9942 41.3994 33.5564 41.3994 33.0171C41.3994 32.4779 41.8363 32.041 42.3756 32.041C42.9148 32.041 43.3527 32.4779 43.3527 33.0171Z" fill="#00AB6A"/>
<path d="M6.17785 33.0171C6.17785 33.5564 5.74094 33.9942 5.2017 33.9942C4.66246 33.9942 4.22461 33.5564 4.22461 33.0171C4.22461 32.4779 4.66246 32.041 5.2017 32.041C5.74094 32.041 6.17785 32.4779 6.17785 33.0171Z" fill="#00AB6A"/>
<path d="M29.0397 19.7325C28.5004 19.7325 28.0635 20.1704 28.0635 20.7096V48.0458H24.5847V34.457C24.5847 33.9177 24.1469 33.4808 23.6077 33.4808C23.0684 33.4808 22.6315 33.9177 22.6315 34.457V48.0458H19.6468V20.7096C19.6468 20.1704 19.2089 19.7325 18.6697 19.7325C18.1304 19.7325 17.6926 20.1704 17.6926 20.7096V33.1739C15.9283 33.0144 14.5438 31.5829 14.5438 29.8453V20.3805C14.5438 18.69 15.0351 17.0446 15.9652 15.6223C17.6696 13.0164 20.5879 11.4595 23.7727 11.4595C26.9629 11.4595 29.8831 13.0201 31.5866 15.6334C32.512 17.0529 33.0015 18.6946 33.0015 20.3805V29.8453C33.0015 31.5285 31.7018 32.9241 30.0168 33.1554V20.7096C30.0168 20.1704 29.5798 19.7325 29.0397 19.7325ZM19.6873 5.72978C19.6873 3.64749 21.3816 1.95326 23.4639 1.95326C25.5462 1.95326 27.2404 3.64749 27.2404 5.72978C27.2404 7.81208 25.5462 9.50631 23.4639 9.50631C21.3816 9.50631 19.6873 7.81208 19.6873 5.72978ZM47.5186 48.0458H39.1322L39.0806 24.0455C39.0797 23.5063 38.6428 23.0703 38.1045 23.0703H38.1026C37.5625 23.0712 37.1264 23.51 37.1274 24.0492L37.179 48.0458H34.3418L34.3169 37.367C34.3159 36.8287 33.8781 36.3936 33.3398 36.3936H33.3379C32.7987 36.3946 32.3618 36.8333 32.3636 37.3726L32.3885 48.0458H30.0168V35.1197C32.7821 34.8764 34.9547 32.6042 34.9547 29.8453V20.3805C34.9547 18.8752 34.6358 17.4004 34.0256 16.0371C35.9539 16.1662 37.7496 16.9506 39.1304 18.2844C40.6421 19.7445 41.4772 21.6848 41.4809 23.7505L41.4993 29.3089C41.5003 29.8472 41.9381 30.2822 42.4755 30.2822H42.4792C43.0184 30.2804 43.4545 29.8416 43.4526 29.3024L43.4351 23.745C43.4286 21.1484 42.3824 18.7093 40.4872 16.8796C39.4051 15.8343 38.1192 15.06 36.719 14.5908C37.7109 13.646 38.3303 12.3131 38.3266 10.8383C38.3211 7.99182 36.0037 5.68093 33.1591 5.68093H33.1481C32.3194 5.68277 31.4953 5.88647 30.7653 6.26809C30.2878 6.51789 30.1025 7.10875 30.3532 7.58624C30.603 8.06371 31.1939 8.24899 31.6714 7.99919C32.1313 7.75861 32.6291 7.63601 33.1527 7.63417C34.928 7.63325 36.3697 9.0703 36.3734 10.842C36.378 12.6145 34.9381 14.0599 33.1665 14.0636C33.1241 14.0636 33.0835 14.0673 33.043 14.0719C32.9904 14.0746 32.9379 14.0765 32.8863 14.0793C31.475 12.1481 29.4941 10.747 27.2376 10.0363C28.4359 8.9855 29.1945 7.44521 29.1945 5.72978C29.1936 2.57085 26.6237 0 23.4639 0C20.3049 0 17.7341 2.57085 17.7341 5.72978C17.7341 7.52817 18.5674 9.13482 19.868 10.1856C17.7968 10.9332 15.9818 12.2726 14.6636 14.0737C14.5088 14.0673 14.3539 14.0626 14.2009 14.0626C14.1281 14.0626 14.0544 14.0645 13.9815 14.0654C13.964 14.0645 13.9465 14.0626 13.9281 14.0626C12.1564 14.0626 10.7138 12.621 10.7138 10.8484C10.7138 9.07584 12.1564 7.63417 13.9281 7.63417C14.4645 7.63417 14.9936 7.76782 15.461 8.02223C15.9348 8.27941 16.5275 8.10427 16.7856 7.63048C17.0428 7.15668 16.8685 6.56399 16.3938 6.30589C15.6417 5.89663 14.789 5.68093 13.9281 5.68093C11.0789 5.68093 8.76058 7.9992 8.76058 10.8484C8.76058 12.3998 9.44915 13.7935 10.535 14.7411C6.84236 16.1652 4.22451 19.6744 4.22451 23.7671V29.3052C4.22451 29.8453 4.66145 30.2822 5.20161 30.2822C5.74085 30.2822 6.17776 29.8453 6.17776 29.3052V23.7671C6.17776 19.7159 9.41136 16.3837 13.516 16.0463C12.9077 17.4059 12.5896 18.878 12.5896 20.3805V29.8453C12.5896 32.6586 14.8508 34.9658 17.6926 35.1326V48.0458H15.0324V37.3698C15.0324 36.8296 14.5945 36.3927 14.0553 36.3927C13.516 36.3927 13.0791 36.8296 13.0791 37.3698V48.0458H10.6779V24.0575C10.6779 23.5173 10.2409 23.0804 9.70079 23.0804C9.16155 23.0804 8.72464 23.5173 8.72464 24.0575V48.0458H0.976171C0.436931 48.0458 0 48.4837 0 49.0229C0 49.5621 0.436931 50 0.976171 50H47.5186C48.0578 50 48.4957 49.5621 48.4957 49.0229C48.4947 48.4837 48.0578 48.0458 47.5186 48.0458Z" fill="#00AB6A"/>
</svg>
