<svg width="42" height="50" viewBox="0 0 42 50" fill="none" xmlns="http://www.w3.org/2000/svg">
<path d="M20.9998 5.6496C13.8837 5.6496 8.08643 11.4468 8.08643 18.563C8.08643 25.6791 13.8738 31.4862 20.9998 31.4862C28.1258 31.4862 33.9132 25.689 33.9132 18.563C33.9132 11.437 28.116 5.6496 20.9998 5.6496ZM20.9998 29.872C14.7695 29.872 9.7006 24.8031 9.7006 18.5728C9.7006 12.3425 14.7695 7.26377 20.9998 7.26377C27.2301 7.26377 32.299 12.3327 32.299 18.563C32.299 24.7933 27.2301 29.872 20.9998 29.872Z" fill="#00AB6A"/>
<path d="M29.4549 15.6693H22.9982L21.0001 9.52756L19.0021 15.6693H12.5454L17.7718 19.4685L15.7738 25.6102L21.0001 21.811L26.2265 25.6102L24.2285 19.4685L29.4549 15.6693ZM21.0001 19.8228L18.8446 21.3878L19.6714 18.8583L17.5159 17.2933H20.1734L21.0001 14.7638L21.8269 17.2933H24.4844L22.3289 18.8583L23.1556 21.378L21.0001 19.8228Z" fill="#00AB6A"/>
<path d="M34.0315 32.0571C35.3603 30.8563 36.1969 29.124 36.1969 27.2047V26.7126C36.1969 25.3937 36.7087 24.1437 37.6437 23.2087C40.2028 20.6496 40.2028 16.4862 37.6437 13.9272C36.7087 12.9921 36.1969 11.752 36.1969 10.4331V9.94094C36.1969 6.3189 33.254 3.37598 29.6319 3.37598H29.1398C27.8209 3.37598 26.5709 2.86417 25.6358 1.92913C24.4055 0.679134 22.752 0 21 0C19.2481 0 17.5945 0.679134 16.3642 1.91929C15.4292 2.85433 14.189 3.36614 12.8603 3.36614H12.3681C8.74609 3.36614 5.80317 6.30906 5.80317 9.9311V10.4232C5.80317 11.7421 5.29136 12.9921 4.35632 13.9173C1.79727 16.4764 1.79727 20.6398 4.35632 23.1988C5.29136 24.1339 5.80317 25.374 5.80317 26.7028V27.1949C5.80317 29.124 6.63979 30.8465 7.96853 32.0472L0.87207 44.3504L8.11616 43.1004L10.6555 50L18.4016 36.5945C19.2284 36.9488 20.1142 37.1358 21 37.1358C21.8858 37.1358 22.7717 36.9488 23.5984 36.5945L31.3445 50L33.8839 43.1004L41.128 44.3504L34.0315 32.0571ZM10.9803 46.2106L9.16931 41.2795L3.99215 42.1752L9.28742 33.002C10.2028 33.4941 11.2559 33.7697 12.3583 33.7697H12.8504C14.1693 33.7697 15.4193 34.2815 16.3445 35.2165C16.5512 35.4232 16.7677 35.6004 16.9941 35.7776L10.9803 46.2106ZM17.5059 34.0748C16.2658 32.8346 14.6221 32.1555 12.8701 32.1555H12.378C9.6516 32.1555 7.42719 29.9311 7.42719 27.2047V26.7126C7.42719 24.9606 6.74805 23.3071 5.5079 22.0768C3.57876 20.1476 3.57876 17.0079 5.5079 15.0787C6.74805 13.8386 7.42719 12.1949 7.42719 10.4429V9.95079C7.42719 7.22441 9.64176 5 12.378 5H12.8701C14.6221 5 16.2756 4.32087 17.5158 3.08071C19.4449 1.15157 22.5847 1.15157 24.5138 3.08071C25.754 4.32087 27.3977 5 29.1496 5H29.6418C32.3681 5 34.5925 7.22441 34.5925 9.95079V10.4429C34.5925 12.1949 35.2717 13.8484 36.5118 15.0787C38.441 17.0079 38.441 20.1476 36.5118 22.0768C35.2717 23.3169 34.5925 24.9606 34.5925 26.7126V27.2047C34.5925 29.9311 32.3681 32.1555 29.6418 32.1555H29.1496C27.3977 32.1555 25.7441 32.8346 24.504 34.0748C22.565 36.0039 19.4351 36.0039 17.5059 34.0748ZM32.8307 41.2795L31.0197 46.2106L24.9961 35.7776C25.2225 35.6004 25.439 35.4232 25.6457 35.2165C26.5807 34.2815 27.8209 33.7697 29.1496 33.7697H29.6418C30.754 33.7697 31.7973 33.4941 32.7126 33.002L38.0079 42.1752L32.8307 41.2795Z" fill="#00AB6A"/>
</svg>
