<?xml version="1.0" encoding="UTF-8"?>
<svg width="100px" height="100px" viewBox="0 0 100 100" version="1.1" xmlns="http://www.w3.org/2000/svg" xmlns:xlink="http://www.w3.org/1999/xlink">
    <!-- Generator: Sketch 64 (93537) - https://sketch.com -->
    <title>icon-modelo-saude</title>
    <desc>Created with Sketch.</desc>
    <g id="Page-1" stroke="none" stroke-width="1" fill="none" fill-rule="evenodd">
        <g id="icon-modelo-saude" fill="#5A5D60" fill-rule="nonzero">
            <path d="M62.845,63.8216667 L60.4883333,66.1783333 L67.155,72.845 C67.8058331,73.4956366 68.8608336,73.4956366 69.5116667,72.845 L84.5116667,57.845 L82.155,55.4883333 L68.3333333,69.31 L62.845,63.8216667 Z" id="Path"></path>
            <path d="M98.3333333,40 L90,40 C86.034069,39.9947343 82.1759042,38.7086794 79,36.3333333 L71,30.3333333 C70.4092976,29.883254 69.5907024,29.883254 69,30.3333333 L63.3333333,34.5833333 L63.3333333,16.6666667 L75,16.6666667 C75.9204746,16.6666667 76.6666667,15.9204746 76.6666667,15 L76.6666667,8.33333333 C76.6666667,6.12319592 75.788693,4.00357998 74.2258898,2.44077682 C72.6630867,0.87797367 70.5434707,0 68.3333333,0 L21.6666667,0 C17.0642938,0 13.3333333,3.73096042 13.3333333,8.33333333 L13.3333333,83.3333333 L1.66666667,83.3333333 C0.746192084,83.3333333 -7.81597009e-14,84.0795254 -7.81597009e-14,85 L-7.81597009e-14,91.6666667 C-7.81597009e-14,96.2690396 3.73096042,100.000097 8.33333333,100.000097 L55,100.000097 C57.8904857,100.000097 60.570944,98.4900696 62.0666667,96.0166667 L69.2166667,99.8 C69.7048133,100.066796 70.2951867,100.066796 70.7833333,99.8 L88.4666667,90.4333333 C95.5690602,86.695517 100.01137,79.325904 100.000022,71.3 L100.000022,41.6666667 C100.000022,40.7461921 99.2538079,40 98.3333333,40 Z M63.3333333,8.33333333 C63.3333333,5.57190958 65.5719096,3.33333333 68.3333333,3.33333333 C71.0947571,3.33333333 73.3333333,5.57190958 73.3333333,8.33333333 L73.3333333,13.3333333 L63.3333333,13.3333333 L63.3333333,8.33333333 Z M13.3333333,91.6666667 C13.3333333,94.4280904 11.0947571,96.6666667 8.33333333,96.6666667 C5.57190961,96.6666667 3.33333333,94.4280904 3.33333333,91.6666667 L3.33333333,86.6666667 L13.3333333,86.6666667 L13.3333333,91.6666667 Z M55,96.6666672 L14.95,96.6666672 C16.058061,95.2349726 16.6616112,93.4770593 16.6666667,91.6666667 L16.6666667,8.33333333 C16.6749037,5.57532867 18.908662,3.34157034 21.6666667,3.33333333 L61.7166667,3.33333333 C60.6086057,4.76502743 60.0050555,6.52294068 60,8.33333333 L60,37.0166667 C57.0245053,38.9555019 53.5514196,39.9916392 50,40 L41.6666667,40 C40.7461921,40 40,40.7461921 40,41.6666667 L40,43.3333333 L23.3333333,43.3333333 L23.3333333,46.6666667 L40,46.6666667 L40,53.3333333 L23.3333333,53.3333333 L23.3333333,56.6666667 L40,56.6666667 L40,63.3333333 L23.3333333,63.3333333 L23.3333333,66.6666667 L40,66.6666667 L40,71.3 C40,71.9833333 40.05,72.6666667 40.1,73.3333333 L23.3333333,73.3333333 L23.3333333,76.6666667 L40.6833333,76.6666667 C41.2942253,79.0385363 42.2969031,81.2917449 43.65,83.3333333 L23.3333333,83.3333333 L23.3333333,86.6666667 L46.4,86.6666667 C47.9133221,88.1716285 49.6436518,89.441286 51.5333333,90.4333333 L59.1333333,94.4666667 C58.2079247,95.8426026 56.6581858,96.6666672 55,96.6666672 Z M96.6666714,71.3 C96.6715316,78.0900248 92.9188152,84.3253074 86.9166667,87.5 L70,96.45 L53.0833333,87.5 C47.0811848,84.3253074 43.3284684,78.0900248 43.3333286,71.3 L43.3333286,43.3333333 L50,43.3333333 C54.6869317,43.3266338 59.246435,41.8067994 63,39 L70,33.75 L77,39 C80.753565,41.8067994 85.3130683,43.3266338 90,43.3333333 L96.6666714,43.3333333 L96.6666714,71.3 Z" id="Shape"></path>
            <path d="M48.3333333,13.3333333 L43.3333333,13.3333333 L43.3333333,8.33333333 C43.3333333,7.41285875 42.5871412,6.66666667 41.6666667,6.66666667 L35,6.66666667 C34.0795254,6.66666667 33.3333333,7.41285875 33.3333333,8.33333333 L33.3333333,13.3333333 L28.3333333,13.3333333 C27.4128588,13.3333333 26.6666667,14.0795254 26.6666667,15 L26.6666667,21.6666667 C26.6666667,22.5871412 27.4128588,23.3333333 28.3333333,23.3333333 L33.3333333,23.3333333 L33.3333333,28.3333333 C33.3333333,29.2538079 34.0795254,30 35,30 L41.6666667,30 C42.5871412,30 43.3333333,29.2538079 43.3333333,28.3333333 L43.3333333,23.3333333 L48.3333333,23.3333333 C49.2538079,23.3333333 50,22.5871412 50,21.6666667 L50,15 C50,14.0795254 49.2538079,13.3333333 48.3333333,13.3333333 Z M46.6666667,20 L41.6666667,20 C40.7461921,20 40,20.7461921 40,21.6666667 L40,26.6666667 L36.6666667,26.6666667 L36.6666667,21.6666667 C36.6666667,20.7461921 35.9204746,20 35,20 L30,20 L30,16.6666667 L35,16.6666667 C35.9204746,16.6666667 36.6666667,15.9204746 36.6666667,15 L36.6666667,10 L40,10 L40,15 C40,15.9204746 40.7461921,16.6666667 41.6666667,16.6666667 L46.6666667,16.6666667 L46.6666667,20 Z" id="Shape"></path>
            <path d="M75,41.6666667 L71,38.6666667 C70.4074074,38.2222222 69.5925926,38.2222222 69,38.6666667 L65,41.6666667 C60.6674915,44.9024661 55.4074865,46.6558011 50,46.6666667 L48.3333333,46.6666667 C47.4128588,46.6666667 46.6666533,47.4128588 46.6666533,48.3333333 L46.6666533,71.2916667 C46.6592635,76.8498233 49.7326165,81.9543232 54.6483333,84.5483333 L69.22,92.2616667 C69.7074629,92.5218149 70.2925371,92.5218149 70.78,92.2616667 L85.35,84.5483333 C90.2666288,81.9550555 93.3407846,76.8502882 93.3333468,71.2916667 L93.3333468,48.3333333 C93.3333468,47.4128588 92.5871412,46.6666667 91.6666667,46.6666667 L90,46.6666667 C84.5924166,46.6563943 79.3322301,44.9029988 75,41.6666667 Z M90.0000082,71.2916667 C90.0051221,75.61529 87.6140042,79.5857266 83.79,81.6033333 L69.9999919,88.9033333 L56.2083333,81.6033333 C52.3852409,79.5849946 49.9949256,75.6148253 49.9999919,71.2916667 L49.9999919,50 C56.1285454,49.9880574 62.0899981,48.0009065 66.9999919,44.3333333 L69.9999919,42.0833333 L72.9999919,44.3333333 C77.9103915,48.000161 83.8715902,49.9872272 90.0000082,50 L90.0000082,71.2916667 Z" id="Shape"></path>
            <rect id="Rectangle" x="23.3333333" y="33.3333333" width="30" height="3.33333333"></rect>
        </g>
    </g>
</svg>