<?xml version="1.0" encoding="UTF-8"?>
<svg width="100px" height="101px" viewBox="0 0 100 101" version="1.1" xmlns="http://www.w3.org/2000/svg" xmlns:xlink="http://www.w3.org/1999/xlink">
    <!-- Generator: Sketch 64 (93537) - https://sketch.com -->
    <title>icon-modelo-pessoas</title>
    <desc>Created with Sketch.</desc>
    <g id="Page-1" stroke="none" stroke-width="1" fill="none" fill-rule="evenodd">
        <g id="icon-modelo-pessoas" transform="translate(0.000000, 0.183160)" fill="#5A5D60" fill-rule="nonzero">
            <path d="M31.6666667,60.0251733 L28.3333333,60.0251733 C28.3333333,61.8661224 26.8409492,63.3585066 25,63.3585066 C23.1590508,63.3585066 21.6666667,61.8661224 21.6666667,60.0251733 L18.3333333,60.0251733 C18.3333333,63.7070716 21.3181017,66.6918399 25,66.6918399 C28.6818983,66.6918399 31.6666667,63.7070716 31.6666667,60.0251733 Z" id="Path"></path>
            <path d="M54.6933333,40.0251733 L63.3333333,40.0251733 L63.3333333,36.6918399 L54.6933333,36.6918399 C54.1891155,35.2802817 53.0782249,34.1693911 51.6666667,33.6651733 L51.6666667,21.6918399 L48.3333333,21.6918399 L48.3333333,33.6651733 C46.1391883,34.4362051 44.7689827,36.6211603 45.0303971,38.9320962 C45.2918116,41.2430322 47.1154744,43.066695 49.4264104,43.3281095 C51.7373463,43.5895239 53.9223015,42.2193183 54.6933333,40.0251733 L54.6933333,40.0251733 Z M48.3333333,38.3585066 C48.3333333,37.438032 49.0795254,36.6918399 50,36.6918399 C50.9204746,36.6918399 51.6666667,37.438032 51.6666667,38.3585066 C51.6666667,39.2789812 50.9204746,40.0251733 50,40.0251733 C49.0795254,40.0251733 48.3333333,39.2789812 48.3333333,38.3585066 Z" id="Shape"></path>
            <rect id="Rectangle" x="48.3333333" y="13.3585066" width="3.33333333" height="3.33333333"></rect>
            <polygon id="Rectangle" transform="translate(66.499656, 21.858916) rotate(-45.000000) translate(-66.499656, -21.858916) " points="64.8329894 20.1922489 68.1663227 20.1922489 68.1663227 23.5255822 64.8329894 23.5255822"></polygon>
            <rect id="Rectangle" x="71.6666667" y="36.6918399" width="3.33333333" height="3.33333333"></rect>
            <polygon id="Rectangle" transform="translate(66.499668, 54.857261) rotate(-45.000000) translate(-66.499668, -54.857261) " points="64.8330013 53.1905942 68.1663347 53.1905942 68.1663347 56.5239275 64.8330013 56.5239275"></polygon>
            <rect id="Rectangle" x="48.3333333" y="60.0251733" width="3.33333333" height="3.33333333"></rect>
            <polygon id="Rectangle" transform="translate(33.501311, 21.858927) rotate(-45.000000) translate(-33.501311, -21.858927) " points="31.8346441 20.1922608 35.1679775 20.1922608 35.1679775 23.5255942 31.8346441 23.5255942"></polygon>
            <path d="M98.3333333,66.6918399 L92.5566667,66.6918399 C92.2643768,65.7616787 91.888974,64.8597078 91.435,63.9968399 L95.5283333,59.9035066 C96.1789699,59.2526735 96.1789699,58.197673 95.5283333,57.5468399 L90.8116667,52.8301733 C90.1608336,52.1795367 89.1058331,52.1795367 88.455,52.8301733 L84.3633333,56.9218399 C84.1483333,56.8085066 83.9233333,56.7135066 83.6966667,56.6101733 C91.3213796,42.5512779 89.4163303,25.2360236 78.9174384,13.1711134 C68.4185465,1.10620325 51.5324733,-3.17255533 36.555072,2.43692224 C21.5776707,8.0463998 11.6568974,22.3651113 11.6666667,38.3585066 C11.6666667,38.9135066 11.6933333,39.4551733 11.7183333,40.0001733 C9.52350051,42.8814546 8.33438033,46.4031473 8.33333333,50.0251733 L8.33333333,55.0251733 C8.33333333,55.9456479 9.07952542,56.6918399 10,56.6918399 L10,58.3585066 C10.0077535,64.0494434 13.2353483,69.245871 18.3333333,71.7751733 L18.3333333,73.7518399 L8.59,76.4018399 C3.52709199,77.8043098 0.0163161885,82.4049656 0,87.6585066 L0,98.3585066 C0,99.2789812 0.746192084,100.025173 1.66666667,100.025173 L48.3333333,100.025173 C49.2538079,100.025173 50,99.2789812 50,98.3585066 L50,87.6585066 C49.9832382,82.4031281 46.4701496,77.8014385 41.405,76.4001733 L31.6666667,73.7518399 L31.6666667,72.0118399 C38.5420808,75.7734613 46.4094627,77.3255219 54.1983333,76.4568399 C54.4402881,76.6041998 54.7167799,76.6852504 55,76.6918399 L60.7766667,76.6918399 C61.0689565,77.6220012 61.4443594,78.5239721 61.8983333,79.3868399 L57.805,83.4801733 C57.1543634,84.1310064 57.1543634,85.1860069 57.805,85.8368399 L62.5216667,90.5535066 C63.1724998,91.2041432 64.2275002,91.2041432 64.8783333,90.5535066 L68.9716667,86.4601733 C69.8345345,86.9141473 70.7365054,87.2895501 71.6666667,87.5818399 L71.6666667,93.3585066 C71.6666667,94.2789812 72.4128588,95.0251733 73.3333333,95.0251733 L80,95.0251733 C80.9204746,95.0251733 81.6666667,94.2789812 81.6666667,93.3585066 L81.6666667,87.5818399 C82.5968279,87.2895501 83.4987988,86.9141473 84.3616667,86.4601733 L88.455,90.5535066 C89.1058331,91.2041432 90.1608336,91.2041432 90.8116667,90.5535066 L95.5283333,85.8368399 C96.1789699,85.1860069 96.1789699,84.1310064 95.5283333,83.4801733 L91.435,79.3868399 C91.888974,78.5239721 92.2643768,77.6220012 92.5566667,76.6918399 L98.3333333,76.6918399 C99.2538079,76.6918399 100,75.9456479 100,75.0251733 L100,68.3585066 C100,67.438032 99.2538079,66.6918399 98.3333333,66.6918399 Z M11.6666667,50.0251733 C11.6666667,42.6613766 17.6362033,36.6918399 25,36.6918399 C32.3637967,36.6918399 38.3333333,42.6613766 38.3333333,50.0251733 L38.3333333,53.2768399 C35.6229047,52.897958 33.274784,51.2042418 32.06,48.7518399 L31.4916667,47.6135066 C31.2518774,47.1339223 30.7959987,46.7989911 30.2666667,46.7135066 C29.7382987,46.6317299 29.2023971,46.8048008 28.8216667,47.1801733 L26.06,49.9418399 C23.8771222,52.1364935 20.9070489,53.3667724 17.8116667,53.358548 L11.6666667,53.358548 L11.6666667,50.0251733 Z M40,58.3585066 L40,56.6918399 C40.9204746,56.6918399 41.6666667,55.9456479 41.6666667,55.0251733 L41.6666667,50.0251733 C41.6880298,45.0862458 39.5083772,40.3944518 35.7202603,37.225283 C31.9321434,34.0561141 26.9292575,32.7389392 22.0716667,33.6318399 C24.0827417,21.7060085 33.4383714,12.3693703 45.3682648,10.3825328 C57.2981581,8.39569534 69.1747788,14.1962558 74.9424215,24.826598 C80.7100642,35.4569403 79.0984165,48.5757516 70.9292328,57.493953 C62.7600491,66.4121544 49.8325764,69.1655288 38.7383333,64.3501733 C39.5687351,62.4616983 39.9983421,60.4214904 40,58.3585066 Z M13.3333333,58.3585066 L13.3333333,56.6918399 L17.8116667,56.6918399 C21.7915809,56.7026867 25.610384,55.1206711 28.4166667,52.2985066 L29.5833333,51.1318399 C31.1679118,53.7309863 33.712842,55.6010609 36.6666667,56.3368399 L36.6666667,58.3585066 C36.6666667,64.8018287 31.4433221,70.0251733 25,70.0251733 C18.5566779,70.0251733 13.3333333,64.8018287 13.3333333,58.3585066 Z M15,78.1118399 L17.3333333,77.4768399 L23.3333333,82.4768399 L23.3333333,86.6918399 L26.6666667,86.6918399 L26.6666667,82.4735066 L32.6666667,77.4735066 L35,78.1085066 L35,80.9985066 L25,90.9985066 L15,80.9985066 L15,78.1118399 Z M25,73.3585066 C26.1221003,73.3551075 27.2402519,73.2254019 28.3333333,72.9718399 L28.3333333,75.0251733 C28.3386721,75.5027245 28.5508719,75.954485 28.915,76.2635066 L25,79.5251733 L21.085,76.2651733 C21.4495651,75.9557719 21.6618093,75.5033086 21.6666667,75.0251733 L21.6666667,72.9718399 C22.7597481,73.2254019 23.8778997,73.3551075 25,73.3585066 L25,73.3585066 Z M46.6666667,87.6585066 L46.6666667,96.6918399 L3.33333333,96.6918399 L3.33333333,87.6585066 C3.3458337,83.9051533 5.85446286,80.6186652 9.47166667,79.6168399 L11.6666667,79.0251733 L11.6666667,81.6918399 C11.6667611,82.1338313 11.8424177,82.5576854 12.155,82.8701733 L23.8216667,94.5368399 C24.4724998,95.1874765 25.5275002,95.1874765 26.1783333,94.5368399 L37.845,82.8701733 C38.1575823,82.5576854 38.3332389,82.1338313 38.3333333,81.6918399 L38.3333333,79.0251733 L40.5233333,79.6218399 C44.1400709,80.6222865 46.6501738,83.9059859 46.6666667,87.6585066 L46.6666667,87.6585066 Z M34.6666667,69.8251733 C35.5649374,69.0628519 36.3709683,68.1980887 37.0683333,67.2485066 C49.5592352,72.8514979 64.2363341,69.7933545 73.4500439,59.6679562 C82.6637538,49.5425578 84.3275811,34.6428548 77.5743524,22.7344525 C70.8211238,10.8260503 57.1801436,4.60566985 43.7609813,7.31532347 C30.3418189,10.0249771 20.1833149,21.0510493 18.58,34.6468399 C17.3362067,35.1732518 16.1609382,35.8487513 15.08,36.6585066 C15.8516607,21.2502097 26.6361455,8.17115148 41.6150982,4.47763726 C56.594051,0.784123038 72.2226475,7.35023656 80.0690766,20.6334825 C87.9155057,33.9167285 86.122881,50.773578 75.6583447,62.1095628 C65.1938084,73.4455476 48.5338313,76.5779654 34.6666667,69.8168399 L34.6666667,69.8251733 Z M70.075,71.0101733 C72.7560375,69.3553008 75.2239171,67.3777506 77.4233333,65.1218399 C80.9712936,65.5403305 83.5533966,68.6892029 83.2688205,72.2504068 C82.9842444,75.8116106 79.9348487,78.5104695 76.3654539,78.3602116 C72.7960591,78.2099537 69.9842734,75.2643614 69.9999344,71.6918399 C70.0094436,71.460784 70.0317,71.2304299 70.0666667,71.0018399 L70.075,71.0101733 Z M96.6666667,73.3585066 L91.2833333,73.3585066 C90.5064341,73.3581874 89.8323587,73.8946823 89.6583333,74.6518399 C89.3305478,76.108936 88.7519325,77.4979513 87.9483333,78.7568399 C87.5242025,79.4163815 87.6171856,80.2823737 88.1716667,80.8368399 L92,84.6585066 L89.6333333,87.0251733 L85.8116667,83.1918399 C85.2572004,82.6373589 84.3912082,82.5443758 83.7316667,82.9685066 C82.4736924,83.7767858 81.0846284,84.3599332 79.6266667,84.6918399 C78.8725389,84.8651604 78.3368862,85.5347262 78.3333333,86.3085066 L78.3333333,91.6918399 L75,91.6918399 L75,86.3085066 C75.0003192,85.5316074 74.4638243,84.857532 73.7066667,84.6835066 C72.2495706,84.3557211 70.8605553,83.7771057 69.6016667,82.9735066 C68.9421251,82.5493758 68.0761329,82.6423589 67.5216667,83.1968399 L63.7,87.0251733 L61.3333333,84.6585066 L65.1666667,80.8368399 C65.7211477,80.2823737 65.8141308,79.4163815 65.39,78.7568399 C64.5864009,77.4979513 64.0077855,76.108936 63.68,74.6518399 C63.6412762,74.5036613 63.5817988,74.3617012 63.5033333,74.2301733 C64.6088889,73.8135066 65.6883333,73.3490622 66.7416667,72.8368399 C67.2972435,77.7581092 71.3713003,81.5313848 76.3206579,81.7086296 C81.2700155,81.8858744 85.6035444,78.4136884 86.5097244,73.5447672 C87.4159044,68.6758459 84.6217239,63.8770853 79.94,62.2618399 C80.6566667,61.3673955 81.3327778,60.4418399 81.9683333,59.4851733 C82.5809148,59.7441918 83.171226,60.0530043 83.7333333,60.4085066 C84.3932224,60.8348882 85.2612698,60.742528 85.8166667,60.1868399 L89.6333333,56.3585066 L92,58.7251733 L88.1666667,62.5468399 C87.6121856,63.1013062 87.5192025,63.9672984 87.9433333,64.6268399 C88.7516125,65.8848143 89.3347599,67.2738782 89.6666667,68.7318399 C89.8399871,69.4859677 90.5095529,70.0216204 91.2833333,70.0251733 L96.6666667,70.0251733 L96.6666667,73.3585066 Z" id="Shape"></path>
        </g>
    </g>
</svg>