<?xml version="1.0" encoding="UTF-8"?>
<svg width="100px" height="101px" viewBox="0 0 100 101" version="1.1" xmlns="http://www.w3.org/2000/svg" xmlns:xlink="http://www.w3.org/1999/xlink">
    <!-- Generator: Sketch 64 (93537) - https://sketch.com -->
    <title>icon-modelo-locacao</title>
    <desc>Created with Sketch.</desc>
    <g id="Page-1" stroke="none" stroke-width="1" fill="none" fill-rule="evenodd">
        <g id="icon-modelo-locacao" fill="#5A5D60" fill-rule="nonzero">
            <path d="M23.3333333,21.6666667 L23.3333333,3.33333333 L83.3333333,3.33333333 L83.3333333,26.6666667 L86.6666667,26.6666667 L86.6666667,1.66666667 C86.6666667,0.666666667 86,0 85,0 L21.6666667,0 C21.5,0 21.3333333,0 21.1666667,0.166666667 L21,0.166666667 C20.8333333,0.333333333 20.6666667,0.333333333 20.5,0.5 L0.5,20.5 C0.333333333,20.6666667 0.333333333,20.8333333 0.166666667,21 L0.166666667,21.1666667 C0.166666667,21.3333333 -3.05533376e-13,21.5 -3.05533376e-13,21.6666667 L-3.05533376e-13,90 L3.33333333,90 L3.33333333,23.3333333 L21.6666667,23.3333333 C22.6666667,23.3333333 23.3333333,22.6666667 23.3333333,21.6666667 Z M5.66666667,20 L12.8333333,12.8333333 L20,5.66666667 L20,20 L5.66666667,20 Z" id="Shape"></path>
            <path d="M99.3333333,49.1666667 L56,17 C55.3333333,16.5 54.6666667,16.5 54,17 L11.8333333,48.3333333 L11.6666667,48.3333333 L11.6666667,48.5 L10.6666667,49.1666667 C10.1666667,49.5 10,50 10,50.5 L10,56.6666667 C10,57.6666667 10.6666667,58.3333333 11.6666667,58.3333333 L16.6666667,58.3333333 L16.6666667,100 L20,100 L20,58.3333333 L90,58.3333333 L90,100 L93.3333333,100 L93.3333333,58.3333333 L98.3333333,58.3333333 C99.3333333,58.3333333 100,57.6666667 100,56.6666667 L100,50.5 C100,50 99.8333333,49.5 99.3333333,49.1666667 Z M96.6666667,55 L91.6666667,55 L18.3333333,55 L13.3333333,55 L13.3333333,51.6666667 L80,51.6666667 L80,48.3333333 L17.3333333,48.3333333 L55,20.3333333 L96.6666667,51.3333333 L96.6666667,55 Z" id="Shape"></path>
            <rect id="Rectangle" x="51.6666667" y="31.6666667" width="6.66666667" height="3.33333333"></rect>
            <rect id="Rectangle" x="46.6666667" y="38.3333333" width="16.6666667" height="3.33333333"></rect>
            <rect id="Rectangle" x="17" y="97" width="76" height="3.33333333"></rect>
            <rect id="Rectangle" x="0" y="87" width="18" height="3.33333333"></rect>
            <polygon id="Path" points="28.3333333 71.6666667 23.3333333 71.6666667 23.3333333 75 26.6666667 75 26.6666667 100 30 100 30 75 45 75 45 100 48.3333333 100 48.3333333 75 51.6666667 75 51.6666667 71.6666667 46.6666667 71.6666667"></polygon>
            <rect id="Rectangle" x="38.3333333" y="85" width="3.33333333" height="3.33333333"></rect>
            <path d="M83.3333333,71.6666667 L60,71.6666667 C59,71.6666667 58.3333333,72.3333333 58.3333333,73.3333333 L58.3333333,93.3333333 L61.6666667,93.3333333 L61.6666667,85 L70,85 L70,93.3333333 L73.3333333,93.3333333 L73.3333333,85 L81.6666667,85 L81.6666667,93.3333333 L85,93.3333333 L85,73.3333333 C85,72.3333333 84.3333333,71.6666667 83.3333333,71.6666667 Z M61.6666667,81.6666667 L61.6666667,75 L70,75 L70,81.6666667 L61.6666667,81.6666667 Z M73.3333333,81.6666667 L73.3333333,75 L81.6666667,75 L81.6666667,81.6666667 L73.3333333,81.6666667 Z" id="Shape"></path>
            <rect id="Rectangle" x="68.3333333" y="8.33333333" width="10" height="3.33333333"></rect>
            <rect id="Rectangle" x="63.3333333" y="15" width="15" height="3.33333333"></rect>
        </g>
    </g>
</svg>