<?xml version="1.0" encoding="UTF-8"?>
<svg width="100px" height="91px" viewBox="0 0 100 91" version="1.1" xmlns="http://www.w3.org/2000/svg" xmlns:xlink="http://www.w3.org/1999/xlink">
    <!-- Generator: Sketch 64 (93537) - https://sketch.com -->
    <title>icon-modelo-auditorias</title>
    <desc>Created with Sketch.</desc>
    <g id="Page-1" stroke="none" stroke-width="1" fill="none" fill-rule="evenodd">
        <g id="icon-modelo-auditorias" fill="#5A5D60" fill-rule="nonzero">
            <path d="M89.4547065,-1.42108547e-14 L24.7912449,-1.42108547e-14 C19.1793713,-1.42108547e-14 14.6136449,4.52302632 14.6136449,10.0645243 L14.1969255,67.0040486 L1.57752409,67.0040486 C0.683198381,67.0040486 2.62900812e-13,67.7947874 2.62900812e-13,68.6891132 L2.62900812e-13,76.5253352 C2.62900812e-13,83.8610198 5.87044534,89.8603555 12.9554656,90.1893028 L12.9554656,90.2834008 L67.4089069,90.2834008 L67.4089069,90.1774417 C67.8137652,90.1940474 68.0588943,90.2834008 68.3372344,90.2834008 L68.3759806,90.2834008 C75.9322812,90.2391194 82.0233425,84.0800545 81.9838057,76.5237538 L81.9838057,26.7206478 L98.4224759,26.7206478 C99.3168016,26.7206478 100.000017,25.9109312 100.000017,25.0173964 L100.000017,10.6393915 C100.01028,4.79583117 95.2982668,0.0419091093 89.4547065,-1.42108547e-14 Z M13.6639676,87.0445344 L13.6528972,87.0445344 C7.89236457,87.0445344 3.2388664,82.2834957 3.2388664,76.5237538 L3.2388664,70.242915 L54.6558704,70.242915 L54.6558704,76.4968686 C54.6432186,80.1421749 56.083154,83.641985 58.6570091,86.2229567 C58.9306049,86.4981338 59.2168522,86.6396761 59.5094255,87.0445344 L13.6639676,87.0445344 Z M78.7449393,76.5221723 C78.7449393,82.2834957 74.1365132,87.0445344 68.3736083,87.0445344 L68.3403972,87.0445344 C62.5490259,87.0026253 57.8812943,82.2890308 57.8947368,76.4976595 L57.8947368,68.6891132 C57.8994814,67.7821356 57.1822812,67.0356781 56.2753036,67.0040486 L17.4357919,67.0040486 L17.8525113,10.0755947 C17.8525113,6.30930547 20.9648595,3.2388664 24.7912449,3.2388664 L81.8090524,3.2388664 C79.9634678,5.26315789 78.7449393,7.82436113 78.7449393,10.6828822 L78.7449393,76.5221723 Z M96.7612159,10.6678581 L96.7612159,23.4817814 L81.9838057,23.4817814 L81.9838057,10.679719 C81.9838057,6.6263917 85.3555162,3.2388664 89.4072621,3.2388664 L89.4523342,3.2388664 C93.5143599,3.27919413 96.7801113,6.59318057 96.7612159,10.655997 L96.7612159,10.6678581 Z" id="Shape"></path>
            <path d="M38.0274229,39.8611462 L46.3768344,45.5694901 C46.9216536,45.9450911 47.6420166,45.9450911 48.1868358,45.5694901 L56.5109437,39.8627277 C59.4026759,37.8898342 61.5384615,33.7653403 61.5384615,30.2679024 L61.5384615,18.7183704 C61.5558579,18.10792 61.219003,17.541751 60.6749747,17.2642016 L47.962266,11.0110387 C47.5162893,10.7896318 46.99282,10.7896318 46.5468433,11.0110387 L33.8578567,17.2468055 C33.3138283,17.5243547 32.9777644,18.0905239 32.9959514,18.7009741 L32.9959514,30.2679024 C32.9959514,33.7653403 35.1364816,37.8898342 38.0274229,39.8611462 Z M36.2348178,19.7115385 L47.2672065,14.2680921 L58.2995951,19.7265626 L58.2995951,30.2679024 C58.2995951,32.7073318 56.7007211,35.8101911 54.6835464,37.1852858 L47.2482287,42.2705275 L39.8421684,37.1860767 C37.8249937,35.8094004 36.2348178,32.7073318 36.2348178,30.2679024 L36.2348178,19.7115385 Z" id="Shape"></path>
            <path d="M44.528087,32.7128668 C44.8301494,33.0212551 45.242915,33.1960083 45.6746583,33.1983806 L45.6786121,33.1983806 C46.1087741,33.1967992 46.520749,33.024418 46.823602,32.7191927 L53.2657514,26.2746711 C53.8991334,25.64208 53.8991334,24.6157008 53.2665423,23.9831097 C52.6347419,23.3497279 51.6083628,23.3497279 50.9757717,23.982319 L45.6841474,29.2731528 L43.5689209,27.1373672 C42.938702,26.5016132 41.9131136,26.4968686 41.2773595,27.1270874 C40.6416055,27.7573065 40.6376518,28.7828947 41.26708,29.4186488 L44.528087,32.7128668 Z" id="Path"></path>
            <path d="M67.4089069,50.2024291 L28.5425101,50.2024291 C27.6481844,50.2024291 26.9230769,50.9275366 26.9230769,51.8218623 C26.9230769,52.7161881 27.6481844,53.4412955 28.5425101,53.4412955 L67.4089069,53.4412955 C68.3032326,53.4412955 69.0283401,52.7161881 69.0283401,51.8218623 C69.0283401,50.9275366 68.3032326,50.2024291 67.4089069,50.2024291 Z" id="Path"></path>
            <path d="M67.4089069,57.6923077 L28.5425101,57.6923077 C27.6481844,57.6923077 26.9230769,58.4174152 26.9230769,59.3117409 C26.9230769,60.2060666 27.6481844,60.9311741 28.5425101,60.9311741 L67.4089069,60.9311741 C68.3032326,60.9311741 69.0283401,60.2060666 69.0283401,59.3117409 C69.0283401,58.4174152 68.3032326,57.6923077 67.4089069,57.6923077 Z" id="Path"></path>
        </g>
    </g>
</svg>