<?xml version="1.0" encoding="UTF-8"?>
<svg width="100px" height="64px" viewBox="0 0 100 64" version="1.1" xmlns="http://www.w3.org/2000/svg" xmlns:xlink="http://www.w3.org/1999/xlink">
    <!-- Generator: Sketch 64 (93537) - https://sketch.com -->
    <title>icon-modelo-transporte</title>
    <desc>Created with Sketch.</desc>
    <g id="Page-1" stroke="none" stroke-width="1" fill="none" fill-rule="evenodd">
        <g id="icon-modelo-transporte" transform="translate(0.000000, 0.012109)" fill="#5A5D60" fill-rule="nonzero">
            <path d="M92.9996094,26.8166016 L90.4099609,16.4582031 C91.1179688,16.3078125 91.6492188,15.6796875 91.6492188,14.9271484 L91.6492188,13.2570313 C91.6492188,9.63085938 88.6990234,6.68085938 85.0730469,6.68085938 L73.2777344,6.68085938 L73.2777344,3.2359375 C73.2777344,1.4515625 71.8261719,5.32907052e-14 70.0417969,5.32907052e-14 L9.91640625,5.32907052e-14 C8.13203125,5.32907052e-14 6.68046875,1.4515625 6.68046875,3.2359375 L6.68046875,31.6285156 C6.68046875,32.4931641 7.38144531,33.1943359 8.24628906,33.1943359 C9.1109375,33.1943359 9.81210938,32.4933594 9.81210938,31.6285156 L9.81210938,3.2359375 C9.81210938,3.17832031 9.85878906,3.13164063 9.91640625,3.13164063 L70.0416016,3.13164063 C70.0992188,3.13164063 70.1458984,3.17832031 70.1458984,3.2359375 L70.1458984,31.6289063 C70.1458984,32.4935547 70.846875,33.1947266 71.7117188,33.1947266 C72.5763672,33.1947266 73.2775391,32.49375 73.2775391,31.6289063 L73.2775391,29.8539063 L91.7480469,29.8539063 C91.7496094,29.8539063 91.7507813,29.8542969 91.7521484,29.8542969 C91.7537109,29.8542969 91.7550781,29.8541016 91.7564453,29.8541016 C94.0292969,29.8556641 95.9591797,31.3474609 96.6220703,33.403125 L91.7533203,33.403125 C90.8886719,33.403125 90.1875,34.1041016 90.1875,34.9689453 L90.1875,38.3091797 C90.1875,41.0144531 92.3882813,43.2152344 95.0935547,43.2152344 L96.8681641,43.2152344 L96.8681641,50.1044922 L92.7740234,50.1044922 C91.4291016,46.2210938 87.7375,43.4238281 83.4025391,43.4238281 C79.0675781,43.4238281 75.3757813,46.2210938 74.0310547,50.1044922 L73.2771484,50.1044922 L73.2771484,38.3089844 C73.2771484,37.4443359 72.5761719,36.7431641 71.7113281,36.7431641 C70.8466797,36.7431641 70.1455078,37.4441406 70.1455078,38.3089844 L70.1455078,50.1041016 L37.6595703,50.1041016 C36.3146484,46.2207031 32.6230469,43.4234375 28.2880859,43.4234375 C23.953125,43.4234375 20.2613281,46.2207031 18.9166016,50.1041016 L9.91640625,50.1041016 C9.85878906,50.1041016 9.81210938,50.0574219 9.81210938,49.9998047 L9.81210938,46.5550781 L16.5970703,46.5550781 C17.4617188,46.5550781 18.1628906,45.8541016 18.1628906,44.9892578 C18.1628906,44.1244141 17.4619141,43.4234375 16.5970703,43.4234375 L1.56582031,43.4234375 C0.701171875,43.4234375 3.69482223e-13,44.1244141 3.69482223e-13,44.9892578 C3.69482223e-13,45.8541016 0.700976563,46.5550781 1.56582031,46.5550781 L6.68066406,46.5550781 L6.68066406,49.9998047 C6.68066406,51.7841797 8.13222656,53.2357422 9.91660156,53.2357422 L18.3744141,53.2357422 C18.3740234,53.2705078 18.3716797,53.3050781 18.3716797,53.3400391 C18.3716797,58.8080078 22.8203125,63.2564453 28.2880859,63.2564453 C33.7558594,63.2564453 38.2044922,58.8080078 38.2044922,53.3400391 C38.2044922,53.3048828 38.2021484,53.2705078 38.2017578,53.2357422 L73.4888672,53.2357422 C73.4884766,53.2705078 73.4861328,53.3050781 73.4861328,53.3400391 C73.4861328,58.8080078 77.9347656,63.2564453 83.4025391,63.2564453 C88.8703125,63.2564453 93.3189453,58.8080078 93.3189453,53.3400391 C93.3189453,53.3048828 93.3166016,53.2705078 93.3162109,53.2357422 L98.4339844,53.2357422 C99.2986328,53.2357422 99.9998047,52.5347656 99.9998047,51.6699219 L99.9998047,34.9685547 C99.9998047,30.8451172 96.9576172,27.4191406 92.9996094,26.8166016 Z M73.2777344,9.81230469 L85.0730469,9.81230469 C86.9724609,9.81230469 88.5177734,11.3576172 88.5177734,13.2570313 L88.5177734,13.3613281 L73.2777344,13.3613281 L73.2777344,9.81230469 Z M73.2777344,26.7224609 L73.2777344,16.4927734 L87.1908203,16.4927734 L89.7482422,26.7224609 L73.2777344,26.7224609 Z M28.2880859,60.1253906 C24.546875,60.1253906 21.503125,57.0818359 21.503125,53.3404297 C21.503125,49.5990234 24.546875,46.5554688 28.2880859,46.5554688 C32.0292969,46.5554688 35.0730469,49.5990234 35.0730469,53.3404297 C35.0730469,57.0818359 32.0292969,60.1253906 28.2880859,60.1253906 Z M83.4029297,60.1253906 C79.6617188,60.1253906 76.6179688,57.0818359 76.6179688,53.3404297 C76.6179688,49.5990234 79.6617188,46.5554688 83.4029297,46.5554688 C87.1441406,46.5554688 90.1878906,49.5990234 90.1878906,53.3404297 C90.1878906,57.0818359 87.1441406,60.1253906 83.4029297,60.1253906 Z M96.8685547,40.0835938 L95.0939453,40.0835938 C94.1154297,40.0835938 93.3193359,39.2875 93.3193359,38.3089844 L93.3193359,36.534375 L96.8683594,36.534375 L96.8683594,40.0835938 L96.8685547,40.0835938 Z" id="Shape"></path>
            <path d="M28.2880859,50.1044922 C26.5037109,50.1044922 25.0521484,51.5560547 25.0521484,53.3404297 C25.0521484,55.1248047 26.5037109,56.5763672 28.2880859,56.5763672 C30.0724609,56.5763672 31.5240234,55.1248047 31.5240234,53.3404297 C31.5240234,51.5560547 30.0724609,50.1044922 28.2880859,50.1044922 Z" id="Path"></path>
            <path d="M83.4029297,50.1044922 C81.6185547,50.1044922 80.1669922,51.5560547 80.1669922,53.3404297 C80.1669922,55.1248047 81.6185547,56.5763672 83.4029297,56.5763672 C85.1873047,56.5763672 86.6388672,55.1248047 86.6388672,53.3404297 C86.6388672,51.5560547 85.1873047,50.1044922 83.4029297,50.1044922 Z" id="Path"></path>
            <path d="M65.03125,43.4240234 L41.6492188,43.4240234 C40.7845703,43.4240234 40.0833984,44.125 40.0833984,44.9898438 C40.0833984,45.8546875 40.784375,46.5556641 41.6492188,46.5556641 L65.03125,46.5556641 C65.8958984,46.5556641 66.5970703,45.8546875 66.5970703,44.9898438 C66.5970703,44.125 65.8960938,43.4240234 65.03125,43.4240234 Z" id="Path"></path>
            <path d="M24.9478516,36.7433594 L4.90605469,36.7433594 C4.04140625,36.7433594 3.34023438,37.4443359 3.34023438,38.3091797 C3.34023438,39.1740234 4.04121094,39.875 4.90605469,39.875 L24.9478516,39.875 C25.8125,39.875 26.5136719,39.1740234 26.5136719,38.3091797 C26.5136719,37.4443359 25.8125,36.7433594 24.9478516,36.7433594 Z" id="Path"></path>
            <path d="M54.4474609,15.4898438 C53.8361328,14.8785156 52.8445313,14.8785156 52.2332031,15.4900391 L38.3089844,29.4140625 L31.0654297,22.1705078 C30.4539063,21.5589844 29.4625,21.5589844 28.8511719,22.1705078 C28.2396484,22.7820313 28.2396484,23.7732422 28.8511719,24.3847656 L37.2019531,32.7355469 C37.5076172,33.0414063 37.9083984,33.1941406 38.3089844,33.1941406 C38.7095703,33.1941406 39.1105469,33.0414063 39.4160156,32.7355469 L54.4472656,17.7042969 C55.0587891,17.0925781 55.0587891,16.1013672 54.4474609,15.4898438 Z" id="Path"></path>
        </g>
    </g>
</svg>