<?xml version="1.0" encoding="UTF-8"?>
<svg width="100px" height="100px" viewBox="0 0 100 100" version="1.1" xmlns="http://www.w3.org/2000/svg" xmlns:xlink="http://www.w3.org/1999/xlink">
    <!-- Generator: Sketch 64 (93537) - https://sketch.com -->
    <title>icon-modelo-licencas</title>
    <desc>Created with Sketch.</desc>
    <g id="Page-1" stroke="none" stroke-width="1" fill="none" fill-rule="evenodd">
        <g id="icon-modelo-licencas" transform="translate(-0.000641, 0.000000)" fill="#5A5D60" fill-rule="nonzero">
            <polygon id="Path" points="36.6673079 23.3333333 63.3339746 23.3333333 63.3339746 26.6666667 36.6673079 26.6666667"></polygon>
            <polygon id="Path" points="21.6673079 80 78.3339746 80 78.3339746 83.3333333 21.6673079 83.3333333"></polygon>
            <polygon id="Path" points="21.6673079 86.6666667 78.3339746 86.6666667 78.3339746 90 21.6673079 90"></polygon>
            <path d="M50.0006412,20 C53.6825396,20 56.6673079,17.0152317 56.6673079,13.3333333 C56.6673079,9.651435 53.6825396,6.66666667 50.0006412,6.66666667 C46.3187429,6.66666667 43.3339746,9.651435 43.3339746,13.3333333 C43.3339746,17.0152317 46.3187429,20 50.0006412,20 Z M50.0006412,10 C51.8415904,10 53.3339746,11.4923842 53.3339746,13.3333333 C53.3339746,15.1742825 51.8415904,16.6666667 50.0006412,16.6666667 C48.1596921,16.6666667 46.6673079,15.1742825 46.6673079,13.3333333 C46.6673079,11.4923842 48.1596921,10 50.0006412,10 Z" id="Shape"></path>
            <path d="M50.0006412,56.6666667 C54.6030142,56.6666667 58.3339746,52.9357062 58.3339746,48.3333333 C58.3339746,43.7309604 54.6030142,40 50.0006412,40 C45.3982683,40 41.6673079,43.7309604 41.6673079,48.3333333 C41.6728181,52.9334219 45.4005527,56.6611565 50.0006412,56.6666667 Z M50.0006412,43.3333333 C52.762065,43.3333333 55.0006412,45.5719096 55.0006412,48.3333333 C55.0006412,51.0947571 52.762065,53.3333333 50.0006412,53.3333333 C47.2392175,53.3333333 45.0006412,51.0947571 45.0006412,48.3333333 C45.0006412,45.5719096 47.2392175,43.3333333 50.0006412,43.3333333 L50.0006412,43.3333333 Z" id="Shape"></path>
            <path d="M23.8856412,64.14 L33.1673079,65.1666667 L34.1889746,74.455 C34.2589911,75.0918975 34.6879189,75.6322688 35.2923079,75.845 C35.469835,75.9085634 35.6570792,75.9407108 35.8456412,75.9400115 C36.2876326,75.9400115 36.7114867,75.764249 37.0239746,75.4516667 L47.1256412,65.35 C47.8425461,66.1898977 48.8913855,66.67361 49.9956412,66.67361 C51.099897,66.67361 52.1487363,66.1898977 52.8656412,65.35 L62.9673079,75.4516667 C63.2797958,75.764249 63.7036499,75.9400115 64.1456412,75.9400115 C64.3342033,75.9407108 64.5214475,75.9085634 64.6989746,75.845 C65.3033636,75.6322688 65.7322914,75.0918975 65.8023079,74.455 L66.8339746,65.1666667 L76.1206412,64.1466667 C76.7576632,64.0772516 77.2984784,63.6487694 77.5117471,63.044508 C77.7250159,62.4402466 77.572967,61.767224 77.1206412,61.3133333 L67.0189746,51.2116667 C67.8216202,50.4645381 68.2946328,49.4291861 68.3339746,48.3333333 C68.3339746,46.3733333 66.7089746,45.0883333 65.4023079,44.0566667 C64.8122012,43.6559751 64.2919385,43.1610498 63.8623079,42.5916667 C63.742291,41.8471245 63.7535724,41.0873175 63.8956412,40.3466667 C64.0856412,38.6416667 64.3023079,36.7066667 62.9639746,35.37 C61.6256412,34.0333333 59.6906412,34.2466667 57.9889746,34.4383333 C57.2478464,34.5812192 56.4873488,34.5925025 55.7423079,34.4716667 C55.1733704,34.0408833 54.6785357,33.5201529 54.2773079,32.93 C53.2456412,31.625 51.9606412,30 50.0006412,30 C48.0406412,30 46.7556412,31.6266667 45.7223079,32.9316667 C45.3217112,33.5207787 44.8280572,34.0408885 44.2606412,34.4716667 C43.5149834,34.5916981 42.7540797,34.5804171 42.0123079,34.4383333 C40.3106412,34.25 38.3739746,34.0316667 37.0373079,35.37 C35.7006412,36.7083333 35.9156412,38.6416667 36.1056412,40.3466667 C36.2477101,41.0873175 36.2589915,41.8471245 36.1389746,42.5916667 C35.709344,43.1610498 35.1890812,43.6559751 34.5989746,44.0566667 C33.2923079,45.0883333 31.6673079,46.3733333 31.6673079,48.3333333 C31.7110046,49.4274833 32.186917,50.4596258 32.9906412,51.2033333 L22.8889746,61.305 C22.4366488,61.7588907 22.2845999,62.4319132 22.4978687,63.0361746 C22.7111374,63.640436 23.2519526,64.0689183 23.8889746,64.1383333 L23.8856412,64.14 Z M65.1356412,62 C64.3590356,62.0851871 63.7458284,62.6983944 63.6606412,63.475 L62.8739746,70.6416667 L55.0406412,62.8083333 C55.2330585,62.5642127 55.4686232,62.3574581 55.7356412,62.1983333 C56.4812388,62.0774739 57.2422876,62.0887571 57.9839746,62.2316667 C59.6873079,62.4233333 61.6223079,62.6383333 62.9589746,61.3 C64.2956412,59.9616667 64.0806412,58.0283333 63.8906412,56.3233333 C63.7485724,55.5826825 63.737291,54.8228755 63.8573079,54.0783333 C64.0149911,53.8102966 64.2212987,53.574032 64.4656412,53.3816667 L72.2989746,61.215 L65.1356412,62 Z M36.6673079,46.6666667 C37.7405449,45.9629342 38.6183269,44.9991514 39.2189746,43.865 C39.6108935,42.6050673 39.6796693,41.266805 39.4189746,39.9733333 C39.2767998,39.2326106 39.2666436,38.4725907 39.3889746,37.7283333 C40.1353745,37.5950664 40.9000558,37.6018485 41.6439746,37.7483333 C42.9381374,38.0085579 44.2769571,37.9392098 45.5373079,37.5466667 C46.6687914,36.9463754 47.6306589,36.0704913 48.3339746,35 C48.7623079,34.4583333 49.6506412,33.3333333 50.0006412,33.3333333 C50.3506412,33.3333333 51.2356412,34.4583333 51.6673079,35 C52.3710404,36.073237 53.3348232,36.951019 54.4689746,37.5516667 C55.7292112,37.9448486 57.0681927,38.0142051 58.3623079,37.7533333 C59.1023819,37.6103014 59.8620071,37.600143 60.6056412,37.7233333 C60.7387624,38.4696888 60.7325465,39.2342409 60.5873079,39.9783333 C60.3266132,41.271805 60.395389,42.6100673 60.7873079,43.87 C61.3872435,45.0017337 62.2632009,45.9636818 63.3339746,46.6666667 C63.8739746,47.095 65.0006412,47.9833333 65.0006412,48.3333333 C65.0006412,48.6833333 63.8756412,49.5683333 63.3339746,50 C62.2607376,50.7037325 61.3829556,51.6675153 60.7823079,52.8016667 C60.390389,54.0615994 60.3216132,55.3998616 60.5823079,56.6933333 C60.7244827,57.4340561 60.7346389,58.194076 60.6123079,58.9383333 C59.865908,59.0716003 59.1012267,59.0648182 58.3573079,58.9183333 C57.0630769,58.6590392 55.7244894,58.7283753 54.4639746,59.12 C53.3324911,59.7202912 52.3706235,60.5961754 51.6673079,61.6666667 C51.2389746,62.2083333 50.3506412,63.3333333 50.0006412,63.3333333 C49.6506412,63.3333333 48.7656412,62.2083333 48.3339746,61.6666667 C47.6302421,60.5934297 46.6664593,59.7156477 45.5323079,59.115 C44.9015827,58.8703172 44.2286192,58.7530585 43.5523079,58.77 C42.9124005,58.7829984 42.2736764,58.830847 41.6389746,58.9133333 C40.8989886,59.0572214 40.1392103,59.0673819 39.3956412,58.9433333 C39.2625201,58.1969778 39.2687359,57.4324258 39.4139746,56.6883333 C39.6746693,55.3948616 39.6058935,54.0565994 39.2139746,52.7966667 C38.614039,51.6649329 37.7380816,50.7029849 36.6673079,50 C36.1273079,49.5716667 35.0006412,48.6833333 35.0006412,48.3333333 C35.0006412,47.9833333 36.1256412,47.0983333 36.6673079,46.6666667 L36.6673079,46.6666667 Z M35.5323079,53.375 C35.7766505,53.5673653 35.9829581,53.8036299 36.1406412,54.0716667 C36.2606582,54.8162089 36.2493767,55.5760159 36.1073079,56.3166667 C35.9173079,58.0216667 35.7006412,59.9566667 37.0389746,61.2933333 C38.3773079,62.63 40.3089746,62.4133333 42.0139746,62.225 C42.7552711,62.0837573 43.5154808,62.0724782 44.2606412,62.1916667 C44.5282339,62.3506568 44.764369,62.5574162 44.9573079,62.8016667 L37.1239746,70.635 L36.3373079,63.4683333 C36.2521208,62.6917277 35.6389135,62.0785205 34.8623079,61.9933333 L27.6956412,61.2066667 L35.5323079,53.375 Z" id="Shape"></path>
            <path d="M93.8006412,60 L99.6339746,52.7083333 C100.034353,52.2082614 100.112682,51.522968 99.835472,50.9454479 C99.5582624,50.3679278 98.9745794,50.0004001 98.3339746,50 L85.0006412,50 L85.0006412,1.66666667 C85.0006412,0.746192084 84.2544492,0 83.3339746,0 L16.6673079,0 C15.7468333,0 15.0006412,0.746192084 15.0006412,1.66666667 L15.0006412,50 L1.66730791,50 C1.02640223,49.9997595 0.442133485,50.3670443 0.164504788,50.9446969 C-0.113123909,51.5223494 -0.0349248807,52.2080265 0.365641243,52.7083333 L6.20064124,60 L0.367307909,67.2916667 C-0.0330702975,67.7917386 -0.111399186,68.477032 0.16581047,69.0545521 C0.443020125,69.6320722 1.0267031,69.9995999 1.66730791,70 L15.0006412,70 L15.0006412,98.3333333 C15.0006412,99.2538079 15.7468333,100 16.6673079,100 L83.3339746,100 C84.2544492,100 85.0006412,99.2538079 85.0006412,98.3333333 L85.0006412,70 L98.3339746,70 C98.9748803,70.0002405 99.559149,69.6329557 99.8367777,69.0553031 C100.114406,68.4776506 100.036207,67.7919735 99.6356412,67.2916667 L93.8006412,60 Z M5.13397458,66.6666667 L9.63397458,61.0416667 C10.1214751,60.4327787 10.1214751,59.5672213 9.63397458,58.9583333 L5.13564124,53.3333333 L15.0006412,53.3333333 L15.0006412,66.6666667 L5.13397458,66.6666667 Z M81.6673079,96.6666667 L18.3339746,96.6666667 L18.3339746,3.33333333 L81.6673079,3.33333333 L81.6673079,96.6666667 Z M85.0006412,66.6666667 L85.0006412,53.3333333 L94.8656412,53.3333333 L90.3656412,58.9583333 C89.8781407,59.5672213 89.8781407,60.4327787 90.3656412,61.0416667 L94.8656412,66.6666667 L85.0006412,66.6666667 Z" id="Shape"></path>
            <polygon id="Path" points="60.0006412 11.6666667 66.6673079 11.6666667 66.6673079 15 60.0006412 15"></polygon>
            <polygon id="Path" points="33.3339746 11.6666667 40.0006412 11.6666667 40.0006412 15 33.3339746 15"></polygon>
        </g>
    </g>
</svg>