<svg width="51" height="50" viewBox="0 0 51 50" fill="none" xmlns="http://www.w3.org/2000/svg">
<path d="M48.7811 27.6976C48.7811 28.6054 47.9045 29.3928 46.744 29.53L43.9409 29.862C43.5602 29.907 43.2412 30.1705 43.1251 30.5356C42.8144 31.5129 42.4172 32.4696 41.9461 33.3803C41.7701 33.7205 41.8088 34.1335 42.0466 34.4338L43.7952 36.6518C44.5188 37.5696 44.5806 38.746 43.939 39.3877L40.1229 43.2047C39.4813 43.8453 38.3051 43.7833 37.387 43.0599L35.1692 41.3111C34.8678 41.0735 34.4558 41.035 34.1156 41.2107C33.2049 41.6827 32.2472 42.0803 31.2701 42.3906C30.9051 42.5069 30.6415 42.8259 30.5963 43.2065L30.2645 46.0096C30.1271 47.1709 29.339 48.0466 28.432 48.0466H23.0349C22.127 48.0466 21.3398 47.1709 21.2025 46.0096L20.8706 43.2065C20.8264 42.8259 20.5627 42.5069 20.1968 42.3906C19.2197 42.0792 18.2629 41.6827 17.3522 41.2107C17.2102 41.1379 17.0563 41.1012 16.9033 41.1012C16.6876 41.1012 16.4747 41.1729 16.2986 41.3122L14.0808 43.0599C13.1636 43.7833 11.9865 43.8453 11.3459 43.2047L7.5288 39.3877C6.88724 38.746 6.949 37.5696 7.6726 36.6518L9.42121 34.4349C9.65903 34.1335 9.69775 33.7205 9.52169 33.3803C9.05066 32.4707 8.65429 31.5137 8.34273 30.5356C8.22659 30.1705 7.90764 29.907 7.52695 29.862L4.72383 29.53C3.56239 29.3928 2.68762 28.6054 2.68762 27.6976V22.3006C2.68762 21.3935 3.56239 20.6054 4.72475 20.4681L7.52787 20.1362C7.90857 20.092 8.22751 19.8284 8.34366 19.4624C8.65429 18.4863 9.05066 17.5285 9.52261 16.6178C9.69867 16.2777 9.65995 15.8656 9.42213 15.5642L7.67444 13.3473C6.94993 12.4293 6.88816 11.2531 7.52972 10.6115L11.3459 6.79443C11.9874 6.15287 13.1636 6.21463 14.0817 6.93915L16.2995 8.68775C16.6 8.92465 17.013 8.9643 17.3531 8.78824C18.2629 8.31629 19.2197 7.91992 20.1968 7.60928C20.5627 7.49314 20.8254 7.1742 20.8706 6.79259L21.2025 3.99038C21.3398 2.82894 22.127 1.95325 23.0349 1.95325H28.432C29.339 1.95325 30.1271 2.82894 30.2645 3.98946L30.5963 6.79259C30.6415 7.17328 30.9051 7.49221 31.2701 7.60928C32.2472 7.919 33.204 8.31629 34.1147 8.78824C34.4548 8.9643 34.8669 8.92465 35.1683 8.68775L37.3861 6.93915C38.3042 6.21555 39.4804 6.15287 40.1219 6.79443L43.9381 10.6115C44.5797 11.2531 44.5179 12.4293 43.7943 13.3473L42.0457 15.5651C41.8079 15.8656 41.7692 16.2786 41.9452 16.6187C42.4172 17.5285 42.8135 18.4853 43.1242 19.4624C43.2412 19.8284 43.5602 20.092 43.9399 20.1362L46.744 20.4681C47.9045 20.6054 48.7811 21.3935 48.7811 22.3006V27.6976ZM46.9735 18.5287L44.7843 18.2696C44.5455 17.5958 44.2709 16.9331 43.9621 16.2878L45.3272 14.5567C46.6638 12.8616 46.6601 10.5719 45.3189 9.23068L41.5028 5.4136C40.1616 4.07241 37.8719 4.06873 36.1758 5.40531L34.4447 6.77139C33.8004 6.46259 33.1367 6.18698 32.4629 5.94916L32.2039 3.75993C31.9504 1.6168 30.329 -1.3746e-06 28.432 -1.3746e-06H23.0349C21.1379 -1.3746e-06 19.5165 1.6168 19.2621 3.76086L19.004 5.95008C18.3302 6.1879 17.6674 6.46259 17.0231 6.77139L15.2911 5.40531C13.5959 4.06873 11.3062 4.07241 9.96505 5.4136L6.1489 9.22976C4.80679 10.5719 4.80401 12.8616 6.14059 14.5567L7.50575 16.2878C7.19696 16.9331 6.92227 17.5958 6.68446 18.2696L4.49431 18.5287C2.35026 18.7821 0.734375 20.4036 0.734375 22.3006V27.6976C0.734375 29.5944 2.35026 31.2158 4.49431 31.4704L6.68353 31.7286C6.92135 32.4022 7.19695 33.0659 7.50483 33.7104L6.13967 35.4424C4.80309 37.1375 4.80587 39.4272 6.14797 40.7685L9.96413 44.5856C11.3053 45.9257 13.595 45.9304 15.2902 44.5939L17.0222 43.2285C17.6674 43.5363 18.3302 43.8111 19.004 44.0498L19.2621 46.2391C19.5165 48.3822 21.1379 50 23.0349 50H28.432C30.329 50 31.9504 48.3822 32.2039 46.2391L32.4629 44.0498C33.1376 43.8122 33.8004 43.5363 34.4456 43.2285L36.1767 44.5939C37.8719 45.9304 40.1625 45.9265 41.5037 44.5856L45.3198 40.7685C46.661 39.4272 46.6647 37.1375 45.3281 35.4424L43.963 33.7104C44.2709 33.0659 44.5455 32.4022 44.7843 31.7286L46.9735 31.4704C49.1166 31.2158 50.7334 29.5944 50.7334 27.6976V22.3006C50.7334 20.4036 49.1166 18.7821 46.9735 18.5287Z" fill="#00AB6A"/>
<path d="M25.7337 9.20766C17.0257 9.20766 9.94092 16.2915 9.94092 24.9997C9.94092 28.4794 11.0507 31.7794 13.1496 34.5437C15.1803 37.2175 18.0636 39.2098 21.2687 40.1528C21.7867 40.3048 22.3296 40.0088 22.4817 39.4918C22.6338 38.9735 22.3379 38.4306 21.8199 38.2786C15.9758 36.5597 11.8942 31.0989 11.8942 24.9997C11.8942 17.3691 18.1023 11.16 25.7337 11.16C33.3651 11.16 39.5733 17.3691 39.5733 24.9997C39.5733 31.3091 35.3138 36.8186 29.2144 38.3985C28.6927 38.5339 28.3792 39.0668 28.5138 39.5885C28.6281 40.0293 29.0245 40.3206 29.4586 40.3206C29.5398 40.3206 29.6227 40.3101 29.7048 40.2889C36.6651 38.486 41.5266 32.1985 41.5266 24.9997C41.5266 16.2915 34.4418 9.20766 25.7337 9.20766Z" fill="#00AB6A"/>
<path d="M33.3829 29.5837L26.7111 24.5157V20.1538C26.7111 19.6145 26.2732 19.1776 25.734 19.1776C25.1947 19.1776 24.7578 19.6145 24.7578 20.1538V24.9997C24.7578 25.3046 24.8998 25.5923 25.1431 25.7774L32.2012 31.1395C32.3782 31.2731 32.5856 31.3376 32.7911 31.3376C33.0861 31.3376 33.3774 31.2051 33.57 30.9523C33.8963 30.5228 33.8124 29.9099 33.3829 29.5837" fill="#00AB6A"/>
<path d="M26.7111 16.0177C26.7111 16.557 26.2732 16.9939 25.734 16.9939C25.1947 16.9939 24.7578 16.557 24.7578 16.0177C24.7578 15.4776 25.1947 15.0407 25.734 15.0407C26.2732 15.0407 26.7111 15.4776 26.7111 16.0177Z" fill="#00AB6A"/>
<path d="M26.3551 39.8161C26.3551 40.3556 25.9173 40.7923 25.378 40.7923C24.8388 40.7923 24.4019 40.3556 24.4019 39.8161C24.4019 39.2771 24.8388 38.8392 25.378 38.8392C25.9173 38.8392 26.3551 39.2771 26.3551 39.8161Z" fill="#00AB6A"/>
</svg>
