<svg width="42" height="52" viewBox="0 0 42 52" fill="none" xmlns="http://www.w3.org/2000/svg">
<mask id="path-1-outside-1" maskUnits="userSpaceOnUse" x="4.80664" y="6.01251" width="29" height="29" fill="black">
<rect fill="white" x="4.80664" y="6.01251" width="29" height="29"/>
<path d="M19.4305 8.22509C12.7235 8.22509 7.26791 13.681 7.26791 20.3882C7.26791 27.0948 12.7235 32.5508 19.4305 32.5508C26.1364 32.5508 31.5933 27.0948 31.5933 20.3882C31.5933 13.681 26.1364 8.22509 19.4305 8.22509ZM19.4305 34.0125C11.9178 34.0125 5.80664 27.8995 5.80664 20.3882C5.80664 12.8764 11.9178 6.76464 19.4305 6.76464C26.9421 6.76464 33.0538 12.8764 33.0538 20.3882C33.0538 27.8995 26.9421 34.0125 19.4305 34.0125Z"/>
</mask>
<path d="M19.4305 8.22509C12.7235 8.22509 7.26791 13.681 7.26791 20.3882C7.26791 27.0948 12.7235 32.5508 19.4305 32.5508C26.1364 32.5508 31.5933 27.0948 31.5933 20.3882C31.5933 13.681 26.1364 8.22509 19.4305 8.22509ZM19.4305 34.0125C11.9178 34.0125 5.80664 27.8995 5.80664 20.3882C5.80664 12.8764 11.9178 6.76464 19.4305 6.76464C26.9421 6.76464 33.0538 12.8764 33.0538 20.3882C33.0538 27.8995 26.9421 34.0125 19.4305 34.0125Z" fill="#00AB6A"/>
<path d="M19.4305 8.42509C12.834 8.42509 7.46791 13.7914 7.46791 20.3882H7.06791C7.06791 13.5705 12.613 8.02509 19.4305 8.02509V8.42509ZM7.46791 20.3882C7.46791 26.9844 12.834 32.3508 19.4305 32.3508V32.7508C12.613 32.7508 7.06791 27.2053 7.06791 20.3882H7.46791ZM19.4305 32.3508C26.026 32.3508 31.3934 26.9844 31.3934 20.3882H31.7934C31.7934 27.2053 26.2469 32.7508 19.4305 32.7508V32.3508ZM31.3934 20.3882C31.3934 13.7915 26.026 8.42509 19.4305 8.42509V8.02509C26.2469 8.02509 31.7934 13.5705 31.7934 20.3882H31.3934ZM19.4305 34.2125C11.8074 34.2125 5.60664 28.0099 5.60664 20.3882H6.00664C6.00664 27.789 12.0283 33.8125 19.4305 33.8125V34.2125ZM5.60664 20.3882C5.60664 12.7659 11.8074 6.56464 19.4305 6.56464V6.96464C12.0283 6.96464 6.00664 12.9868 6.00664 20.3882H5.60664ZM19.4305 6.56464C27.0525 6.56464 33.2538 12.7659 33.2538 20.3882H32.8538C32.8538 12.9868 26.8316 6.96464 19.4305 6.96464V6.56464ZM33.2538 20.3882C33.2538 28.0099 27.0526 34.2125 19.4305 34.2125V33.8125C26.8316 33.8125 32.8538 27.789 32.8538 20.3882H33.2538Z" fill="#00AB6A" mask="url(#path-1-outside-1)"/>
<mask id="path-3-outside-2" maskUnits="userSpaceOnUse" x="10.0552" y="12.6566" width="17" height="16" fill="black">
<rect fill="white" x="10.0552" y="12.6566" width="17" height="16"/>
<path d="M18.8463 27.6566C18.6421 27.6566 18.446 27.5712 18.3065 27.4193L11.2454 19.6698C10.9742 19.3718 10.9954 18.91 11.2937 18.6382C11.5923 18.3652 12.0541 18.3888 12.3251 18.6855L18.68 25.6592L24.9652 13.5138C25.151 13.1554 25.5913 13.0159 25.9494 13.2008C26.3076 13.3863 26.4482 13.8269 26.2635 14.1849L19.4949 27.2625C19.3851 27.4738 19.1778 27.6197 18.9418 27.6502C18.9099 27.6546 18.8781 27.6566 18.8463 27.6566Z"/>
</mask>
<path d="M18.8463 27.6566C18.6421 27.6566 18.446 27.5712 18.3065 27.4193L11.2454 19.6698C10.9742 19.3718 10.9954 18.91 11.2937 18.6382C11.5923 18.3652 12.0541 18.3888 12.3251 18.6855L18.68 25.6592L24.9652 13.5138C25.151 13.1554 25.5913 13.0159 25.9494 13.2008C26.3076 13.3863 26.4482 13.8269 26.2635 14.1849L19.4949 27.2625C19.3851 27.4738 19.1778 27.6197 18.9418 27.6502C18.9099 27.6546 18.8781 27.6566 18.8463 27.6566Z" fill="#00AB6A"/>
<path d="M18.3065 27.4193L18.1592 27.5546L18.1586 27.554L18.3065 27.4193ZM11.2454 19.6698L11.0976 19.8045L11.0975 19.8044L11.2454 19.6698ZM11.2937 18.6382L11.4286 18.7858L11.4284 18.786L11.2937 18.6382ZM12.3251 18.6855L12.4728 18.5507L12.4729 18.5508L12.3251 18.6855ZM18.68 25.6592L18.8577 25.7512L18.7257 26.0062L18.5322 25.794L18.68 25.6592ZM24.9652 13.5138L24.7876 13.4219L24.7876 13.4218L24.9652 13.5138ZM25.9494 13.2008L26.0412 13.0231L26.0414 13.0232L25.9494 13.2008ZM26.2635 14.1849L26.4412 14.2766L26.4411 14.2769L26.2635 14.1849ZM19.4949 27.2625L19.6726 27.3544L19.6724 27.3547L19.4949 27.2625ZM18.9418 27.6502L18.9143 27.4521L18.9161 27.4518L18.9418 27.6502ZM18.8463 27.8566C18.5863 27.8566 18.3368 27.7478 18.1592 27.5546L18.4537 27.2839C18.5553 27.3945 18.6979 27.4566 18.8463 27.4566V27.8566ZM18.1586 27.554L11.0976 19.8045L11.3933 19.5351L18.4543 27.2846L18.1586 27.554ZM11.0975 19.8044C10.752 19.4249 10.779 18.8366 11.1589 18.4904L11.4284 18.786C11.2118 18.9834 11.1964 19.3188 11.3933 19.5351L11.0975 19.8044ZM11.1587 18.4906C11.5396 18.1424 12.1279 18.173 12.4728 18.5507L12.1774 18.8204C11.9804 18.6046 11.645 18.588 11.4286 18.7858L11.1587 18.4906ZM12.4729 18.5508L18.8279 25.5245L18.5322 25.794L12.1773 18.8202L12.4729 18.5508ZM18.5024 25.5673L24.7876 13.4219L25.1428 13.6057L18.8577 25.7512L18.5024 25.5673ZM24.7876 13.4218C25.0243 12.9653 25.5851 12.7877 26.0412 13.0231L25.8577 13.3785C25.5974 13.2442 25.2777 13.3456 25.1428 13.6059L24.7876 13.4218ZM26.0414 13.0232C26.4974 13.2594 26.6767 13.8204 26.4412 14.2766L26.0858 14.0932C26.2198 13.8335 26.1179 13.5133 25.8575 13.3784L26.0414 13.0232ZM26.4411 14.2769L19.6726 27.3544L19.3173 27.1705L26.0859 14.093L26.4411 14.2769ZM19.6724 27.3547C19.5327 27.6236 19.2689 27.8096 18.9674 27.8485L18.9161 27.4518C19.0867 27.4298 19.2376 27.324 19.3175 27.1702L19.6724 27.3547ZM18.9692 27.8483C18.9274 27.8541 18.8863 27.8566 18.8463 27.8566V27.4566C18.8699 27.4566 18.8925 27.4551 18.9143 27.4521L18.9692 27.8483Z" fill="#00AB6A" mask="url(#path-3-outside-2)"/>
<mask id="path-5-outside-3" maskUnits="userSpaceOnUse" x="-0.425293" y="0" width="42" height="52" fill="black">
<rect fill="white" x="-0.425293" width="42" height="52"/>
<path d="M9.17411 49.5383H27.1738V43.2493C27.1738 42.846 27.5012 42.5196 27.9046 42.5196H33.3081C35.0046 42.5196 36.385 41.1389 36.385 39.4435V31.7598L36.3378 30.4303C36.3306 30.2324 36.4045 30.0407 36.5421 29.8988C36.6796 29.7552 36.8695 29.6751 37.0675 29.6751H39.4106L36.1213 20.427C36.0997 20.3653 36.0853 20.3007 36.0812 20.2342L36.0299 19.5074C36.0279 16.4091 35.136 13.3402 33.3748 10.3322C32.0181 8.01374 29.3312 5.93545 29.3045 5.91503C26.3323 3.65519 22.7792 2.45922 19.0321 2.45922C9.65997 2.45922 2.03597 10.0849 2.03597 19.456C2.03597 22.6881 2.81012 25.9198 4.27498 28.8008L9.09467 38.2797C9.14639 38.3823 9.17411 38.4962 9.17411 38.6105V49.5383ZM27.9046 51H8.44326C8.03992 51 7.71273 50.6737 7.71273 50.2691V38.7857L2.97249 29.4626C1.40376 26.3776 0.574707 22.917 0.574707 19.456C0.574707 9.27827 8.85451 1 19.0321 1C23.1004 1 26.9604 2.29726 30.1912 4.75406C30.3133 4.84869 33.1357 7.03156 34.6362 9.5954C36.5287 12.829 37.4893 16.1462 37.4893 19.456L37.5314 20.0309L40.7848 29.1856C40.9439 29.6322 40.8752 30.1297 40.6022 30.5165C40.3281 30.9047 39.8827 31.1356 39.4086 31.1356H37.825L37.8455 31.7342L37.8465 39.4435C37.8465 41.9448 35.8103 43.9802 33.3081 43.9802H28.6353V50.2691C28.6353 50.6737 28.3079 51 27.9046 51Z"/>
</mask>
<path d="M9.17411 49.5383H27.1738V43.2493C27.1738 42.846 27.5012 42.5196 27.9046 42.5196H33.3081C35.0046 42.5196 36.385 41.1389 36.385 39.4435V31.7598L36.3378 30.4303C36.3306 30.2324 36.4045 30.0407 36.5421 29.8988C36.6796 29.7552 36.8695 29.6751 37.0675 29.6751H39.4106L36.1213 20.427C36.0997 20.3653 36.0853 20.3007 36.0812 20.2342L36.0299 19.5074C36.0279 16.4091 35.136 13.3402 33.3748 10.3322C32.0181 8.01374 29.3312 5.93545 29.3045 5.91503C26.3323 3.65519 22.7792 2.45922 19.0321 2.45922C9.65997 2.45922 2.03597 10.0849 2.03597 19.456C2.03597 22.6881 2.81012 25.9198 4.27498 28.8008L9.09467 38.2797C9.14639 38.3823 9.17411 38.4962 9.17411 38.6105V49.5383ZM27.9046 51H8.44326C8.03992 51 7.71273 50.6737 7.71273 50.2691V38.7857L2.97249 29.4626C1.40376 26.3776 0.574707 22.917 0.574707 19.456C0.574707 9.27827 8.85451 1 19.0321 1C23.1004 1 26.9604 2.29726 30.1912 4.75406C30.3133 4.84869 33.1357 7.03156 34.6362 9.5954C36.5287 12.829 37.4893 16.1462 37.4893 19.456L37.5314 20.0309L40.7848 29.1856C40.9439 29.6322 40.8752 30.1297 40.6022 30.5165C40.3281 30.9047 39.8827 31.1356 39.4086 31.1356H37.825L37.8455 31.7342L37.8465 39.4435C37.8465 41.9448 35.8103 43.9802 33.3081 43.9802H28.6353V50.2691C28.6353 50.6737 28.3079 51 27.9046 51Z" fill="#00AB6A"/>
<path d="M9.17411 49.5383V49.7383H8.97411V49.5383H9.17411ZM27.1738 49.5383H27.3738V49.7383H27.1738V49.5383ZM36.385 31.7598L36.585 31.7527V31.7598H36.385ZM36.3378 30.4303L36.5377 30.4231L36.5377 30.4232L36.3378 30.4303ZM36.5421 29.8988L36.6865 30.0372L36.6857 30.038L36.5421 29.8988ZM39.4106 29.6751L39.599 29.608L39.694 29.8751H39.4106V29.6751ZM36.1213 20.427L35.9328 20.4941L35.9324 20.4929L36.1213 20.427ZM36.0812 20.2342L36.2808 20.2201L36.2809 20.2219L36.0812 20.2342ZM36.0299 19.5074L35.8299 19.5215L35.8299 19.5075L36.0299 19.5074ZM33.3748 10.3322L33.2023 10.4332L33.2022 10.4332L33.3748 10.3322ZM29.3045 5.91503L29.4255 5.75582L29.426 5.75621L29.3045 5.91503ZM4.27498 28.8008L4.0967 28.8914H4.0967L4.27498 28.8008ZM9.09467 38.2797L9.27294 38.1891L9.27326 38.1897L9.09467 38.2797ZM7.71273 38.7857L7.89101 38.695L7.91273 38.7378V38.7857H7.71273ZM2.97249 29.4626L3.15076 29.372L3.15077 29.372L2.97249 29.4626ZM30.1912 4.75406L30.3123 4.59485L30.3137 4.59596L30.1912 4.75406ZM34.6362 9.5954L34.4636 9.69642V9.69642L34.6362 9.5954ZM37.4893 19.456L37.2899 19.4706L37.2893 19.4633V19.456H37.4893ZM37.5314 20.0309L37.343 20.0979L37.3339 20.0724L37.332 20.0455L37.5314 20.0309ZM40.7848 29.1856L40.5964 29.2527L40.5964 29.2526L40.7848 29.1856ZM40.6022 30.5165L40.7656 30.6319L40.7655 30.6319L40.6022 30.5165ZM37.825 31.1356L37.6251 31.1425L37.618 30.9356H37.825V31.1356ZM37.8455 31.7342L38.0455 31.7273L38.0455 31.7341L37.8455 31.7342ZM37.8465 39.4435L38.0465 39.4435V39.4435H37.8465ZM28.6353 43.9802H28.4353V43.7802H28.6353V43.9802ZM9.17411 49.3383H27.1738V49.7383H9.17411V49.3383ZM26.9738 49.5383V43.2493H27.3738V49.5383H26.9738ZM26.9738 43.2493C26.9738 42.7352 27.3911 42.3196 27.9046 42.3196V42.7196C27.6113 42.7196 27.3738 42.9568 27.3738 43.2493H26.9738ZM27.9046 42.3196H33.3081V42.7196H27.9046V42.3196ZM33.3081 42.3196C34.8942 42.3196 36.185 41.0284 36.185 39.4435H36.585C36.585 41.2494 35.1151 42.7196 33.3081 42.7196V42.3196ZM36.185 39.4435V31.7598H36.585V39.4435H36.185ZM36.1852 31.7669L36.1379 30.4374L36.5377 30.4232L36.5849 31.7527L36.1852 31.7669ZM36.138 30.4376C36.1288 30.185 36.2231 29.9406 36.3984 29.7596L36.6857 30.038C36.586 30.1409 36.5325 30.2797 36.5377 30.4231L36.138 30.4376ZM36.3976 29.7605C36.5732 29.5771 36.8154 29.4751 37.0675 29.4751V29.8751C36.9235 29.8751 36.7859 29.9333 36.6865 30.0371L36.3976 29.7605ZM37.0675 29.4751H39.4106V29.8751H37.0675V29.4751ZM39.2222 29.7421L35.9328 20.4941L36.3097 20.36L39.599 29.608L39.2222 29.7421ZM35.9324 20.4929C35.9057 20.4164 35.887 20.3338 35.8816 20.2465L36.2809 20.2219C36.2837 20.2676 36.2937 20.3141 36.3101 20.3612L35.9324 20.4929ZM35.8817 20.2483L35.8304 19.5214L36.2294 19.4933L36.2807 20.2201L35.8817 20.2483ZM35.8299 19.5075C35.8279 16.4492 34.9479 13.4148 33.2023 10.4332L33.5474 10.2311C35.3241 13.2657 36.2278 16.369 36.2299 19.5072L35.8299 19.5075ZM33.2022 10.4332C32.5375 9.29737 31.5419 8.2131 30.7023 7.40604C30.2836 7.0036 29.9061 6.67233 29.6318 6.44056C29.4947 6.32471 29.3835 6.23381 29.306 6.17141C29.2672 6.14022 29.2369 6.11615 29.216 6.09967C29.2055 6.09143 29.1974 6.08508 29.1917 6.0807C29.1889 6.0785 29.1867 6.07681 29.1852 6.07561C29.1835 6.07434 29.1829 6.0738 29.1829 6.07385L29.426 5.75621C29.4521 5.77613 32.1687 7.87518 33.5475 10.2312L33.2022 10.4332ZM29.1834 6.07424C26.2461 3.84093 22.7356 2.65922 19.0321 2.65922V2.25922C22.8228 2.25922 26.4184 3.46943 29.4255 5.75582L29.1834 6.07424ZM19.0321 2.65922C9.77044 2.65922 2.23597 10.1953 2.23597 19.456H1.83597C1.83597 9.97441 9.54949 2.25922 19.0321 2.25922V2.65922ZM2.23597 19.456C2.23597 22.6566 3.00268 25.8572 4.45326 28.7101L4.0967 28.8914C2.61756 25.9823 1.83597 22.7196 1.83597 19.456H2.23597ZM4.45326 28.7101L9.27294 38.1891L8.91639 38.3704L4.0967 28.8914L4.45326 28.7101ZM9.27326 38.1897C9.33868 38.3195 9.37411 38.464 9.37411 38.6105H8.97411C8.97411 38.5283 8.95411 38.4452 8.91607 38.3697L9.27326 38.1897ZM9.37411 38.6105V49.5383H8.97411V38.6105H9.37411ZM27.9046 51.2H8.44326V50.8H27.9046V51.2ZM8.44326 51.2C7.92956 51.2 7.51273 50.7842 7.51273 50.2691H7.91273C7.91273 50.5631 8.15028 50.8 8.44326 50.8V51.2ZM7.51273 50.2691V38.7857H7.91273V50.2691H7.51273ZM7.53446 38.8763L2.79421 29.5533L3.15077 29.372L7.89101 38.695L7.53446 38.8763ZM2.79421 29.5533C1.2112 26.4402 0.374707 22.9485 0.374707 19.456H0.774707C0.774707 22.8855 1.59632 26.3151 3.15076 29.372L2.79421 29.5533ZM0.374707 19.456C0.374707 9.16779 8.74408 0.799999 19.0321 0.799999V1.2C8.96495 1.2 0.774707 9.38874 0.774707 19.456H0.374707ZM19.0321 0.799999C23.1439 0.799999 27.0465 2.11149 30.3123 4.59486L30.0702 4.91326C26.8743 2.48304 23.0568 1.2 19.0321 1.2V0.799999ZM30.3137 4.59596C30.4348 4.68976 33.2866 6.89338 34.8088 9.49438L34.4636 9.69642C32.9848 7.16974 30.1919 5.00761 30.0687 4.91216L30.3137 4.59596ZM34.8088 9.49437C36.7168 12.7545 37.6893 16.1061 37.6893 19.456H37.2893C37.2893 16.1862 36.3406 12.9036 34.4636 9.69642L34.8088 9.49437ZM37.6888 19.4414L37.7309 20.0163L37.332 20.0455L37.2899 19.4706L37.6888 19.4414ZM37.7199 19.9639L40.9733 29.1186L40.5964 29.2526L37.343 20.0979L37.7199 19.9639ZM40.9732 29.1185C41.1542 29.6264 41.076 30.192 40.7656 30.6319L40.4388 30.4012C40.6743 30.0674 40.7337 29.6379 40.5964 29.2527L40.9732 29.1185ZM40.7655 30.6319C40.4541 31.073 39.9478 31.3356 39.4086 31.3356V30.9356C39.8176 30.9356 40.2022 30.7364 40.4388 30.4012L40.7655 30.6319ZM39.4086 31.3356H37.825V30.9356H39.4086V31.3356ZM38.0248 31.1288L38.0454 31.7273L37.6456 31.741L37.6251 31.1425L38.0248 31.1288ZM38.0455 31.7341L38.0465 39.4435L37.6465 39.4436L37.6455 31.7342L38.0455 31.7341ZM38.0465 39.4435C38.0465 42.0553 35.9207 44.1802 33.3081 44.1802V43.7802C35.6999 43.7802 37.6465 41.8343 37.6465 39.4435H38.0465ZM33.3081 44.1802H28.6353V43.7802H33.3081V44.1802ZM28.8353 43.9802V50.2691H28.4353V43.9802H28.8353ZM28.8353 50.2691C28.8353 50.7843 28.4182 51.2 27.9046 51.2V50.8C28.1976 50.8 28.4353 50.563 28.4353 50.2691H28.8353Z" fill="#00AB6A" mask="url(#path-5-outside-3)"/>
</svg>
