<svg width="55" height="51" viewBox="0 0 55 51" fill="none" xmlns="http://www.w3.org/2000/svg">
<path d="M1.44053 46.7942C0.82964 46.7942 0.334961 46.299 0.334961 45.6873V38.4655C0.334961 35.7261 1.96493 33.2669 4.48796 32.2016L10.5436 29.6455C11.1075 29.4099 11.7552 29.6714 11.9923 30.2338C12.2299 30.7952 11.9664 31.4449 11.4035 31.6825L5.34784 34.2385C3.64588 34.9574 2.54609 36.6167 2.54609 38.4655V45.6873C2.54609 46.299 2.0508 46.7942 1.44053 46.7942" fill="#00AB6A"/>
<path d="M35.7745 46.7942C35.1639 46.7942 34.6689 46.299 34.6689 45.6873V38.4655C34.6689 36.6167 33.5682 34.9574 31.8669 34.2385L25.8097 31.681C25.2469 31.4439 24.9834 30.7942 25.2215 30.2313C25.4579 29.6714 26.1073 29.4099 26.6696 29.6445L32.7268 32.2016C35.2499 33.2669 36.88 35.7261 36.88 38.4655V45.6873C36.88 46.299 36.385 46.7942 35.7745 46.7942" fill="#00AB6A"/>
<path d="M18.6074 28.9477C17.8593 28.9477 17.1112 28.7904 16.4145 28.4737L12.1765 26.5571C10.2772 25.6972 9.0498 23.7947 9.0498 21.7102V15.0115C9.0498 14.4009 9.54448 13.9047 10.1554 13.9047C10.7663 13.9047 11.2609 14.4009 11.2609 15.0115V21.7102C11.2609 22.9285 11.9783 24.0404 13.0882 24.5428L17.3267 26.4587C18.1415 26.8302 19.0757 26.8272 19.8882 26.4602L24.1267 24.5428C25.237 24.0404 25.9543 22.9285 25.9543 21.7102V15.1011C25.9543 14.4906 26.4491 13.9956 27.0603 13.9956C27.6709 13.9956 28.1647 14.4906 28.1647 15.1011V21.7102C28.1647 23.7947 26.938 25.6972 25.0383 26.5571L20.8003 28.4745C20.1031 28.7904 19.3555 28.9477 18.6074 28.9477Z" fill="#00AB6A"/>
<path d="M15.7136 33.8062C15.5678 33.8062 15.4196 33.7765 15.2779 33.715L10.5375 31.6794C10.2314 31.548 10.0001 31.2855 9.90992 30.965C9.81926 30.643 9.87773 30.299 10.0707 30.0264L13.2055 25.5807C13.5577 25.082 14.2482 24.9617 14.7458 25.3143C15.2454 25.6665 15.3643 26.3555 15.0121 26.8546L12.6633 30.1862L15.2602 31.3013L17.657 27.276C17.9699 26.7524 18.6484 26.5806 19.1724 26.8926C19.6974 27.2058 19.8696 27.8829 19.5572 28.4083L16.6642 33.2653C16.4593 33.6084 16.0932 33.8062 15.7136 33.8062" fill="#00AB6A"/>
<path d="M21.3971 33.8062C21.0176 33.8062 20.6514 33.6084 20.446 33.2653L17.5531 28.4083C17.2402 27.8829 17.4124 27.2058 17.9374 26.8926C18.4614 26.5806 19.1404 26.7524 19.4532 27.276L21.8505 31.3013L24.447 30.1862L22.0977 26.8546C21.7455 26.3555 21.8649 25.6665 22.364 25.3143C22.862 24.9617 23.5526 25.082 23.9043 25.5807L27.0401 30.0264C27.2329 30.299 27.2919 30.643 27.201 30.965C27.1101 31.2855 26.8794 31.548 26.5726 31.6794L21.8324 33.715C21.6907 33.7765 21.5425 33.8062 21.3971 33.8062" fill="#00AB6A"/>
<path d="M18.5039 37.285C18.1799 37.285 17.859 37.1425 17.6407 36.8695L14.8518 33.3906C14.4693 32.9141 14.5461 32.2188 15.0226 31.8369C15.4976 31.4564 16.1939 31.5289 16.5767 32.0087L19.3657 35.4875C19.7476 35.963 19.6709 36.6598 19.1949 37.0403C18.9909 37.204 18.7467 37.285 18.5039 37.285" fill="#00AB6A"/>
<path d="M16.1527 49.7937C16.0851 49.7937 16.0164 49.7874 15.9469 49.7755C15.3471 49.6623 14.9517 49.0841 15.0654 48.4842L17.4171 35.9741C17.5298 35.3734 18.1042 34.9756 18.7079 35.0913C19.3077 35.204 19.7031 35.7827 19.5894 36.3821L17.2376 48.8921C17.1383 49.4228 16.6739 49.7937 16.1527 49.7937" fill="#00AB6A"/>
<path d="M18.5023 37.285C18.2595 37.285 18.0152 37.204 17.8113 37.0403C17.3353 36.6598 17.2585 35.963 17.6405 35.4865L20.4304 32.0077C20.8123 31.5312 21.5085 31.4564 21.9845 31.8369C22.4605 32.2188 22.5373 32.9141 22.1554 33.3921L19.3656 36.8709C19.1472 37.1425 18.8262 37.285 18.5023 37.285Z" fill="#00AB6A"/>
<path d="M20.8535 49.7937C20.3325 49.7937 19.8679 49.4228 19.7686 48.8921L17.4168 36.3821C17.3036 35.7827 17.6985 35.204 18.2983 35.0913C18.8972 34.9765 19.4774 35.3734 19.5892 35.9741L21.9408 48.4842C22.0546 49.0841 21.6591 49.6623 21.0594 49.7755C20.9903 49.7874 20.9217 49.7937 20.8535 49.7937" fill="#00AB6A"/>
<path d="M30.0067 12.761H7.20762C6.59673 12.761 6.10205 12.2647 6.10205 11.6542C6.10205 11.0437 6.59673 10.5487 7.20762 10.5487H30.0067C30.6172 10.5487 31.1123 11.0437 31.1123 11.6542C31.1123 12.2647 30.6172 12.761 30.0067 12.761Z" fill="#00AB6A"/>
<path d="M28.0723 12.761C27.4618 12.761 26.9671 12.2647 26.9671 11.6542C26.9671 6.99488 24.3822 2.295 18.6072 2.295C12.8327 2.295 10.2473 6.99488 10.2473 11.6542C10.2473 12.2647 9.75258 12.761 9.14219 12.761C8.5313 12.761 8.03662 12.2647 8.03662 11.6542C8.03662 6.08094 11.3447 0.0826389 18.6072 0.0826389C25.8701 0.0826389 29.1779 6.08094 29.1779 11.6542C29.1779 12.2647 28.6828 12.761 28.0723 12.761" fill="#00AB6A"/>
<path d="M15.565 12.761C14.9542 12.761 14.4595 12.2647 14.4595 11.6542V1.69185C14.4595 1.08133 14.9542 0.586282 15.565 0.586282C16.1759 0.586282 16.6706 1.08133 16.6706 1.69185V11.6542C16.6706 12.2647 16.1759 12.761 15.565 12.761Z" fill="#00AB6A"/>
<path d="M21.6495 12.761C21.0387 12.761 20.5439 12.2647 20.5439 11.6542V1.69185C20.5439 1.08133 21.0387 0.586282 21.6495 0.586282C22.2599 0.586282 22.7551 1.08133 22.7551 1.69185V11.6542C22.7551 12.2647 22.2599 12.761 21.6495 12.761Z" fill="#00AB6A"/>
<path d="M18.503 50.0826C8.5256 50.0826 1.28513 46.8322 0.981341 46.6944C0.426716 46.44 0.182017 45.7855 0.434331 45.229C0.687752 44.6752 1.34323 44.4282 1.89786 44.681C1.96898 44.7132 9.02986 47.87 18.503 47.87C27.985 47.87 35.2547 44.7093 35.3272 44.6762C35.8861 44.433 36.5384 44.6824 36.7853 45.24C37.0322 45.7981 36.7804 46.4511 36.2227 46.6997C35.9107 46.8369 28.4752 50.0826 18.503 50.0826" fill="#00AB6A"/>
<path d="M46.7317 8.75391H31.9908C31.3803 8.75391 30.8853 8.25886 30.8853 7.64834C30.8853 7.03782 31.3803 6.54155 31.9908 6.54155H46.7317C47.3422 6.54155 47.8373 7.03782 47.8373 7.64834C47.8373 8.25886 47.3422 8.75391 46.7317 8.75391Z" fill="#00AB6A"/>
<path d="M50.2581 41.0475H39.9444C39.3339 41.0475 38.8389 40.5523 38.8389 39.9419C38.8389 39.3315 39.3339 38.8349 39.9444 38.8349H50.2581C50.8687 38.8349 51.3637 39.3315 51.3637 39.9419C51.3637 40.5523 50.8687 41.0475 50.2581 41.0475Z" fill="#00AB6A"/>
<path d="M53.784 37.5221C53.1735 37.5221 52.6797 37.0269 52.6797 36.4165V7.64835C52.6797 7.03783 53.1735 6.54156 53.784 6.54156C54.3945 6.54156 54.8896 7.03783 54.8896 7.64835V36.4165C54.8896 37.0269 54.3945 37.5221 53.784 37.5221Z" fill="#00AB6A"/>
<path d="M50.2585 33.9967C48.9245 33.9967 47.8386 35.0825 47.8386 36.4165C47.8386 37.7504 48.9245 38.8349 50.2585 38.8349C51.5938 38.8349 52.6797 37.7504 52.6797 36.4165C52.6797 35.0825 51.5938 33.9967 50.2585 33.9967ZM50.2585 41.0475C47.7047 41.0475 45.6274 38.9703 45.6274 36.4165C45.6274 33.8628 47.7047 31.7841 50.2585 31.7841C52.8124 31.7841 54.8896 33.8628 54.8896 36.4165C54.8896 38.9703 52.8124 41.0475 50.2585 41.0475Z" fill="#00AB6A"/>
<path d="M53.7841 8.75391C53.1735 8.75391 52.6797 8.25886 52.6797 7.64834C52.6797 6.31429 51.5938 5.22839 50.2585 5.22839C48.9245 5.22839 47.8386 6.31429 47.8386 7.64834C47.8386 8.25886 47.3435 8.75391 46.733 8.75391C46.1225 8.75391 45.6274 8.25886 45.6274 7.64834C45.6274 5.09448 47.7047 3.01602 50.2585 3.01602C52.8124 3.01602 54.8896 5.09448 54.8896 7.64834C54.8896 8.25886 54.3946 8.75391 53.7841 8.75391Z" fill="#00AB6A"/>
<path d="M46.733 37.5221C46.1225 37.5221 45.6274 37.0269 45.6274 36.4165V7.64835C45.6274 7.03783 46.1225 6.54156 46.733 6.54156C47.3435 6.54156 47.8386 7.03783 47.8386 7.64835V36.4165C47.8386 37.0269 47.3435 37.5221 46.733 37.5221Z" fill="#00AB6A"/>
<path d="M46.7329 16.9475H45.5045C44.894 16.9475 44.3989 16.4524 44.3989 15.8419C44.3989 15.2314 44.894 14.7351 45.5045 14.7351H46.7329C47.3434 14.7351 47.8385 15.2314 47.8385 15.8419C47.8385 16.4524 47.3434 16.9475 46.7329 16.9475Z" fill="#00AB6A"/>
<path d="M42.5824 16.9475H40.6354C40.0248 16.9475 39.5298 16.4524 39.5298 15.8419C39.5298 15.2314 40.0248 14.7351 40.6354 14.7351H42.5824C43.1929 14.7351 43.688 15.2314 43.688 15.8419C43.688 16.4524 43.1929 16.9475 42.5824 16.9475Z" fill="#00AB6A"/>
<path d="M36.4845 18.1758C35.874 18.1758 35.3789 17.6808 35.3789 17.0702V15.8418C35.3789 15.2313 35.874 14.735 36.4845 14.735H37.7129C38.3234 14.735 38.8184 15.2313 38.8184 15.8418C38.8184 16.4524 38.3234 16.9474 37.7129 16.9474H37.59V17.0702C37.59 17.6808 37.095 18.1758 36.4845 18.1758Z" fill="#00AB6A"/>
<path d="M36.4845 24.3792C35.874 24.3792 35.3789 23.8831 35.3789 23.2727V20.7924C35.3789 20.1819 35.874 19.6856 36.4845 19.6856C37.095 19.6856 37.59 20.1819 37.59 20.7924V23.2727C37.59 23.8831 37.095 24.3792 36.4845 24.3792Z" fill="#00AB6A"/>
<path d="M37.7129 29.3288H36.4845C35.874 29.3288 35.3789 28.8335 35.3789 28.2232V26.9948C35.3789 26.3839 35.874 25.8878 36.4845 25.8878C37.095 25.8878 37.59 26.3839 37.59 26.9948V27.1162H37.7129C38.3234 27.1162 38.8184 27.6123 38.8184 28.2232C38.8184 28.8335 38.3234 29.3288 37.7129 29.3288" fill="#00AB6A"/>
<path d="M42.5822 29.3288H40.6339C40.0234 29.3288 39.5283 28.8335 39.5283 28.2232C39.5283 27.6123 40.0234 27.1162 40.6339 27.1162H42.5822C43.1927 27.1162 43.6877 27.6123 43.6877 28.2232C43.6877 28.8335 43.1927 29.3288 42.5822 29.3288" fill="#00AB6A"/>
<path d="M46.7329 29.3288H45.5045C44.894 29.3288 44.3989 28.8335 44.3989 28.2232C44.3989 27.6123 44.894 27.1162 45.5045 27.1162H46.7329C47.3434 27.1162 47.8385 27.6123 47.8385 28.2232C47.8385 28.8335 47.3434 29.3288 46.7329 29.3288" fill="#00AB6A"/>
</svg>
